<svg width="10" height="14" viewBox="0 0 10 14" fill="none" xmlns="http://www.w3.org/2000/svg">
<path fill-rule="evenodd" clip-rule="evenodd" d="M5.00448 1.94428L8.47651 5.06912C8.8255 5.38321 9.38926 5.38321 9.73826 5.06912C10.0872 4.75502 10.0872 4.24764 9.73826 3.93355L5.63087 0.236901C5.28188 -0.0771927 4.71812 -0.0771928 4.36913 0.236901L0.261745 3.93354C-0.0872482 4.24764 -0.0872483 4.75502 0.261745 5.06912C0.610738 5.37516 1.18345 5.38321 1.53244 5.06912L5.00448 1.94428Z" fill="#1D1D27"/>
<path fill-rule="evenodd" clip-rule="evenodd" d="M4.99553 11.3604L1.52349 8.23557C1.1745 7.92148 0.610738 7.92148 0.261745 8.23557C-0.0872482 8.54966 -0.0872481 9.05705 0.261745 9.37114L4.36913 13.0678C4.71812 13.3819 5.28188 13.3819 5.63087 13.0678L9.73826 9.37114C10.0872 9.05705 10.0872 8.54966 9.73826 8.23557C9.38926 7.92953 8.81655 7.92147 8.46756 8.23557L4.99553 11.3604Z" fill="#1D1D27"/>
</svg>
