<svg width="10" height="13" viewBox="0 0 10 13" fill="none" xmlns="http://www.w3.org/2000/svg">
<path fill-rule="evenodd" clip-rule="evenodd" d="M4.99553 11.0571L1.52349 7.93223C1.1745 7.61813 0.610738 7.61813 0.261745 7.93223C-0.0872484 8.24632 -0.0872484 8.7537 0.261745 9.0678L4.36913 12.7644C4.71812 13.0785 5.28188 13.0785 5.63087 12.7644L9.73825 9.0678C10.0872 8.7537 10.0872 8.24632 9.73826 7.93223C9.38926 7.62619 8.81655 7.61813 8.46756 7.93223L4.99553 11.0571Z" fill="#2979FF"/>
<path fill-rule="evenodd" clip-rule="evenodd" d="M5 0.00134237C5.55228 0.00134235 6 0.449057 6 1.00134L6 11.0013C6 11.5536 5.55228 12.0013 5 12.0013V12.0013C4.44772 12.0013 4 11.5536 4 11.0013L4 1.00134C4 0.449058 4.44771 0.0013424 5 0.00134237V0.00134237Z" fill="#2979FF"/>
</svg>
