<svg width="10" height="13" viewBox="0 0 10 13" fill="none" xmlns="http://www.w3.org/2000/svg">
<path fill-rule="evenodd" clip-rule="evenodd" d="M5.00448 1.94428L8.47651 5.06912C8.8255 5.38321 9.38926 5.38321 9.73826 5.06912C10.0872 4.75502 10.0872 4.24764 9.73826 3.93355L5.63087 0.236901C5.28188 -0.0771927 4.71812 -0.0771928 4.36913 0.236901L0.261745 3.93354C-0.0872482 4.24764 -0.0872483 4.75502 0.261745 5.06912C0.610738 5.37516 1.18345 5.38321 1.53244 5.06912L5.00448 1.94428Z" fill="#2979FF"/>
<path fill-rule="evenodd" clip-rule="evenodd" d="M5 13C4.44772 13 4 12.5523 4 12L4 2C4 1.44772 4.44772 1 5 1V1C5.55228 1 6 1.44772 6 2L6 12C6 12.5523 5.55228 13 5 13V13Z" fill="#2979FF"/>
</svg>
