<svg width="16" height="16" viewBox="0 0 16 16" fill="none" xmlns="http://www.w3.org/2000/svg">
<path d="M7.123 11.7517C6.91406 11.7517 6.70364 11.832 6.54444 11.9916L4.69818 13.8378C4.34699 14.1886 3.88893 14.3633 3.42939 14.3633C2.97059 14.3629 2.51326 14.1882 2.16281 13.8378L2.1617 13.8367L2.16281 13.8378C1.81235 13.4869 1.63768 13.0289 1.63768 12.5694C1.63804 12.1106 1.81272 11.6533 2.16281 11.3028L5.85569 7.60966C6.20614 7.25921 6.66384 7.0849 7.123 7.08454C7.58217 7.0849 8.03987 7.25921 8.39032 7.60966C8.54989 7.76922 8.76031 7.84955 8.96926 7.84955C9.17821 7.84992 9.38863 7.76922 9.54819 7.60966C9.70776 7.45009 9.7881 7.23968 9.7881 7.03073C9.78846 6.82179 9.70776 6.61137 9.54819 6.45181C8.87897 5.78224 8.00007 5.4469 7.123 5.44727C6.24594 5.4469 5.36704 5.78261 4.69782 6.45181L1.00457 10.1453C0.335348 10.8145 -0.000368211 11.6931 3.03055e-07 12.5705C-0.000368211 13.4475 0.335348 14.3264 1.00457 14.9956C1.67379 15.6656 2.5527 16.0009 3.42976 16.0009C4.30719 16.0013 5.1861 15.6656 5.85569 14.9956L7.70194 13.1494C7.86151 12.9898 7.94184 12.7794 7.94184 12.5705C7.94221 12.3615 7.86151 12.1511 7.70194 11.9916C7.54274 11.8316 7.33195 11.7517 7.123 11.7517Z" fill="#536DFE"/>
<path d="M14.9962 1.00455L14.879 1.12173L14.9962 1.00455C14.3269 0.33534 13.448 -0.000368202 12.5706 3.03048e-07C11.6932 -0.000368202 10.8143 0.33534 10.145 1.00455L7.92991 3.21963C7.77034 3.37919 7.69001 3.58961 7.69001 3.79855C7.68964 4.0075 7.77034 4.21791 7.92991 4.37748C8.08948 4.53704 8.2999 4.61737 8.50884 4.61737C8.71779 4.61774 8.92821 4.53704 9.08778 4.37748L11.3029 2.16239C11.6534 1.81194 12.1111 1.63764 12.5706 1.63727C13.0301 1.63764 13.4878 1.81194 13.8383 2.16239C14.1887 2.51284 14.3631 2.97052 14.3634 3.42968C14.3631 3.88884 14.1887 4.34652 13.8383 4.69697L9.77616 8.75937C9.42571 9.10982 8.96801 9.28412 8.50884 9.28449C8.04968 9.28412 7.59198 9.10982 7.24152 8.75937C7.08196 8.59981 6.87154 8.51948 6.66259 8.51948C6.45364 8.51911 6.24322 8.59981 6.08365 8.75937C5.92409 8.91894 5.84375 9.12935 5.84375 9.33829C5.84338 9.54724 5.92409 9.75765 6.08365 9.91722C6.75288 10.5868 7.63178 10.9221 8.50884 10.9218C9.38591 10.9221 10.2648 10.5864 10.934 9.91722L14.9962 5.85518C15.6658 5.18598 16.0011 4.30709 16.0007 3.43005C16.0011 2.55264 15.6658 1.67375 14.9962 1.00455Z" fill="#536DFE"/>
</svg>
