<svg width="90" height="90" viewBox="0 0 90 90" fill="none" xmlns="http://www.w3.org/2000/svg">
<path d="M60.0279 60.0066L68.5674 47.0666L60.0279 44.8664C58.9092 41.5104 57.0071 38.3404 54.3223 35.6555C51.6745 33.0078 48.5423 31.0686 45.1115 29.9499L44.9995 30.0619L34.5955 29.6516L29.9712 29.9499C26.5406 31.0686 23.4082 33.0078 20.7604 35.6555L6.93607 49.4799C-2.31202 58.728 -2.31202 73.7585 6.93607 83.0066C16.4452 92.5157 31.4736 92.0311 40.498 83.0066L54.3223 69.2174C57.0075 66.5322 58.9094 63.3627 60.0279 60.0066ZM31.1753 73.6836C26.9986 77.8603 20.3238 77.7485 16.2589 73.6836C12.1569 69.5816 12.1569 62.8691 16.2589 58.7672L29.9712 45.0899L37.4668 52.5108L44.9997 59.8944L31.1753 73.6836Z" fill="#5D97C8"/>
<path d="M54.3227 69.2174L40.4984 83.0066C31.4739 92.0311 16.4457 92.5157 6.93652 83.0066L16.2592 73.6838C20.324 77.7487 26.9989 77.8605 31.1756 73.6838L44.9999 59.8948L37.4673 52.511L54.3227 35.6555C57.0076 38.3404 58.9097 41.5102 60.0284 44.8663L68.5679 47.0666L60.0284 60.0066C58.9097 63.3629 57.0078 66.5324 54.3227 69.2174Z" fill="#7BB3E1"/>
<path d="M72.9679 76.6755L69.2388 72.9464C68.2082 71.9158 68.2082 70.2478 69.2388 69.2172C70.2694 68.1868 71.9373 68.1866 72.9679 69.2172L76.6971 72.9464C77.7277 73.977 77.7277 75.6449 76.6971 76.6755C75.6663 77.7061 73.9985 77.7061 72.9679 76.6755Z" fill="#B2CCE0"/>
<path d="M17.0316 20.7393L13.3022 17.0102C12.2716 15.9796 12.2716 14.3116 13.3022 13.2812C14.3328 12.2508 16.0008 12.2506 17.0312 13.2812L20.7602 17.0102C21.7908 18.0408 21.7908 19.7087 20.7602 20.7391C19.7296 21.7696 18.062 21.7697 17.0316 20.7393Z" fill="#B2CCE0"/>
<path d="M78.1096 53.8495C78.4864 52.4419 79.9322 51.608 81.3397 51.9848L86.4345 53.3505C87.8421 53.7201 88.6723 55.1731 88.2991 56.5806C87.9223 57.9882 86.4765 58.8221 85.069 58.4453L79.9742 57.0796C78.5759 56.7054 77.7324 55.2654 78.1096 53.8495Z" fill="#B2CCE0"/>
<path d="M1.69948 33.3759C2.07635 31.9682 3.52214 31.1343 4.9296 31.5112L10.0244 32.877C11.4266 33.2447 12.264 34.6979 11.8891 36.1071C11.5122 37.5148 10.0664 38.3487 8.65893 37.9718L3.56415 36.606C2.16582 36.2317 1.32208 34.7918 1.69948 33.3759Z" fill="#B2CCE0"/>
<path d="M53.3714 86.4134L52.0056 81.3186C51.6287 79.9109 52.4626 78.4653 53.8702 78.0885C55.2779 77.7116 56.7217 78.54 57.1004 79.9531L58.466 85.0479C58.8429 86.4556 58.009 87.9012 56.6013 88.278C55.1858 88.6553 53.7456 87.8117 53.3714 86.4134Z" fill="#B2CCE0"/>
<path d="M32.8987 10.0037L31.5329 4.90887C31.1561 3.50123 31.99 2.05562 33.3976 1.67875C34.8052 1.30557 36.2526 2.13033 36.6277 3.54342L37.9935 8.63821C38.3704 10.0458 37.5365 11.4915 36.1289 11.8683C34.7131 12.2452 33.2731 11.4016 32.8987 10.0037Z" fill="#B2CCE0"/>
<path d="M83.0627 6.95012C73.8146 -2.29798 58.7861 -2.33542 49.5008 6.95012L35.6764 20.7393C32.9916 23.4241 31.0897 26.5938 29.9708 29.9501C28.3299 34.8726 28.3301 40.1678 29.971 45.0903C31.0897 48.4463 32.9916 51.6165 35.6764 54.3013C38.2869 56.9118 41.4193 58.8507 44.8874 60.0068L44.9992 59.895C49.1014 55.7928 49.1012 49.0805 44.9992 44.9785C40.8973 40.8766 40.8973 34.1641 44.9992 30.0621L58.8236 16.2729C60.8375 14.259 63.4478 13.2151 66.2821 13.2151C66.3564 13.1407 66.9903 13.1778 67.1397 13.2523C69.1534 13.2522 71.8008 14.3336 73.74 16.2729C77.842 20.3749 77.8422 27.0872 73.74 31.1894L60.0278 44.8664C61.6687 49.7889 61.6687 55.0843 60.0278 60.0068C63.4211 58.8509 66.6283 56.9117 69.2387 54.3012L83.063 40.512C92.3111 31.2637 92.3108 16.1982 83.0627 6.95012Z" fill="#B2CCE0"/>
<path d="M45.0005 59.8945L44.8887 60.0063C41.4208 58.8503 38.2881 56.9113 35.6777 54.3008L45.0005 44.978C49.1025 49.0802 49.1027 55.7925 45.0005 59.8945Z" fill="#FEFFFF"/>
<path d="M83.0635 40.5121L69.2392 54.3012C66.6288 56.9117 63.4217 58.8509 60.0283 60.0069C61.6692 55.0843 61.6692 49.789 60.0283 44.8665L73.7405 31.1894C77.8427 27.0873 77.8425 20.375 73.7405 16.273L83.0633 6.9502C92.3116 16.1981 92.3119 31.2636 83.0635 40.5121Z" fill="#EFEFEF"/>
</svg>
