<svg width="20" height="20" viewBox="0 0 20 20" fill="none" xmlns="http://www.w3.org/2000/svg">
<path d="M17.6562 7.26562H17.2629C17.1594 7.26562 17.0656 7.20039 17.025 7.10195L17.018 7.08516C16.9758 6.98398 16.9961 6.87109 17.0691 6.79805L17.3473 6.51992C18.2609 5.60625 18.2609 4.11914 17.3473 3.20547L16.7949 2.65312C16.3523 2.21055 15.7637 1.9668 15.1375 1.9668C14.5113 1.9668 13.9227 2.21055 13.4801 2.65312L13.202 2.93125C13.1285 3.00469 13.0156 3.02461 12.9148 2.98281L12.9 2.97656C12.7992 2.93477 12.734 2.84102 12.734 2.7375V2.34375C12.734 1.05156 11.6824 0 10.3902 0H9.60898C8.3168 0 7.26523 1.05156 7.26523 2.34375V2.73711C7.26523 2.84063 7.2 2.93437 7.1 2.97578L7.08477 2.98203C6.98359 3.02422 6.8707 3.00391 6.79766 2.93086L6.51953 2.65273C6.07695 2.21016 5.48828 1.96641 4.86211 1.96641C4.23594 1.96641 3.64766 2.21016 3.20469 2.65273L2.65273 3.20508C1.73906 4.11914 1.73906 5.60586 2.65273 6.51953L2.93086 6.79766C3.00391 6.87109 3.02422 6.98359 2.98086 7.08789L2.97617 7.09922C2.93438 7.2 2.84063 7.26523 2.73711 7.26523H2.34375C1.05156 7.26523 0 8.3168 0 9.60898V10.3902C0 11.6824 1.05156 12.734 2.34375 12.734H2.73711C2.84063 12.734 2.93438 12.7992 2.975 12.8977L2.98203 12.9145C3.02422 13.0156 3.00391 13.1285 2.93086 13.202L2.65273 13.4801C2.21016 13.9227 1.96641 14.5113 1.96641 15.1375C1.96641 15.7637 2.21016 16.352 2.65273 16.7949L3.20508 17.3473C3.64766 17.7898 4.23633 18.0336 4.8625 18.0336C5.48867 18.0336 6.07734 17.7898 6.51992 17.3473L6.79805 17.0691C6.87109 16.9957 6.98398 16.9758 7.08516 17.0176L7.1 17.0238C7.20078 17.0656 7.26602 17.1594 7.26602 17.2629V17.6562C7.26602 18.9484 8.31758 20 9.60977 20H10.391C11.6832 20 12.7348 18.9484 12.7348 17.6562V17.2629C12.7348 17.1594 12.8 17.0656 12.9 17.0242L12.9152 17.018C13.0164 16.9758 13.1293 16.9961 13.2023 17.0691L13.4805 17.3473C13.923 17.7898 14.5117 18.0336 15.1379 18.0336C15.7641 18.0336 16.3523 17.7898 16.7953 17.3473L17.3477 16.7949C17.7902 16.3523 18.034 15.7637 18.034 15.1375C18.034 14.5113 17.7902 13.923 17.3477 13.4801L17.0695 13.202C16.9961 13.1289 16.9762 13.016 17.0184 12.9145L17.0242 12.9C17.066 12.7992 17.1598 12.734 17.2633 12.734H17.6562C18.9484 12.734 20 11.6824 20 10.3902V9.60898C20 8.31719 18.9484 7.26562 17.6562 7.26562ZM18.4375 10.3906C18.4375 10.8215 18.0871 11.1719 17.6562 11.1719H17.2629C16.5246 11.1719 15.8637 11.6164 15.5797 12.3039L15.5746 12.316C15.2895 13.0035 15.4426 13.7848 15.9645 14.3066L16.2426 14.5848C16.3902 14.7324 16.4715 14.9285 16.4715 15.1371C16.4715 15.3457 16.3902 15.5418 16.2426 15.6895L15.6902 16.2418C15.5426 16.3895 15.3465 16.4707 15.1379 16.4707C14.9293 16.4707 14.7332 16.3895 14.5855 16.2418L14.3074 15.9637C13.7852 15.4418 13.0035 15.2887 12.3156 15.5746L12.3047 15.5793C11.6168 15.8633 11.1727 16.5238 11.1727 17.2625V17.6562C11.1727 18.0871 10.8223 18.4375 10.3914 18.4375H9.61016C9.1793 18.4375 8.82891 18.0871 8.82891 17.6562V17.2629C8.82891 16.5246 8.38437 15.8637 7.6957 15.5793L7.68516 15.575C7.45508 15.4793 7.21445 15.4328 6.97656 15.4328C6.50352 15.4328 6.04102 15.6168 5.69336 15.9641L5.41523 16.2422C5.26758 16.3898 5.07148 16.4711 4.86289 16.4711C4.6543 16.4711 4.4582 16.3898 4.31055 16.2422L3.7582 15.6898C3.61055 15.5422 3.5293 15.3461 3.5293 15.1375C3.5293 14.9289 3.61055 14.7328 3.7582 14.5852L4.03633 14.307C4.5582 13.7852 4.71133 13.0039 4.42617 12.3164L4.42109 12.3043C4.13633 11.6164 3.47578 11.1719 2.73711 11.1719H2.34375C1.91289 11.1719 1.5625 10.8215 1.5625 10.3906V9.60938C1.5625 9.17852 1.91289 8.82812 2.34375 8.82812H2.73711C3.47539 8.82812 4.13633 8.38359 4.42148 7.69336L4.425 7.68437C4.71055 6.99687 4.55781 6.21484 4.03555 5.69297L3.75742 5.41484C3.45273 5.11016 3.45273 4.61445 3.75742 4.30977L4.30977 3.75742C4.45742 3.60977 4.65352 3.52852 4.86211 3.52852C5.0707 3.52852 5.2668 3.60977 5.41445 3.75742L5.69258 4.03555C6.21484 4.55781 6.99648 4.71055 7.68437 4.42461L7.69531 4.41992C8.38359 4.13633 8.82812 3.47578 8.82812 2.73711V2.34375C8.82812 1.91289 9.17852 1.5625 9.60938 1.5625H10.3906C10.8215 1.5625 11.1719 1.91289 11.1719 2.34375V2.73711C11.1719 3.47539 11.6164 4.13633 12.3051 4.4207L12.3156 4.425C13.0031 4.71055 13.7848 4.55781 14.307 4.03555L14.5852 3.75742C14.7328 3.60977 14.9289 3.52852 15.1375 3.52852C15.3461 3.52852 15.5422 3.60977 15.6898 3.75742L16.2422 4.30977C16.5469 4.61445 16.5469 5.11016 16.2422 5.41445L15.9641 5.69258C15.4418 6.21484 15.2891 6.99648 15.5734 7.68125L15.5793 7.6957C15.8633 8.38359 16.5238 8.82773 17.2625 8.82773H17.6562C18.0871 8.82773 18.4375 9.17813 18.4375 9.60898V10.3906Z" fill="#536DFE"/>
<path d="M13.6984 8.36348C13.3785 7.60801 12.8469 6.96777 12.1762 6.51426C11.841 6.2877 11.4703 6.10801 11.075 5.98496C10.6797 5.86191 10.2586 5.7959 9.825 5.7959C9.24687 5.7959 8.69179 5.91348 8.18828 6.12676C7.43281 6.44668 6.79258 6.97832 6.33945 7.64902C6.11289 7.98418 5.9332 8.35488 5.81016 8.7502C5.68711 9.14551 5.62109 9.5666 5.62109 10.0002C5.62109 10.5783 5.73867 11.1334 5.95195 11.6369C6.27187 12.3924 6.80351 13.0326 7.47422 13.4857C7.80937 13.7123 8.18008 13.892 8.57539 14.015C8.9707 14.1381 9.39179 14.2041 9.82539 14.2041C10.4035 14.2041 10.9586 14.0865 11.4621 13.8732C12.2176 13.5533 12.8578 13.0217 13.3109 12.351C13.5375 12.0158 13.7172 11.6451 13.8402 11.2498C13.9633 10.8545 14.0293 10.4334 14.0293 9.9998C14.0293 9.42207 13.9113 8.86699 13.6984 8.36348ZM12.2234 11.0131C12.0266 11.4791 11.6953 11.8783 11.2797 12.1588C11.0719 12.299 10.8434 12.41 10.5992 12.4857C10.3555 12.5615 10.0961 12.6025 9.825 12.6025C9.46328 12.6025 9.12304 12.5299 8.81211 12.3982C8.34609 12.2014 7.94687 11.8701 7.6664 11.4545C7.52617 11.2467 7.41523 11.0182 7.33945 10.774C7.26367 10.5303 7.22265 10.2709 7.22265 9.9998C7.22265 9.63809 7.29531 9.29785 7.42695 8.98691C7.62383 8.5209 7.95508 8.12168 8.3707 7.84121C8.57851 7.70098 8.80703 7.59004 9.05117 7.51426C9.29492 7.43848 9.55429 7.39746 9.82539 7.39746C10.1871 7.39746 10.5273 7.47012 10.8383 7.60176C11.3043 7.79863 11.7035 8.12988 11.984 8.54551C12.1242 8.75332 12.2351 8.98184 12.3109 9.22598C12.3867 9.46973 12.4277 9.7291 12.4277 10.0002C12.4273 10.3619 12.3547 10.7021 12.2234 11.0131Z" fill="#536DFE"/>
</svg>
