<svg width="16" height="18" viewBox="0 0 16 18" fill="none" xmlns="http://www.w3.org/2000/svg">
<path d="M15.6359 15.7458H14.4627V3.2567C14.4619 2.69111 14.0096 2.23289 13.4513 2.23207H8.3641V0.368049C8.36369 0.164352 8.20106 0 8 0H3.26675C3.06569 0 2.90306 0.164762 2.90265 0.368049V2.23207H2.54867C1.99039 2.23289 1.5381 2.69111 1.53729 3.2567V15.7462H0.364096C0.163034 15.7466 0.000404551 15.9114 0 16.1151V17.6311C0 17.8348 0.163034 18 0.364096 18H15.6359C15.837 18 16 17.8348 16 17.6311V16.1151C16 15.911 15.837 15.7458 15.6359 15.7458ZM3.63085 0.737328H7.6359V2.23166H3.63085V0.737328ZM9.45638 12.794V15.745H6.54362L6.54321 12.794H9.45638ZM10.4475 11.5038V12.0563H5.55247V11.5038H10.4475ZM2.26549 3.2567C2.26549 3.0985 2.39252 2.96981 2.54867 2.96981H13.4513C13.6075 2.96981 13.7345 3.0985 13.7345 3.2567V15.7458H10.1846V12.7948H10.8112C11.0123 12.7948 11.1753 12.6297 11.1753 12.426V11.1357C11.1753 10.9321 11.0123 10.7669 10.8112 10.7669H5.18837C4.98731 10.7669 4.82427 10.9321 4.82427 11.1357V12.426C4.82427 12.6297 4.98731 12.7948 5.18837 12.7948H5.81542V15.7458H2.26549V3.2567ZM15.2718 17.2618H0.728192V16.4835H15.2718V17.2618Z" fill="#9E9E9E"/>
<path d="M3.51937 6.45161H6.80635H6.80716C7.00782 6.4512 7.17004 6.28644 7.17044 6.08315V6.08274V4.50234C7.17044 4.29864 7.00741 4.13347 6.80635 4.13347H3.51937C3.31831 4.13347 3.15527 4.29864 3.15527 4.50234V6.08274C3.15527 6.28644 3.31831 6.45161 3.51937 6.45161ZM3.88347 4.87121H6.44225V5.71387H3.88347V4.87121Z" fill="#9E9E9E"/>
<path d="M7.17044 9.49396V7.91356V7.91315C7.17004 7.70986 7.00741 7.5451 6.80675 7.54469H6.80635H3.51937C3.31831 7.54469 3.15527 7.70986 3.15527 7.91356V9.49396C3.15527 9.69766 3.31831 9.86242 3.51937 9.86283H6.80635C7.00741 9.86242 7.17044 9.69766 7.17044 9.49396ZM6.44225 9.12509H3.88347V8.28243H6.44225V9.12509Z" fill="#9E9E9E"/>
<path d="M9.19279 6.45161H12.4802H12.481C12.6816 6.4512 12.8439 6.28644 12.8443 6.08315V6.08274V4.50234C12.8443 4.29864 12.6812 4.13347 12.4802 4.13347H9.1932C8.99214 4.13347 8.8291 4.29864 8.8291 4.50234V6.08274C8.8291 6.28644 8.99214 6.45161 9.19279 6.45161ZM9.55729 4.87121H12.1161V5.71387H9.55729V4.87121Z" fill="#9E9E9E"/>
<path d="M12.8443 7.91233C12.8439 7.70904 12.6812 7.54469 12.4806 7.54469H12.4802H9.1936H9.1932C8.99214 7.54469 8.82951 7.70945 8.8291 7.91315V7.91356V9.49396C8.8291 9.69766 8.99214 9.86283 9.1932 9.86283H12.4802C12.6812 9.86283 12.8443 9.69766 12.8443 9.49396V7.91356V7.91233ZM9.55729 8.28243H12.1161V9.12509H9.55729V8.28243Z" fill="#9E9E9E"/>
</svg>
