<svg width="90" height="90" viewBox="0 0 90 90" fill="none" xmlns="http://www.w3.org/2000/svg">
<path d="M60.0279 60.0063L68.5674 47.0663L60.0279 44.8661C58.9092 41.5101 57.0071 38.3401 54.3223 35.6553C51.6745 33.0075 48.5423 31.0683 45.1115 29.9497L44.9995 30.0616L34.5955 29.6514L29.9712 29.9497C26.5406 31.0683 23.4082 33.0075 20.7604 35.6553L6.93607 49.4796C-2.31202 58.7277 -2.31202 73.7582 6.93607 83.0063C16.4452 92.5155 31.4736 92.0308 40.498 83.0063L54.3223 69.2172C57.0075 66.532 58.9094 63.3625 60.0279 60.0063ZM31.1753 73.6834C26.9986 77.8601 20.3238 77.7483 16.2589 73.6834C12.1569 69.5814 12.1569 62.8689 16.2589 58.7669L29.9712 45.0897L37.4668 52.5106L44.9997 59.8942L31.1753 73.6834Z" fill="#D2E8FB"/>
<path d="M54.3218 69.2176L40.4974 83.0068C31.4729 92.0313 16.4447 92.516 6.93555 83.0068L16.2582 73.684C20.3231 77.7489 26.9979 77.8607 31.1746 73.684L44.999 59.895L37.4663 52.5112L54.3218 35.6558C57.0066 38.3406 58.9087 41.5104 60.0274 44.8666L68.5669 47.0668L60.0274 60.0068C58.9087 63.3631 57.0068 66.5326 54.3218 69.2176Z" fill="#9ECFF8"/>
<path d="M72.9689 76.6755L69.2397 72.9464C68.2091 71.9158 68.2091 70.2478 69.2397 69.2172C70.2703 68.1868 71.9383 68.1866 72.9689 69.2172L76.6981 72.9464C77.7287 73.977 77.7287 75.6449 76.6981 76.6755C75.6673 77.7061 73.9995 77.7061 72.9689 76.6755Z" fill="#D2E8FB"/>
<path d="M17.0316 20.7393L13.3022 17.0102C12.2716 15.9796 12.2716 14.3116 13.3022 13.2812C14.3328 12.2508 16.0008 12.2506 17.0312 13.2812L20.7602 17.0102C21.7908 18.0408 21.7908 19.7087 20.7602 20.7391C19.7296 21.7696 18.062 21.7697 17.0316 20.7393Z" fill="#D2E8FB"/>
<path d="M78.1096 53.8497C78.4864 52.4421 79.9322 51.6082 81.3397 51.9851L86.4345 53.3507C87.8421 53.7204 88.6723 55.1734 88.2991 56.5808C87.9223 57.9885 86.4765 58.8224 85.069 58.4455L79.9742 57.0799C78.5759 56.7056 77.7324 55.2656 78.1096 53.8497Z" fill="#D2E8FB"/>
<path d="M1.69948 33.3761C2.07635 31.9685 3.52214 31.1346 4.9296 31.5114L10.0244 32.8772C11.4266 33.245 12.264 34.6981 11.8891 36.1074C11.5122 37.515 10.0664 38.3489 8.65893 37.972L3.56415 36.6062C2.16582 36.232 1.32208 34.792 1.69948 33.3761Z" fill="#D2E8FB"/>
<path d="M53.3724 86.4134L52.0066 81.3186C51.6297 79.9109 52.4636 78.4653 53.8712 78.0885C55.2789 77.7116 56.7227 78.54 57.1013 79.9531L58.467 85.0479C58.8438 86.4556 58.0099 87.9012 56.6023 88.278C55.1868 88.6553 53.7466 87.8117 53.3724 86.4134Z" fill="#D2E8FB"/>
<path d="M32.8978 10.0034L31.5319 4.90863C31.1551 3.50099 31.989 2.05538 33.3966 1.67851C34.8043 1.30533 36.2516 2.13009 36.6267 3.54318L37.9925 8.63796C38.3694 10.0456 37.5355 11.4912 36.1279 11.8681C34.7121 12.245 33.2722 11.4014 32.8978 10.0034Z" fill="#D2E8FB"/>
<path d="M83.0627 6.95012C73.8146 -2.29798 58.7861 -2.33542 49.5008 6.95012L35.6764 20.7393C32.9916 23.4241 31.0897 26.5938 29.9708 29.9501C28.3299 34.8727 28.3301 40.1678 29.971 45.0903C31.0897 48.4463 32.9916 51.6165 35.6764 54.3013C38.2869 56.9118 41.4193 58.8507 44.8874 60.0068L44.9992 59.895C49.1014 55.7928 49.1012 49.0805 44.9992 44.9785C40.8973 40.8766 40.8973 34.1641 44.9992 30.0621L58.8236 16.2729C60.8375 14.259 63.4478 13.2151 66.2821 13.2151C66.3564 13.1407 66.9903 13.1778 67.1397 13.2523C69.1534 13.2522 71.8008 14.3336 73.74 16.2729C77.842 20.3749 77.8422 27.0872 73.74 31.1894L60.0278 44.8664C61.6687 49.7889 61.6687 55.0843 60.0278 60.0068C63.4211 58.8509 66.6283 56.9117 69.2387 54.3012L83.063 40.512C92.3111 31.2637 92.3108 16.1982 83.0627 6.95012Z" fill="#EAF4FC"/>
<path d="M45.0005 59.8945L44.8887 60.0063C41.4208 58.8503 38.2881 56.9113 35.6777 54.3008L45.0005 44.978C49.1025 49.0802 49.1027 55.7925 45.0005 59.8945Z" fill="#E3F2FD"/>
<path d="M83.0625 40.5121L69.2382 54.3013C66.6279 56.9117 63.4208 58.8509 60.0273 60.0069C61.6682 55.0843 61.6682 49.789 60.0273 44.8665L73.7395 31.1894C77.8417 27.0873 77.8415 20.375 73.7395 16.273L83.0623 6.9502C92.3106 16.1981 92.311 31.2636 83.0625 40.5121Z" fill="#E3F2FD"/>
</svg>
