<svg width="17" height="13" viewBox="0 0 17 13" fill="none" xmlns="http://www.w3.org/2000/svg">
<path d="M17 4.47264V1.93287V1.92826C16.9985 1.39818 16.7817 0.914195 16.4328 0.566955C16.0838 0.216641 15.5981 0 15.0662 0H1.93381C1.4004 0 0.916177 0.216641 0.56723 0.566955C0.216747 0.915732 0 1.39972 0 1.93287V4.45728C0 4.71079 0.102993 4.9428 0.270549 5.11027C0.436568 5.27621 0.670223 5.38069 0.923863 5.38069C1.22669 5.38069 1.49878 5.50207 1.70015 5.70181C1.89999 5.90155 2.02143 6.17351 2.02143 6.47619C2.02143 6.77887 1.89999 7.05083 1.70015 7.25057C1.50032 7.45031 1.22823 7.57169 0.9254 7.57169C0.671761 7.57169 0.439642 7.67463 0.273623 7.84211C0.102993 8.00958 0 8.24159 0 8.4951V11.0195C0 11.5511 0.216747 12.0366 0.56723 12.3854C0.916177 12.7342 1.40194 12.9524 1.93381 12.9524H15.0662C15.5981 12.9524 16.0838 12.7357 16.4328 12.3854C16.7817 12.0366 17 11.5511 17 11.0195V8.4951V8.49049C16.9985 8.23851 16.8955 8.00804 16.7295 7.84211C16.5634 7.67617 16.3313 7.57169 16.0777 7.57169C15.7748 7.57169 15.5028 7.45031 15.3014 7.24903C15.1015 7.04929 14.9801 6.77734 14.9801 6.47465C14.9801 6.17197 15.1015 5.90002 15.3014 5.69874C15.5028 5.499 15.7733 5.37762 16.0777 5.37762C16.3313 5.37762 16.5634 5.27468 16.731 5.1072C16.8909 4.94741 16.9923 4.7277 17 4.48493V4.47264ZM13.8072 4.60324C13.386 5.11181 13.1324 5.76635 13.1324 6.47619C13.1324 7.18604 13.386 7.84057 13.8072 8.34914C14.1562 8.77167 14.6204 9.09432 15.1538 9.26948V11.0195C15.1538 11.0456 15.1446 11.0641 15.1277 11.081C15.1092 11.0979 15.0923 11.1056 15.0662 11.1071H1.93381C1.90768 11.1071 1.89077 11.0979 1.87232 11.081C1.85541 11.0625 1.84773 11.0441 1.84619 11.0195V9.26948C2.37806 9.09279 2.84384 8.77013 3.19278 8.34914C3.61091 7.84518 3.86301 7.19526 3.86608 6.49156V6.48387V6.47773C3.86608 5.76788 3.61244 5.11335 3.19125 4.60632C2.8423 4.18379 2.37806 3.86113 1.84465 3.68597V1.93287C1.84465 1.90675 1.85387 1.88985 1.87078 1.87141C1.88923 1.85451 1.90614 1.84683 1.93227 1.84529H15.0647C15.0908 1.84529 15.1077 1.85451 15.1261 1.87141C15.1431 1.88985 15.1523 1.90829 15.1523 1.93287V3.6829C14.6219 3.85959 14.1562 4.18225 13.8072 4.60324Z" fill="#9E9E9E"/>
<path d="M9.24619 2.36719L6.36853 10.0372L6.67597 10.1509L6.75591 9.9358L6.67597 10.1509L7.8089 10.5765L10.685 2.90649L9.24619 2.36719Z" fill="#9E9E9E"/>
<path d="M7.68755 4.96123V4.95816V4.95508C7.68755 4.54331 7.51999 4.16688 7.24791 3.89646C6.9789 3.62604 6.60382 3.45857 6.19338 3.45703H6.19031C5.77834 3.45703 5.40172 3.62451 5.13117 3.89646C4.86062 4.16688 4.69307 4.54024 4.69153 4.95201V4.95355V4.95662C4.69307 5.36839 4.86062 5.74175 5.13117 6.01063C5.40018 6.27951 5.77219 6.44699 6.18262 6.44852H6.1857H6.18877C6.60074 6.44852 6.97582 6.28105 7.24791 6.0091C7.51846 5.74329 7.68601 5.36993 7.68755 4.96123ZM6.37938 5.14407C6.33019 5.1917 6.26409 5.22243 6.19031 5.22243C6.11652 5.22243 6.05042 5.19323 6.00123 5.14407C5.95204 5.0949 5.92283 5.02883 5.92283 4.95508C5.92283 4.88133 5.95204 4.81526 6.00123 4.7661C6.05042 4.71693 6.11652 4.68774 6.19031 4.68774C6.26409 4.68774 6.33019 4.71693 6.37938 4.7661C6.42858 4.81526 6.45778 4.88133 6.45778 4.95508C6.45778 5.02883 6.42858 5.09336 6.37938 5.14407Z" fill="#9E9E9E"/>
<path d="M11.005 6.53906C11.0035 6.53906 11.0035 6.53906 11.0035 6.53906H10.9973C10.5869 6.5406 10.2149 6.70807 9.94587 6.97695C9.67532 7.24737 9.50776 7.62073 9.50623 8.0325V8.03404C9.50623 8.03404 9.50623 8.03404 9.50623 8.03558V8.03865C9.50776 8.45042 9.67532 8.82378 9.94587 9.09266C10.2164 9.36308 10.59 9.53056 11.0019 9.53209H11.0035H11.005C11.417 9.53209 11.7921 9.36462 12.0626 9.09266C12.3332 8.82225 12.5022 8.44735 12.5022 8.03404C12.5022 7.62227 12.3347 7.24584 12.0626 6.97542C11.7905 6.70807 11.417 6.5406 11.005 6.53906ZM11.0019 8.30446C10.9281 8.30446 10.862 8.27527 10.8129 8.2261C10.7637 8.17693 10.7345 8.11086 10.7345 8.03711C10.7345 7.96336 10.7637 7.8973 10.8129 7.84813C10.862 7.79896 10.9281 7.76977 11.0019 7.76977C11.0757 7.76977 11.1418 7.79896 11.191 7.84813C11.2402 7.8973 11.2694 7.96336 11.2694 8.03711C11.2694 8.1124 11.2402 8.17693 11.191 8.2261C11.1434 8.27527 11.0773 8.30446 11.0019 8.30446Z" fill="#9E9E9E"/>
</svg>
