<svg width="25" height="17" viewBox="0 0 25 17" fill="none" xmlns="http://www.w3.org/2000/svg">
<path d="M12.7086 16.5246C17.3214 16.5246 21.0607 12.8455 21.0607 8.30721C21.0607 3.76889 17.3214 0.0898438 12.7086 0.0898438C8.09592 0.0898438 4.35657 3.76889 4.35657 8.30721C4.35657 12.8455 8.09592 16.5246 12.7086 16.5246Z" fill="#CDD6E0"/>
<path d="M12.7085 14.3681C15.9821 14.3681 18.6358 11.6541 18.6358 8.30614C18.6358 4.95819 15.9821 2.24414 12.7085 2.24414C9.43498 2.24414 6.78125 4.95819 6.78125 8.30614C6.78125 11.6541 9.43498 14.3681 12.7085 14.3681Z" fill="#ACB3BA"/>
<path d="M4.00277 0.00444347C3.83025 0.00444347 3.72673 0.176967 3.72673 0.315004V3.45513C3.72673 3.62765 3.58869 3.76569 3.41617 3.76569C3.24365 3.76569 3.10561 3.62765 3.10561 3.45513V0.315004C3.10561 0.142481 3.00209 0.00444347 2.82957 0.00444347C2.65704 -0.0300741 2.48449 0.142481 2.48449 0.315004V3.45513C2.48449 3.62765 2.34645 3.76569 2.17393 3.76569C2.0014 3.76569 1.86337 3.62765 1.86337 3.45513V0.315004C1.86337 0.142481 1.75984 0.00444347 1.58732 0.00444347C1.4148 -0.0300741 1.24224 0.142481 1.24224 0.315004V3.45513C1.24224 3.62765 1.10421 3.76569 0.931683 3.76569C0.75916 3.76569 0.621122 3.62765 0.621122 3.45513V0.315004C0.621122 0.142481 0.517601 0.00444347 0.345078 0.00444347C0.172555 -0.0300741 0 0.142481 0 0.315004V3.80018C0 4.38678 0.241558 4.90438 0.621122 5.31846C1.24224 5.93959 1.58732 6.80227 1.51829 7.66491L0.828162 15.1184C0.828162 15.1874 0.828162 15.2909 0.828162 15.3599C0.897165 16.1191 1.62181 16.6712 2.38097 16.5332C3.07109 16.3951 3.51969 15.7395 3.45069 15.0494L2.79505 7.63043C2.72604 6.73326 3.07109 5.9051 3.69221 5.28398C4.07178 4.90442 4.31333 4.3523 4.31333 3.76569V0.315004C4.31333 0.142481 4.1753 0.00444347 4.00277 0.00444347Z" fill="#9E9E9E"/>
<path d="M2.82919 7.76758H1.51794L0.862305 15.1175C0.862305 15.1865 0.862305 15.29 0.862305 15.3591C0.931307 16.1182 1.65595 16.6703 2.41511 16.5323C3.10523 16.3943 3.55383 15.7387 3.48483 15.0485L2.82919 7.76758Z" fill="#40596B"/>
<path d="M24.0428 0.00390625C24.0428 0.00390625 22.559 0.59051 21.9379 5.04188C21.6964 6.87073 22.076 8.66509 22.7661 10.3559C22.8351 10.5285 22.8696 10.7355 22.8696 10.9425L22.4555 15.3939C22.4555 15.4629 22.4555 15.532 22.4555 15.601C22.5245 16.1876 23.0421 16.6362 23.6632 16.5672C24.2154 16.4982 24.5949 15.9115 24.5604 15.3594L24.0428 0.00390625Z" fill="#9E9E9E"/>
<path d="M22.8694 10.9082C22.8694 10.9427 22.8694 10.9427 22.8694 10.9772L22.4553 15.4286C22.4553 15.4976 22.4553 15.5666 22.4553 15.6356C22.5243 16.2222 23.0419 16.6708 23.663 16.6018C24.2152 16.5328 24.5947 15.9462 24.5602 15.3941L24.4222 10.9427H22.8694V10.9082H22.8694Z" fill="#FF7058"/>
</svg>
