<svg width="27" height="27" viewBox="0 0 27 27" fill="none" xmlns="http://www.w3.org/2000/svg">
<path d="M19.8519 9.78059L21.0336 7.81106L20.3101 7.37695L19.0445 9.48633C19.0052 9.5519 18.9844 9.62692 18.9844 9.70338V10.969H19.8281V9.84403L19.8519 9.78059Z" fill="#808080"/>
<path d="M17.2969 12.2344L17.9447 14.6097C18.3484 16.0901 18.3287 17.654 17.8878 19.1238L17.872 19.1759C17.708 19.7293 17.3697 20.2149 16.9074 20.5605C16.4452 20.9061 15.8836 21.0931 15.3065 21.0938H12.6563C12.4325 21.0938 12.2179 21.0049 12.0596 20.8466C11.9014 20.6884 11.8125 20.4738 11.8125 20.25V17.974C11.8126 17.5061 11.9281 17.0455 12.1489 16.633C12.3697 16.2205 12.6889 15.8689 13.0781 15.6094H5.48438C4.36549 15.6094 3.29244 16.0538 2.50127 16.845C1.7101 17.6362 1.26563 18.7092 1.26562 19.8281V22.7813L16.4541 22.7819C16.8492 22.7819 17.2394 22.6942 17.5964 22.525C17.9535 22.3558 18.2684 22.1094 18.5186 21.8036L18.5637 21.7486C19.4539 20.6614 20.0287 19.3509 20.2256 17.9598C20.4225 16.5686 20.234 15.15 19.6805 13.8586C19.2858 12.9376 18.9844 12.2344 18.9844 12.2344H17.2969Z" fill="#FB0200"/>
<path d="M20.25 10.5469L17.7188 10.9688H17.2969V12.2344L17.4119 12.6562H17.7188L19.2765 12.9159L20.25 13.0781L21.0938 11.8125L20.25 10.5469Z" fill="#E50000"/>
<path d="M21.0938 6.75H20.6719C20.2059 6.75 19.8281 7.12776 19.8281 7.59375C19.8281 8.05974 20.2059 8.4375 20.6719 8.4375H21.0938C21.5597 8.4375 21.9375 8.05974 21.9375 7.59375C21.9375 7.12776 21.5597 6.75 21.0938 6.75Z" fill="#B3B3B3"/>
<path d="M20.25 10.5469H21.5156V13.0781H20.25V10.5469Z" fill="#D6D6D6"/>
<path d="M7.17188 2.10938H8.01562V14.7656H7.17188V2.10938Z" fill="#875632"/>
<path d="M1.26562 6.32812H8.01562V14.7656H1.26562V6.32812Z" fill="#5EAE35"/>
<path d="M1.26562 7.59375H8.01562V8.4375H1.26562V7.59375Z" fill="#008C02"/>
<path d="M8.01562 3.79688L4.64062 2.53125L8.01562 1.26562V3.79688Z" fill="#5EAE35"/>
<path d="M1.97754 12.6567C1.73733 12.6567 1.49992 12.6447 1.26562 12.6221V14.7661H8.01562V9.46289C7.34619 10.4475 6.44595 11.2534 5.39345 11.8101C4.34096 12.3668 3.1682 12.6575 1.97754 12.6567Z" fill="#599B32"/>
<path d="M5.0625 19.8281C4.47843 19.8281 3.90747 20.0013 3.42183 20.3258C2.93619 20.6503 2.55768 21.1115 2.33417 21.6511C2.11065 22.1908 2.05217 22.7845 2.16612 23.3574C2.28007 23.9302 2.56132 24.4564 2.97433 24.8694C3.38733 25.2824 3.91352 25.5637 4.48637 25.6776C5.05922 25.7916 5.653 25.7331 6.19261 25.5096C6.73222 25.2861 7.19344 24.9076 7.51793 24.4219C7.84242 23.9363 8.01562 23.3653 8.01562 22.7812C8.01562 21.998 7.70449 21.2469 7.15067 20.6931C6.59685 20.1393 5.84572 19.8281 5.0625 19.8281ZM5.0625 24.0469C4.81218 24.0469 4.56749 23.9726 4.35936 23.8336C4.15123 23.6945 3.98901 23.4968 3.89321 23.2656C3.79742 23.0343 3.77236 22.7798 3.82119 22.5343C3.87003 22.2888 3.99057 22.0633 4.16757 21.8863C4.34457 21.7093 4.57008 21.5888 4.81559 21.5399C5.0611 21.4911 5.31557 21.5162 5.54683 21.612C5.7781 21.7078 5.97576 21.87 6.11483 22.0781C6.2539 22.2862 6.32812 22.5309 6.32812 22.7812C6.32812 23.1169 6.19478 23.4388 5.95743 23.6762C5.72008 23.9135 5.39816 24.0469 5.0625 24.0469Z" fill="#808080"/>
<path d="M3.79688 22.7812C3.7968 22.6375 3.82125 22.4949 3.86918 22.3594H2.13986C2.09921 22.6392 2.09921 22.9233 2.13986 23.2031H3.86918C3.82125 23.0676 3.7968 22.925 3.79688 22.7812Z" fill="#666666"/>
<path d="M6.32816 22.7812C6.32824 22.925 6.30379 23.0676 6.25586 23.2031H7.98518C8.02582 22.9233 8.02582 22.6392 7.98518 22.3594H6.25586C6.30379 22.4949 6.32824 22.6375 6.32816 22.7812Z" fill="#666666"/>
<path d="M11.8125 10.125L13.0781 8.85938L14.3438 10.125H17.2969C17.5207 10.125 17.7353 10.2139 17.8935 10.3721C18.0517 10.5304 18.1406 10.745 18.1406 10.9688C18.1406 11.1925 18.0517 11.4071 17.8935 11.5654C17.7353 11.7236 17.5207 11.8125 17.2969 11.8125H13.5L11.8125 10.125Z" fill="#EABB9B"/>
<path d="M10.125 6.32812H11.8125V8.4375H10.125V6.32812Z" fill="#EABB9B"/>
<path d="M22.7812 19.8281C22.1972 19.8281 21.6262 20.0013 21.1406 20.3258C20.6549 20.6503 20.2764 21.1115 20.0529 21.6511C19.8294 22.1908 19.7709 22.7845 19.8849 23.3574C19.9988 23.9302 20.2801 24.4564 20.6931 24.8694C21.1061 25.2824 21.6323 25.5637 22.2051 25.6776C22.778 25.7916 23.3717 25.7331 23.9114 25.5096C24.451 25.2861 24.9122 24.9076 25.2367 24.4219C25.5612 23.9363 25.7344 23.3653 25.7344 22.7812C25.7344 21.998 25.4232 21.2469 24.8694 20.6931C24.3156 20.1393 23.5645 19.8281 22.7812 19.8281ZM22.7812 24.0469C22.5309 24.0469 22.2862 23.9726 22.0781 23.8336C21.87 23.6945 21.7078 23.4968 21.612 23.2656C21.5162 23.0343 21.4911 22.7798 21.5399 22.5343C21.5888 22.2888 21.7093 22.0633 21.8863 21.8863C22.0633 21.7093 22.2888 21.5888 22.5343 21.5399C22.7798 21.4911 23.0343 21.5162 23.2656 21.612C23.4968 21.7078 23.6945 21.87 23.8336 22.0781C23.9726 22.2862 24.0469 22.5309 24.0469 22.7812C24.0469 23.1169 23.9135 23.4388 23.6762 23.6762C23.4388 23.9135 23.1169 24.0469 22.7812 24.0469Z" fill="#808080"/>
<path d="M22.7814 19.8281C22.0852 19.8282 21.4115 20.0743 20.8791 20.5228C20.3467 20.9714 19.9898 21.5936 19.8716 22.2796C20.3807 22.1845 20.8704 22.0048 21.3202 21.7479L22.1333 21.2833C22.8345 20.8826 23.6281 20.6719 24.4357 20.6719H24.8473C24.2962 20.1303 23.5541 19.8272 22.7814 19.8281Z" fill="#666666"/>
<path d="M4.64062 16.4531H13.0781V15.6094C13.0781 15.3856 12.9892 15.171 12.831 15.0128C12.6728 14.8545 12.4582 14.7656 12.2344 14.7656H5.72126C5.53309 14.7656 5.35033 14.8285 5.20202 14.9443C5.05371 15.0601 4.94836 15.2222 4.90271 15.4047L4.64062 16.4531Z" fill="#875632"/>
<path d="M2.10938 22.7812C2.10938 21.4386 2.64274 20.1509 3.59215 19.2015C4.54155 18.2521 5.82922 17.7188 7.17188 17.7188C8.06698 17.7188 8.92543 18.0743 9.55836 18.7073C10.1913 19.3402 10.5469 20.1986 10.5469 21.0938C10.5469 21.5413 10.3691 21.9705 10.0526 22.287C9.73615 22.6035 9.30693 22.7812 8.85938 22.7812H2.10938Z" fill="#E50000"/>
<path d="M4.64062 13.5C5.57261 13.5 6.32812 12.7445 6.32812 11.8125C6.32812 10.8805 5.57261 10.125 4.64062 10.125C3.70864 10.125 2.95312 10.8805 2.95312 11.8125C2.95312 12.7445 3.70864 13.5 4.64062 13.5Z" fill="#FFC933"/>
<path d="M4.64073 11.8125L5.77268 9.54856C5.42124 9.37277 5.03368 9.28125 4.64073 9.28125C4.24778 9.28125 3.86023 9.37277 3.50879 9.54856L4.64073 11.8125Z" fill="#FF8706"/>
<path d="M9.70312 3.79688V5.48438C9.70313 5.82004 9.83647 6.14196 10.0738 6.37931C10.3112 6.61666 10.6331 6.75 10.9688 6.75H11.3906C11.6144 6.75 11.829 6.66111 11.9872 6.50287C12.1455 6.34464 12.2344 6.13003 12.2344 5.90625V3.79688C12.2344 3.46121 12.101 3.13929 11.8637 2.90194C11.6263 2.66459 11.3044 2.53125 10.9688 2.53125C10.6331 2.53125 10.3112 2.66459 10.0738 2.90194C9.83647 3.13929 9.70313 3.46121 9.70312 3.79688Z" fill="#F9CDAF"/>
<path d="M13.0781 17.7188H14.7656V20.25H13.0781V17.7188Z" fill="#FFC933"/>
<path d="M13.0781 19.4062V21.0938H15.1875C15.4113 21.0938 15.6259 21.0049 15.7841 20.8466C15.9424 20.6884 16.0312 20.4738 16.0312 20.25C16.0312 20.0262 15.9424 19.8116 15.7841 19.6534C15.6259 19.4951 15.4113 19.4062 15.1875 19.4062H14.7656C14.6548 19.5171 14.5233 19.605 14.3785 19.6649C14.2337 19.7249 14.0786 19.7558 13.9219 19.7558C13.7652 19.7558 13.61 19.7249 13.4652 19.6649C13.3205 19.605 13.1889 19.5171 13.0781 19.4062Z" fill="#875632"/>
<path d="M12.4815 8.26274C12.3233 8.10452 12.1087 8.01563 11.8849 8.01562H10.5469C10.3231 8.01562 10.1085 8.10452 9.95025 8.26275C9.79202 8.42099 9.70312 8.6356 9.70312 8.85938V12.6562H12.2344V10.5469L13.5 9.28125L12.4815 8.26274Z" fill="#FFC933"/>
<path d="M17.2969 12.6562C17.7629 12.6562 18.1406 12.2785 18.1406 11.8125C18.1406 11.3465 17.7629 10.9688 17.2969 10.9688C16.8309 10.9688 16.4531 11.3465 16.4531 11.8125C16.4531 12.2785 16.8309 12.6562 17.2969 12.6562Z" fill="#4D4D4D"/>
<path d="M10.9688 2.53125C10.6331 2.53125 10.3112 2.66459 10.0738 2.90194C9.83647 3.13929 9.70313 3.46121 9.70312 3.79688V4.21875H12.2344V3.79688C12.2344 3.46121 12.101 3.13929 11.8637 2.90194C11.6263 2.66459 11.3044 2.53125 10.9688 2.53125Z" fill="#5EAE35"/>
<path d="M9.70312 3.79688V4.64062H13.0781C13.19 4.64062 13.2973 4.59618 13.3764 4.51706C13.4556 4.43794 13.5 4.33064 13.5 4.21875C13.5 4.10686 13.4556 3.99956 13.3764 3.92044C13.2973 3.84132 13.19 3.79688 13.0781 3.79688H9.70312Z" fill="#008C02"/>
<path d="M11.3884 9.70337L11.3884 9.70341C11.306 9.78577 11.306 9.91931 11.3884 10.0017L11.9337 10.547C12.0161 10.6294 12.1496 10.6294 12.232 10.547L12.232 10.547C12.3144 10.4646 12.3144 10.3311 12.232 10.2487L11.6867 9.70337C11.6043 9.621 11.4708 9.621 11.3884 9.70337Z" fill="#FFB600"/>
<path d="M9.70312 12.2344V13.5C9.70313 13.8357 9.83647 14.1576 10.0738 14.3949C10.3112 14.6323 10.6331 14.7656 10.9688 14.7656H12.2344C12.4582 14.7656 12.6728 14.8545 12.831 15.0128C12.9892 15.171 13.0781 15.3856 13.0781 15.6094V18.1406H14.7656V15.1875C14.7656 14.6281 14.5434 14.0915 14.1478 13.6959C13.7522 13.3004 13.2157 13.0781 12.6562 13.0781H12.2344V12.2344H9.70312Z" fill="#5EAE35"/>
<path d="M18.5625 21.9375C18.5625 20.9305 18.9625 19.9648 19.6746 19.2527C20.3866 18.5407 21.3524 18.1406 22.3594 18.1406C22.9821 18.1406 23.5905 18.3272 24.1061 18.6763C24.6217 19.0254 25.0209 19.521 25.2522 20.0991L25.3125 20.25H24.4355C23.6279 20.2501 22.8343 20.4609 22.1331 20.8617L21.32 21.3263C20.6188 21.7269 19.8252 21.9376 19.0176 21.9375H18.5625Z" fill="#E50000"/>
</svg>
