<svg width="15" height="12" viewBox="0 0 15 12" fill="none" xmlns="http://www.w3.org/2000/svg">
<path d="M12.6562 8.78906C12.3325 8.78906 12.0703 9.05125 12.0703 9.375C12.0703 9.69875 12.3325 9.96094 12.6562 9.96094C12.98 9.96094 13.2422 9.69875 13.2422 9.375C13.2422 9.05125 12.98 8.78906 12.6562 8.78906Z" fill="#979797"/>
<path d="M12.3633 6.44531C12.2016 6.44531 12.0703 6.57658 12.0703 6.73828C12.0703 6.89999 12.2016 7.03125 12.3633 7.03125C12.525 7.03125 12.6562 6.89999 12.6562 6.73828C12.6562 6.57658 12.525 6.44531 12.3633 6.44531Z" fill="#979797"/>
<path d="M3.69141 8.78906C3.36765 8.78906 3.10547 9.05125 3.10547 9.375C3.10547 9.69875 3.36765 9.96094 3.69141 9.96094C4.01516 9.96094 4.27734 9.69875 4.27734 9.375C4.27734 9.05125 4.01516 8.78906 3.69141 8.78906Z" fill="#979797"/>
<path d="M13.7686 5.29221L13.2635 3.27164C13.443 3.09986 13.5352 2.87201 13.5352 2.63672C13.5352 2.15206 13.1409 1.75781 12.6562 1.75781H10.3125V0.878906C10.3125 0.394249 9.91825 0 9.43359 0H0.878906C0.394249 0 0 0.394249 0 0.878906V8.49609C0 8.98075 0.394249 9.375 0.878906 9.375H1.93359C1.93359 10.3443 2.72209 11.1328 3.69141 11.1328C4.66072 11.1328 5.44922 10.3443 5.44922 9.375H10.8984C10.8984 10.3443 11.6869 11.1328 12.6562 11.1328C13.6256 11.1328 14.4141 10.3443 14.4141 9.375C14.4141 9.35829 14.4133 9.3417 14.4128 9.32499C14.7544 9.20448 15 8.87844 15 8.49609V6.73828C15 6.00998 14.4658 5.40436 13.7686 5.29221ZM12.7205 3.51562L13.1599 5.27344H10.7268L11.3985 4.60167C11.513 4.48723 11.513 4.30183 11.3985 4.18739C11.2841 4.07295 11.0987 4.07295 10.9843 4.18739L10.3125 4.85905V3.51562H12.7205ZM12.9492 2.63672C12.9492 2.79842 12.818 2.92969 12.6562 2.92969H10.3125V2.34375H12.6562C12.8178 2.34375 12.9492 2.47513 12.9492 2.63672ZM3.69141 10.5469C3.04527 10.5469 2.51953 10.0211 2.51953 9.375C2.51953 8.72005 3.05477 8.20312 3.69141 8.20312C4.32953 8.20312 4.86328 8.72143 4.86328 9.375C4.86328 10.0211 4.33754 10.5469 3.69141 10.5469ZM5.34863 8.78906C5.10395 8.09772 4.44168 7.61719 3.69141 7.61719C2.94079 7.61719 2.27829 8.09807 2.03407 8.78906H0.878906C0.717316 8.78906 0.585938 8.65768 0.585938 8.49609V0.878906C0.585938 0.717316 0.717316 0.585938 0.878906 0.585938H9.43359C9.59518 0.585938 9.72656 0.717316 9.72656 0.878906V8.78906H5.34863ZM12.6562 10.5469C12.0101 10.5469 11.4844 10.0211 11.4844 9.375C11.4844 8.72005 12.0196 8.20312 12.6562 8.20312C13.2944 8.20312 13.8281 8.72143 13.8281 9.375C13.8281 10.0211 13.3024 10.5469 12.6562 10.5469ZM14.2926 8.7331C14.0327 8.07186 13.3862 7.61719 12.6562 7.61719C11.9056 7.61719 11.2431 8.09807 10.9989 8.78906H10.3125V5.85938H13.5352C13.917 5.85938 14.2427 6.10428 14.3637 6.44531H13.5352C13.3733 6.44531 13.2422 6.57646 13.2422 6.73828C13.2422 6.9001 13.3733 7.03125 13.5352 7.03125H14.4141V8.49609C14.4141 8.59348 14.366 8.67977 14.2926 8.7331Z" fill="#979797"/>
<path d="M5.15625 1.75781C3.70239 1.75781 2.51953 2.94067 2.51953 4.39453C2.51953 5.84839 3.70239 7.03125 5.15625 7.03125C6.61011 7.03125 7.79297 5.84839 7.79297 4.39453C7.79297 2.94067 6.61011 1.75781 5.15625 1.75781ZM5.15625 6.44531C4.02546 6.44531 3.10547 5.52532 3.10547 4.39453C3.10547 3.26374 4.02546 2.34375 5.15625 2.34375C6.28704 2.34375 7.20703 3.26374 7.20703 4.39453C7.20703 5.52532 6.28704 6.44531 5.15625 6.44531Z" fill="#979797"/>
<path d="M6.32812 4.10156H5.44922V3.22266C5.44922 3.06084 5.31807 2.92969 5.15625 2.92969C4.99443 2.92969 4.86328 3.06084 4.86328 3.22266V4.39453C4.86328 4.55635 4.99443 4.6875 5.15625 4.6875H6.32812C6.48994 4.6875 6.62109 4.55635 6.62109 4.39453C6.62109 4.23271 6.48994 4.10156 6.32812 4.10156Z" fill="#979797"/>
</svg>
