<svg width="45" height="42" viewBox="0 0 45 42" fill="none" xmlns="http://www.w3.org/2000/svg">
    <path fill-rule="evenodd" clip-rule="evenodd" d="M11.879 0C10.9836 0 10.1973 0.595118 9.95416 1.45686L0.844222 33.7414C0.534042 34.8406 1.20586 35.9759 2.31869 36.2331L25.2431 41.5315C25.5493 41.6023 25.8678 41.5999 26.1729 41.5245L42.7095 37.4413C43.78 37.177 44.4346 36.0961 44.1729 35.025L35.6154 0H11.879Z" fill="#FBB148"/>
    <path fill-rule="evenodd" clip-rule="evenodd" d="M25.7783 41.5517L44.0359 36.9251L35.3371 0L25.7783 41.5517Z" fill="#E49337"/>
    <path fill-rule="evenodd" clip-rule="evenodd" d="M34.9548 32.2477L44.037 36.5152L34.9082 0L34.9548 32.2477Z" fill="#E9AD2E"/>
    <path fill-rule="evenodd" clip-rule="evenodd" d="M25.7783 41.5517L36.2112 32.6097L36.1631 0L25.7783 41.5517Z" fill="#A56630"/>
    <path fill-rule="evenodd" clip-rule="evenodd" d="M27.6937 7.64187L14.7489 8.92306L7.10714 7.55383L6.2168 10.6184L16.8116 11.3323L32.2819 10.7969L34.9073 0L27.6937 7.64187Z" fill="#935435"/>
    <path fill-rule="evenodd" clip-rule="evenodd" d="M15.1181 7.55498L28.3867 6.70293L15.5006 6.29584L6.2168 6.56881L15.1181 7.55498Z" fill="#42210B"/>
    <path fill-rule="evenodd" clip-rule="evenodd" d="M11.2747 0C10.678 0 10.1125 0.266434 9.73257 0.726544L4.43899 7.13716C3.88351 7.80985 4.39556 8.82157 5.26657 8.77229L16.3076 8.14762L29.1389 8.84007C29.8449 8.87817 30.5186 8.54063 30.9108 7.95229L36.2118 0H11.2747Z" fill="#FFCD5E"/>
</svg>
