<svg width="187" height="176" viewBox="0 0 187 176" fill="none" xmlns="http://www.w3.org/2000/svg">
<path d="M46.809 127.247L33.147 137.202L27.5996 129.59L41.2616 119.634C42.674 118.605 44.6527 118.916 45.6819 120.328L47.5004 122.823C48.5318 124.239 48.2213 126.218 46.809 127.247Z" fill="#E0E0E0"/>
<path d="M39.2352 122.231C39.1748 121.974 39.132 121.708 39.0968 121.447L33.8166 125.294C34.2673 126.521 34.8845 127.71 35.6895 128.815L36.6604 130.147C37.3577 131.104 38.1541 131.951 39.0259 132.682L44.2168 128.9C43.2125 128.336 42.3154 127.557 41.5836 126.56L40.6127 125.227C39.9333 124.295 39.482 123.281 39.2352 122.231Z" fill="#E0E0E0"/>
<path d="M139.797 47.83L153.459 37.8744L159.007 45.487L145.345 55.4426C143.932 56.4718 141.953 56.1613 140.924 54.7489L139.106 52.2534C138.074 50.838 138.385 48.8592 139.797 47.83Z" fill="#E0E0E0"/>
<path d="M83.4318 100.56L63.6865 114.948C62.0311 116.155 59.7149 115.788 58.5109 114.136L57.3292 112.514C56.1228 110.859 56.489 108.543 58.1414 107.339L77.8867 92.9502C79.5421 91.7439 81.8583 92.1101 83.0624 93.7624L84.244 95.384C85.4481 97.0364 85.0872 99.3534 83.4318 100.56Z" fill="#E0E0E0"/>
<path d="M66.1753 112.641C66.1933 112.718 66.2059 112.793 66.2186 112.869L71.4065 109.088C70.9747 108.037 70.4183 107.015 69.721 106.058L68.7501 104.725C67.9474 103.624 67.0079 102.664 65.9787 101.86L60.6924 105.712C61.8969 106.285 62.9793 107.15 63.8269 108.313L64.7978 109.645C65.4772 110.578 65.9285 111.592 66.1753 112.641Z" fill="#E0E0E0"/>
<path d="M66.2948 113.284C66.5044 114.657 66.3646 116.069 65.8906 117.371C65.3436 118.876 64.3708 120.231 62.9738 121.249L53.1888 128.379C52.2565 129.059 51.2428 129.51 50.193 129.757C48.623 130.123 46.9688 130.019 45.4624 129.478C45.1661 129.368 44.8754 129.241 44.5926 129.098L39.3309 132.933C39.825 133.326 40.3432 133.688 40.8756 134.012C43.2866 135.458 46.0467 136.156 48.817 136.059C51.5872 135.963 54.3725 135.059 56.7734 133.305L66.5583 126.174C68.1584 125.008 69.4561 123.563 70.4195 121.957C71.8661 119.546 72.5636 116.786 72.467 114.015C72.4112 112.478 72.0996 110.938 71.542 109.455L66.2926 113.281L66.2948 113.284Z" fill="#E0E0E0"/>
<path d="M39.5207 117.502C40.0676 115.997 41.0405 114.642 42.4374 113.624L52.2224 106.494C53.1547 105.815 54.1685 105.363 55.2182 105.117C56.7882 104.75 58.4424 104.854 59.9489 105.396C60.0648 105.438 60.1768 105.489 60.2896 105.534L65.6621 101.619C65.2957 101.349 64.9185 101.096 64.5325 100.864C62.1216 99.4171 59.3615 98.7196 56.5912 98.8162C53.8209 98.9129 51.0357 99.8166 48.6348 101.571L38.8498 108.701C37.2498 109.867 35.952 111.312 34.9886 112.919C33.542 115.33 32.8445 118.09 32.9412 120.86C32.9909 122.228 33.2363 123.599 33.6818 124.928L39.0512 121.015C38.9518 119.825 39.113 118.624 39.5207 117.502Z" fill="#E0E0E0"/>
<path d="M147.387 53.4616C147.405 53.538 147.417 53.6135 147.43 53.6891L152.618 49.9086C152.186 48.8571 151.63 47.8351 150.932 46.8781L149.962 45.5458C149.159 44.4442 148.219 43.4847 147.19 42.68L141.904 46.5322C143.108 47.1055 144.191 47.9703 145.038 49.1334L146.009 50.4657C146.689 51.3981 147.14 52.4118 147.387 53.4616Z" fill="#E0E0E0"/>
<path d="M147.51 54.1022C147.719 55.4759 147.579 56.8874 147.105 58.1892C146.558 59.6948 145.586 61.0491 144.189 62.0671L134.404 69.1975C133.471 69.8769 132.458 70.3283 131.408 70.575C129.838 70.9418 128.184 70.8375 126.677 70.2959C126.381 70.1867 126.09 70.0594 125.807 69.9169L120.546 73.7511C121.04 74.1448 121.558 74.5068 122.09 74.8302C124.501 76.2768 127.262 76.9743 130.032 76.8776C132.802 76.781 135.587 75.8773 137.988 74.123L147.773 66.9926C149.373 65.8266 150.671 64.3816 151.634 62.775C153.081 60.3641 153.778 57.604 153.682 54.8337C153.626 53.2962 153.314 51.7566 152.757 50.2738L147.507 54.0991L147.51 54.1022Z" fill="#E0E0E0"/>
<path d="M120.732 58.3231C121.279 56.8174 122.252 55.4631 123.649 54.4451L133.434 47.3147C134.366 46.6353 135.38 46.1839 136.43 45.9372C138 45.5704 139.654 45.6747 141.161 46.2163C141.277 46.259 141.389 46.3093 141.501 46.3543L146.877 42.437C146.511 42.167 146.133 41.9143 145.747 41.682C143.336 40.2354 140.576 39.5379 137.806 39.6346C135.036 39.7313 132.251 40.6349 129.85 42.3892L120.065 49.5196C118.465 50.6856 117.167 52.1306 116.203 53.7372C114.757 56.1481 114.059 58.9082 114.156 61.6785C114.206 63.0461 114.451 64.4172 114.897 65.7462L120.266 61.8334C120.167 60.6433 120.328 59.4423 120.732 58.3231Z" fill="#E0E0E0"/>
<path d="M74.8461 96.2813C74.7856 96.0238 74.7428 95.7582 74.7076 95.4965L69.4274 99.3442C69.8781 100.57 70.4954 101.76 71.3003 102.865L72.2712 104.197C72.9686 105.154 73.7649 106.001 74.6367 106.732L79.8276 102.949C78.8233 102.386 77.9263 101.607 77.1945 100.609L76.2236 99.2771C75.5442 98.3448 75.0928 97.331 74.8461 96.2813Z" fill="#E0E0E0"/>
<path d="M80.4814 79.2622C80.4938 79.2532 80.5114 79.2451 80.5237 79.2361L80.0909 78.6422L74.4538 82.7501C72.8538 83.916 71.556 85.3611 70.5926 86.9676C69.146 89.3785 68.4485 92.1387 68.5452 94.9089C68.5949 96.2766 68.8403 97.6477 69.2858 98.9766L74.6552 95.0639C74.5611 93.8746 74.7223 92.6736 75.1247 91.5513C75.6716 90.0456 76.6445 88.6913 78.0414 87.6733L83.6785 83.5655L83.2503 82.9778C83.238 82.9867 83.2279 82.9988 83.2125 83.01C82.9356 83.2118 82.5442 83.1531 82.3402 82.8731C82.1361 82.5931 82.197 82.2048 82.4771 82.0007C82.4894 81.9918 82.507 81.9836 82.5193 81.9747L82.2502 81.6054C82.2379 81.6144 82.2279 81.6264 82.2125 81.6376C81.9355 81.8394 81.5442 81.7807 81.3401 81.5007C81.1361 81.2207 81.197 80.8324 81.477 80.6284C81.4893 80.6194 81.5069 80.6113 81.5193 80.6023L81.2502 80.2331C81.2379 80.242 81.2278 80.2541 81.2124 80.2653C80.9355 80.4671 80.5441 80.4084 80.3401 80.1284C80.136 79.8484 80.2045 79.464 80.4814 79.2622Z" fill="#E0E0E0"/>
<path d="M85.8031 103.806C84.2331 104.173 82.5789 104.069 81.0724 103.527C80.7762 103.418 80.4855 103.291 80.2026 103.148L74.9409 106.982C75.4351 107.376 75.9533 107.738 76.4857 108.061C78.8966 109.508 81.6567 110.206 84.427 110.109C87.1973 110.012 89.9825 109.109 92.3834 107.354L97.9805 103.276L97.5523 102.688C97.2753 102.89 96.884 102.831 96.6799 102.551C96.4759 102.271 96.5368 101.883 96.8168 101.679L96.5522 101.316C96.2753 101.517 95.8839 101.459 95.6799 101.179C95.4781 100.902 95.5368 100.51 95.8168 100.306L95.5522 99.9432C95.2752 100.145 94.8839 100.086 94.6798 99.8063C94.4758 99.5263 94.5367 99.138 94.8167 98.9339L94.3884 98.3462L88.7913 102.425C87.8635 103.11 86.8497 103.562 85.8031 103.806Z" fill="#E0E0E0"/>
<path d="M130.098 66.5529L110.353 80.9414C108.698 82.1478 106.381 81.7816 105.177 80.1292L103.996 78.5076C102.789 76.8522 103.156 74.536 104.808 73.332L124.553 58.9434C126.209 57.737 128.525 58.1032 129.729 59.7556L130.911 61.3772C132.115 63.0296 131.751 65.3488 130.098 66.5529Z" fill="#E0E0E0"/>
<path d="M111.278 79.775C111.296 79.8514 111.308 79.927 111.321 80.0026L116.509 76.2221C116.077 75.1706 115.521 74.1486 114.824 73.1916L113.853 71.8592C113.05 70.7577 112.11 69.7981 111.081 68.9935L105.795 72.8457C106.999 73.419 108.082 74.2837 108.929 75.4469L109.9 76.7792C110.58 77.7116 111.031 78.7253 111.278 79.775Z" fill="#E0E0E0"/>
<path d="M111.401 80.4161C111.611 81.7898 111.471 83.2013 110.997 84.5031C110.45 86.0087 109.477 87.363 108.08 88.381L102.443 92.4888L102.871 93.0766C102.883 93.0676 102.893 93.0555 102.909 93.0443C103.186 92.8425 103.577 92.9012 103.781 93.1812C103.985 93.4612 103.924 93.8496 103.644 94.0536C103.632 94.0626 103.614 94.0707 103.602 94.0797L103.871 94.4489C103.883 94.4399 103.894 94.4279 103.909 94.4167C104.186 94.2149 104.577 94.2736 104.781 94.5536C104.985 94.8336 104.924 95.2219 104.644 95.426C104.632 95.4349 104.614 95.4431 104.602 95.452L104.871 95.8213C104.884 95.8123 104.894 95.8003 104.909 95.789C105.186 95.5872 105.577 95.6459 105.781 95.9259C105.985 96.206 105.924 96.5943 105.644 96.7983C105.632 96.8073 105.615 96.8154 105.602 96.8244L106.035 97.4182L111.672 93.3104C113.272 92.1444 114.57 90.6994 115.533 89.0929C116.98 86.6819 117.677 83.9218 117.581 81.1515C117.525 79.614 117.213 78.0744 116.656 76.5917L111.403 80.4192L111.401 80.4161Z" fill="#E0E0E0"/>
<path d="M100.324 72.2483C101.894 71.8816 103.548 71.9858 105.055 72.5274C105.171 72.5702 105.283 72.6204 105.396 72.6654L110.768 68.7504C110.402 68.4804 110.024 68.2277 109.638 67.9954C107.227 66.5488 104.467 65.8513 101.697 65.948C98.9268 66.0446 96.1416 66.9483 93.7407 68.7026L88.1436 72.7813L88.5718 73.369C88.8488 73.1672 89.2401 73.2259 89.4442 73.5059C89.6482 73.7859 89.5873 74.1742 89.3073 74.3782L89.5719 74.7413C89.8488 74.5395 90.2402 74.5982 90.4442 74.8782C90.646 75.1552 90.5874 75.5465 90.3073 75.7506L90.5719 76.1137C90.8489 75.9119 91.2402 75.9706 91.4443 76.2506C91.6483 76.5306 91.5874 76.9189 91.3074 77.1229L91.7357 77.7107L97.3328 73.632C98.2606 72.9464 99.2744 72.4951 100.324 72.2483Z" fill="#E0E0E0"/>
<path d="M71.7981 57.7067C70.5858 58.5901 68.892 58.3216 68.0108 57.1123L62.4881 49.5336C61.6046 48.3213 61.8732 46.6275 63.0824 45.7463C64.2948 44.8628 65.9886 45.1314 66.8698 46.3406L72.3902 53.9163C73.2767 55.1264 73.0105 56.8232 71.7981 57.7067Z" fill="#E0E0E0"/>
<path d="M80.8688 50.2433C79.3767 50.0963 78.2877 48.77 78.4346 47.2778L79.3535 37.9494C79.5005 36.4573 80.8268 35.3683 82.319 35.5153C83.8111 35.6622 84.9001 36.9886 84.7531 38.4807L83.8342 47.8091C83.6873 49.3012 82.3609 50.3902 80.8688 50.2433Z" fill="#E0E0E0"/>
<path d="M62.7764 63.4281C63.0936 61.9626 62.1646 60.5197 60.6991 60.2025L51.5399 58.2228C50.0745 57.9057 48.6316 58.8347 48.3144 60.3001C47.9972 61.7655 48.9262 63.2084 50.3917 63.5256L59.5531 65.5084C61.0163 65.8225 62.4623 64.8912 62.7764 63.4281Z" fill="#E0E0E0"/>
<path d="M116.06 116.638C117.272 115.754 118.966 116.023 119.847 117.232L125.368 124.808C126.249 126.017 125.983 127.714 124.773 128.595C123.561 129.479 121.867 129.21 120.986 128.001L115.466 120.425C114.584 119.216 114.851 117.519 116.06 116.638Z" fill="#E0E0E0"/>
<path d="M106.989 124.1C108.481 124.247 109.571 125.574 109.424 127.066L108.505 136.394C108.358 137.886 107.031 138.975 105.539 138.828C104.047 138.681 102.958 137.355 103.105 135.863L104.024 126.534C104.171 125.042 105.5 123.951 106.989 124.1Z" fill="#E0E0E0"/>
<path d="M125.082 110.916C124.765 112.382 125.694 113.825 127.159 114.142L136.321 116.125C137.786 116.442 139.229 115.513 139.546 114.047C139.863 112.582 138.934 111.139 137.469 110.822L128.308 108.839C126.842 108.522 125.399 109.451 125.082 110.916Z" fill="#E0E0E0"/>
</svg>
