<svg width="17" height="18" viewBox="0 0 17 18" fill="none" xmlns="http://www.w3.org/2000/svg">
    <path d="M14.8757 0H5.98903C4.81544 0 3.86426 0.923203 3.86426 2.06262V12.1876C3.86426 13.3267 4.81544 14.2499 5.98903 14.2499H14.8757C16.0493 14.2499 17.0005 13.3267 17.0005 12.1876V2.06262C17.0005 0.923203 16.0493 0 14.8757 0Z" fill="#ECEFF1"/>
    <path d="M13.3291 10.125H7.53365C7.21381 10.125 6.9541 9.87293 6.9541 9.5625C6.9541 9.25207 7.21381 9 7.53365 9H13.3291C13.649 9 13.9087 9.25207 13.9087 9.5625C13.9087 9.87293 13.649 10.125 13.3291 10.125Z" fill="#90A4AE"/>
    <path d="M13.3291 7.875H7.53365C7.21381 7.875 6.9541 7.62293 6.9541 7.3125C6.9541 7.00207 7.21381 6.75 7.53365 6.75H13.3291C13.649 6.75 13.9087 7.00207 13.9087 7.3125C13.9087 7.62293 13.649 7.875 13.3291 7.875Z" fill="#90A4AE"/>
    <path d="M13.3291 5.625H7.53365C7.21381 5.625 6.9541 5.37293 6.9541 5.0625C6.9541 4.75207 7.21381 4.5 7.53365 4.5H13.3291C13.649 4.5 13.9087 4.75207 13.9087 5.0625C13.9087 5.37293 13.649 5.625 13.3291 5.625Z" fill="#90A4AE"/>
    <path d="M5.98856 15.375C4.17747 15.375 2.70469 13.9448 2.70469 12.1877V2.06273C2.70469 1.99805 2.72026 1.93828 2.72388 1.875H2.12514C0.952635 1.875 0 2.79996 0 3.93762V15.9375C0 17.0755 0.952635 18.0001 2.12514 18.0001H11.3979C12.5701 18.0001 13.5227 17.0755 13.5227 15.9375V15.375H5.98856Z" fill="#2196F3"/>
</svg>
