<svg width="11" height="14" viewBox="0 0 11 14" fill="none" xmlns="http://www.w3.org/2000/svg">
    <path fill-rule="evenodd" clip-rule="evenodd" d="M5.99107 1.17895H8.53186V3.04044H0V1.17895H2.54079V0H5.99107V1.17895ZM5.07694 0.930748H3.45491V1.17895H5.07694V0.930748Z" fill="#FF4452"/>
    <path d="M7.72027 6.64895L7.89273 3.97119H0.639648L1.21908 12.9684H4.69801C4.24518 12.3148 3.97883 11.5181 3.97883 10.6592C3.97883 8.51417 5.63932 6.75658 7.72027 6.64895Z" fill="#FF4452"/>
    <path fill-rule="evenodd" clip-rule="evenodd" d="M4.89258 10.659C4.89258 8.95805 6.2517 7.57422 7.9223 7.57422C9.5929 7.57422 10.952 8.95802 10.952 10.659C10.952 12.36 9.5929 13.7438 7.9223 13.7438C6.2517 13.7438 4.89258 12.3599 4.89258 10.659ZM8.92671 12.3398L9.57309 11.6817L8.56868 10.659L9.57309 9.63632L8.92671 8.97819L7.9223 10.0009L6.91789 8.97819L6.27151 9.63632L7.27592 10.659L6.27151 11.6817L6.91789 12.3398L7.9223 11.3171L8.92671 12.3398Z" fill="#FF4452"/>
</svg>
