<svg width="50" height="50" viewBox="0 0 50 50" fill="none" xmlns="http://www.w3.org/2000/svg">
    <path d="M18.9658 1.72461H31.0352V12.0693H18.9658V1.72461Z" fill="#285680"/>
    <path d="M1.72461 31.0342V18.9658H12.0693V31.0352H1.72461V31.0342Z" fill="#285680"/>
    <path d="M31.0342 48.2754H18.9658V37.9307H31.0352V48.2754H31.0342Z" fill="#285680"/>
    <path d="M48.2754 18.9658V31.0352H37.9307V18.9658H48.2754Z" fill="#285680"/>
    <path d="M17.2412 2.58594H20.6895V12.0684C20.6895 13.0205 19.917 13.793 18.9648 13.793H18.1025C17.626 13.793 17.2402 13.4072 17.2402 12.9307V2.58594H17.2412Z" fill="#4482C3"/>
    <path d="M29.3105 1.72461H32.7588V12.9316C32.7588 13.4082 32.373 13.7939 31.8965 13.7939H31.0342C30.082 13.7939 29.3096 13.0215 29.3096 12.0693V1.72461H29.3105Z" fill="#4482C3"/>
    <path d="M2.58594 32.7588V29.3105H12.0684C13.0205 29.3105 13.793 30.083 13.793 31.0352V31.8975C13.793 32.374 13.4072 32.7598 12.9307 32.7598H2.58594V32.7588Z" fill="#4482C3"/>
    <path d="M2.58594 20.6895V17.2412H12.9307C13.4072 17.2412 13.793 17.627 13.793 18.1035V18.9658C13.793 19.918 13.0205 20.6904 12.0684 20.6904H2.58594V20.6895Z" fill="#4482C3"/>
    <path d="M32.7588 47.4141H29.3105V37.9316C29.3105 36.9795 30.083 36.207 31.0352 36.207H31.8975C32.374 36.207 32.7598 36.5928 32.7598 37.0693V47.4141H32.7588Z" fill="#4482C3"/>
    <path d="M20.6895 47.4141H17.2412V37.0693C17.2412 36.5928 17.627 36.207 18.1035 36.207H18.9658C19.918 36.207 20.6904 36.9795 20.6904 37.9316V47.4141H20.6895Z" fill="#4482C3"/>
    <path d="M47.4141 17.2412V20.6895H37.9316C36.9795 20.6895 36.207 19.917 36.207 18.9648V18.1025C36.207 17.626 36.5928 17.2402 37.0693 17.2402H47.4141V17.2412Z" fill="#4482C3"/>
    <path d="M47.4141 29.3105V32.7588H37.0693C36.5928 32.7588 36.207 32.373 36.207 31.8965V31.0342C36.207 30.082 36.9795 29.3096 37.9316 29.3096H47.4141V29.3105Z" fill="#4482C3"/>
    <path d="M17.2412 0H32.7588C33.7109 0 34.4824 0.772461 34.4824 1.72461C34.4824 2.67676 33.7109 3.44824 32.7588 3.44824H17.2412C16.2891 3.44824 15.5176 2.67676 15.5176 1.72461C15.5176 0.772461 16.2891 0 17.2412 0Z" fill="#67B9CC"/>
    <path d="M0 32.7588V17.2412C0 16.2891 0.772461 15.5176 1.72461 15.5176C2.67676 15.5176 3.44824 16.2891 3.44824 17.2412V32.7588C3.44824 33.7109 2.67676 34.4824 1.72461 34.4824C0.772461 34.4824 0 33.7109 0 32.7588Z" fill="#67B9CC"/>
    <path d="M32.7588 50H17.2412C16.2891 50 15.5176 49.2275 15.5176 48.2754C15.5176 47.3232 16.2891 46.5518 17.2412 46.5518H32.7588C33.7109 46.5518 34.4824 47.3232 34.4824 48.2754C34.4824 49.2275 33.7109 50 32.7588 50Z" fill="#67B9CC"/>
    <path d="M50 17.2412V32.7588C50 33.7109 49.2275 34.4824 48.2754 34.4824C47.3232 34.4824 46.5518 33.7109 46.5518 32.7588V17.2412C46.5518 16.2891 47.3232 15.5176 48.2754 15.5176C49.2275 15.5176 50 16.2891 50 17.2412Z" fill="#67B9CC"/>
    <path d="M34.4824 25C34.4824 30.2373 30.2373 34.4824 25 34.4824C19.7627 34.4824 15.5176 30.2373 15.5176 25C15.5176 19.7627 19.7627 15.5176 25 15.5176C30.2373 15.5176 34.4824 19.7627 34.4824 25Z" fill="#CB8252"/>
</svg>
