<svg width="20" height="20" viewBox="0 0 20 20" fill="none" xmlns="http://www.w3.org/2000/svg">
    <path d="M19.8903 14.7029L13.6 9.72624C13.4117 9.57749 13.1356 9.7125 13.1356 9.9527V13.2621H5.9758C4.24924 13.2621 2.47892 12.7809 1.17189 11.6404C0.967206 11.4618 0.651581 11.6435 0.701581 11.9116C0.790253 12.3857 0.971503 13.1 1.32971 13.8092C2.24885 15.6291 3.81213 16.5522 5.9758 16.5522H13.0797V19.7117C13.0797 19.8208 13.141 19.9209 13.2383 19.9695C13.3336 20.0178 13.4504 20.0088 13.5387 19.9425L19.8844 15.1605C19.9559 15.1067 19.9981 15.0227 19.9992 14.9333C20.0008 14.843 19.9602 14.7582 19.8903 14.7029Z" fill="#1BBC86"/>
    <path d="M19.8906 14.7035L19.0703 14.0547C13.0934 18.5588 13.5043 18.2801 13.3672 18.2801C13.2098 18.2801 13.0801 18.1518 13.0801 17.9917V19.7119C13.0801 19.821 13.1414 19.9211 13.2387 19.9698C13.334 20.018 13.4508 20.009 13.5391 19.9427L19.8848 15.1607C19.9562 15.1069 19.9984 15.0229 19.9996 14.9335C20.0012 14.8436 19.9605 14.7588 19.8906 14.7035Z" fill="#149362"/>
    <path d="M19.2979 8.08896C18.7717 5.27919 17.0151 3.44827 14.0237 3.44827H6.91975V0.2892C6.91975 0.0517492 6.64944 -0.0836564 6.46076 0.0584214L0.114672 4.8404C-0.035719 4.95383 -0.038844 5.18068 0.109203 5.29764C6.88498 10.6585 6.43459 10.3359 6.57717 10.3359C6.7342 10.3359 6.86428 10.208 6.86428 10.0474V6.73804H14.0237C15.7541 6.73804 17.5237 7.22158 18.8276 8.35977C19.033 8.53913 19.3483 8.35624 19.2979 8.08896Z" fill="#E22437"/>
    <path d="M6.57756 8.73971C6.43538 8.73971 6.85413 9.03721 0.849437 4.28662L0.114672 4.84002C-0.035719 4.95345 -0.038844 5.1803 0.109203 5.29726L6.39944 10.2739C6.58694 10.4223 6.86389 10.288 6.86389 10.0475V8.45124C6.86428 8.61137 6.73498 8.73971 6.57756 8.73971Z" fill="#C61A33"/>
    <path d="M19.2982 8.08834C19.2361 7.7567 19.1287 7.3077 18.9475 6.82534C18.7561 6.77785 17.3135 5.1416 14.024 5.1416H8.62051C8.54629 5.15848 8.43535 5.16751 8.2791 5.16751C7.23613 5.16751 6.9377 5.74367 6.86426 6.19777V6.73743H14.0236C15.7541 6.73743 17.5236 7.22096 18.8275 8.35915C19.0334 8.53852 19.3486 8.35562 19.2982 8.08834Z" fill="#C61A33"/>
    <path d="M11.5175 14.8317H5.97568C3.57685 14.8317 1.94951 13.688 1.10888 11.5992C0.8956 11.4948 0.6581 11.6797 0.701459 11.9112C1.22802 14.7214 2.98427 16.5519 5.97568 16.5519H13.0796V16.1429C13.0276 15.6343 12.7499 14.8317 11.5175 14.8317Z" fill="#149362"/>
</svg>
