<svg width="120" height="120" viewBox="0 0 120 120" fill="none" xmlns="http://www.w3.org/2000/svg">
<path d="M113.789 81.2101C110.895 83.2258 107.57 84.536 104.079 85.036C100.588 85.5359 97.028 85.2117 93.6848 84.0893C93.3819 83.9814 93.0574 83.9481 92.7389 83.9924C92.4205 84.0366 92.1173 84.1569 91.8553 84.3432L82.8579 90.7234L85.1732 93.9844L93.3369 88.1861C97.1524 89.3006 101.168 89.55 105.093 88.916C109.017 88.282 112.75 86.7806 116.02 84.5212C117.199 83.7251 118.315 82.8415 119.361 81.8779L116.65 78.9388C115.755 79.7672 114.799 80.5265 113.789 81.2101V81.2101Z" fill="#E0E0E0"/>
<path d="M93.6548 51.3708C90.7931 53.1993 88.5007 55.7927 87.0373 58.8572C85.574 61.9217 84.9982 65.3348 85.3752 68.7098L60.0286 84.9571L34.678 68.7198C35.0632 65.3437 34.4901 61.9274 33.0245 58.8617C31.5589 55.7961 29.2598 53.205 26.3904 51.3848C22.5815 48.7595 17.9498 47.6045 13.3542 48.1338C11.1864 48.346 9.09226 49.0342 7.22121 50.1493C5.35016 51.2643 3.74837 52.7787 2.53023 54.5844C1.31208 56.39 0.507622 58.4423 0.174288 60.5948C-0.159046 62.7473 -0.0130305 64.9468 0.601907 67.0363C1.83378 71.4934 4.64061 75.3523 8.5016 77.8971C11.2661 79.8789 14.5333 81.0412 17.9283 81.251C21.3232 81.4607 24.7086 80.7092 27.696 79.0828L47.3723 93.0527L28.6477 105.059C27.7627 105.622 26.9995 106.356 26.4034 107.219C25.8073 108.081 25.3904 109.055 25.1775 110.082C24.9646 111.108 24.9599 112.168 25.1638 113.196C25.3677 114.225 25.7759 115.202 26.3644 116.07C26.9506 116.936 27.7039 117.676 28.5802 118.247C29.4565 118.818 30.438 119.208 31.467 119.394C32.4961 119.581 33.5521 119.559 34.5728 119.332C35.5936 119.104 36.5586 118.675 37.4112 118.069L60.0286 102.03L82.646 118.081C83.4995 118.706 84.4703 119.151 85.5002 119.392C86.5301 119.632 87.5978 119.662 88.6396 119.48C89.6813 119.297 90.6755 118.907 91.5626 118.331C92.4497 117.755 93.2115 117.007 93.8024 116.13C94.3932 115.252 94.8009 114.265 95.0011 113.227C95.2012 112.188 95.1897 111.12 94.9672 110.086C94.7447 109.052 94.3158 108.074 93.7062 107.21C93.0966 106.346 92.3188 105.614 91.4194 105.057L72.6729 93.0607L92.3632 79.0848C95.3502 80.7118 98.7354 81.4639 102.13 81.2549C105.525 81.0459 108.793 79.8842 111.558 77.9031C119.775 72.3567 122.458 61.8918 117.534 54.5739C112.609 47.256 101.89 45.8245 93.6548 51.3708V51.3708ZM35.0959 114.816C34.2416 115.391 33.1963 115.61 32.1833 115.425C31.1702 115.24 30.2695 114.666 29.6734 113.827C29.3849 113.401 29.1848 112.922 29.0849 112.417C28.9851 111.913 28.9875 111.394 29.0921 110.89C29.1967 110.387 29.4014 109.909 29.6939 109.486C29.9864 109.064 30.3609 108.704 30.7951 108.428L50.8872 95.544L56.5636 99.5708L35.0959 114.816ZM90.9596 110.892C91.1162 111.65 91.0409 112.438 90.7435 113.154C90.446 113.869 89.9402 114.478 89.2918 114.902C88.6435 115.326 87.8825 115.545 87.108 115.53C86.3335 115.516 85.5813 115.268 84.9493 114.82L28.8877 75.032C28.5458 74.7896 28.1365 74.6607 27.7174 74.6636C27.2984 74.6664 26.8908 74.8009 26.5523 75.0479C24.1837 76.5938 21.3988 77.3777 18.5716 77.2944C15.7444 77.2111 13.0105 76.2646 10.737 74.5821C7.67804 72.5756 5.45033 69.5281 4.46678 66.0046C3.99615 64.4654 3.8756 62.8404 4.11396 61.2486C4.35232 59.6568 4.94355 58.1385 5.8444 56.8047C6.74525 55.4708 7.93291 54.3553 9.32049 53.5396C10.7081 52.724 12.2605 52.2289 13.864 52.0906C17.4991 51.6827 21.1588 52.6061 24.165 54.6899C26.575 56.169 28.4746 58.35 29.609 60.9402C30.7435 63.5303 31.0583 66.4054 30.5112 69.1797C30.4084 69.5863 30.4361 70.015 30.5904 70.405C30.7447 70.7951 31.0178 71.1267 31.3709 71.353L89.2621 108.426C89.6963 108.702 90.0704 109.062 90.3621 109.486C90.6538 109.909 90.857 110.388 90.9596 110.892V110.892ZM109.314 74.5781C107.04 76.2602 104.305 77.2061 101.478 77.2886C98.6504 77.3712 95.8653 76.5865 93.4968 75.0399C93.1583 74.7929 92.7508 74.6584 92.3317 74.6556C91.9127 74.6527 91.5033 74.7816 91.1615 75.024L69.042 90.7274L63.7395 87.3284L88.6802 71.333C89.0326 71.107 89.3052 70.776 89.4594 70.3868C89.6137 69.9976 89.6418 69.5697 89.54 69.1637C89.0038 66.389 89.3245 63.5168 90.4594 60.9287C91.5944 58.3407 93.4899 56.1591 95.8941 54.6739C102.292 50.3611 110.518 51.3129 114.215 56.7893C117.912 62.2657 115.71 70.2653 109.314 74.5781V74.5781Z" fill="#E0E0E0"/>
<path d="M21.8936 3.66475L19.6802 0.333725C14.8504 3.53401 11.2283 8.25625 9.38919 13.7505C7.55005 19.2447 7.59933 25.1959 9.52918 30.6589L13.2981 29.3233C11.6662 24.7 11.6259 19.664 13.1836 15.0153C14.7413 10.3665 17.8076 6.37147 21.8956 3.66475H21.8936Z" fill="#E0E0E0"/>
<path d="M81.982 68.3799L87.6743 39.9202C92.3023 39.5175 96.5952 37.3406 99.6549 33.8451C102.715 30.3496 104.304 25.8062 104.09 21.1657C103.877 16.5252 101.877 12.147 98.5088 8.94739C95.141 5.74773 90.6662 3.97447 86.0208 3.99864C81.9779 3.98432 78.0508 5.34904 74.8881 7.86751C73.2407 5.44364 71.0254 3.45955 68.4354 2.08823C65.8453 0.716914 62.9591 0 60.0284 0C57.0977 0 54.2115 0.716914 51.6215 2.08823C49.0314 3.45955 46.8161 5.44364 45.1687 7.86751C42.006 5.34904 38.079 3.98432 34.036 3.99864C29.4065 3.99821 24.9549 5.78205 21.6068 8.97929C18.2586 12.1765 16.2715 16.5412 16.0586 21.1658C15.8457 25.7904 17.4233 30.3191 20.4635 33.8105C23.5037 37.3019 27.7725 39.4872 32.3825 39.9122L38.0748 68.3799L41.9937 67.5961L40.874 61.9817H79.1828L78.0632 67.5801L81.982 68.3799ZM72.3308 57.9829L74.0043 46.2703L70.0455 45.7025L68.292 57.9829H62.0278V35.9893H58.029V57.9829H51.7648L50.0113 45.7025L46.0525 46.2703L47.726 57.9829H40.0742L35.9954 37.5888C35.9032 37.1372 35.6578 36.7313 35.3008 36.4399C34.9437 36.1484 34.4969 35.9892 34.036 35.9893C30.324 35.9893 26.7641 34.5147 24.1394 31.89C21.5146 29.2653 20.0401 25.7053 20.0401 21.9934C20.0401 18.2814 21.5146 14.7215 24.1394 12.0968C26.7641 9.47204 30.324 7.99748 34.036 7.99748C35.9414 7.99259 37.8273 8.3807 39.576 9.13754C41.3246 9.89438 42.8984 11.0037 44.199 12.3962C44.4213 12.6312 44.6972 12.8088 45.0031 12.9137C45.3091 13.0186 45.6359 13.0478 45.9556 12.9986C46.2753 12.9495 46.5783 12.8235 46.8386 12.6315C47.0989 12.4395 47.3087 12.1872 47.4501 11.8963C48.5923 9.53088 50.3783 7.53544 52.6032 6.13907C54.8281 4.7427 57.4016 4.00201 60.0284 4.00201C62.6552 4.00201 65.2287 4.7427 67.4536 6.13907C69.6785 7.53544 71.4646 9.53088 72.6067 11.8963C72.7481 12.1872 72.9579 12.4395 73.2182 12.6315C73.4785 12.8235 73.7815 12.9495 74.1012 12.9986C74.4209 13.0478 74.7477 13.0186 75.0537 12.9137C75.3596 12.8088 75.6356 12.6312 75.8578 12.3962C77.1584 11.0037 78.7322 9.89438 80.4808 9.13754C82.2295 8.3807 84.1154 7.99259 86.0208 7.99748C89.7328 7.99748 93.2927 9.47204 95.9174 12.0968C98.5422 14.7215 100.017 18.2814 100.017 21.9934C100.017 25.7053 98.5422 29.2653 95.9174 31.89C93.2927 34.5147 89.7328 35.9893 86.0208 35.9893C85.5599 35.9892 85.1131 36.1484 84.756 36.4399C84.399 36.7313 84.1536 37.1372 84.0614 37.5888L79.9826 57.9829H72.3308Z" fill="#E0E0E0"/>
</svg>
