<svg width="133" height="118" viewBox="0 0 133 118" fill="none" xmlns="http://www.w3.org/2000/svg">
<path fill-rule="evenodd" clip-rule="evenodd" d="M117.748 111.039C118.36 111.039 118.856 111.535 118.856 112.146V116.186C118.856 116.798 118.36 117.294 117.748 117.294H113.709C113.097 117.294 112.601 116.798 112.601 116.186C112.601 115.575 113.097 115.079 113.709 115.079H116.64V112.146C116.64 111.535 117.136 111.039 117.748 111.039Z" fill="#B1B5BA"/>
<path fill-rule="evenodd" clip-rule="evenodd" d="M7.82031 116.512C7.82031 116.08 8.2603 115.73 8.80305 115.73H11.8694C12.4122 115.73 12.8522 116.08 12.8522 116.512C12.8522 116.944 12.4122 117.294 11.8694 117.294H8.80305C8.2603 117.294 7.82031 116.944 7.82031 116.512ZM17.0195 116.512C17.0195 116.08 17.4595 115.73 18.0022 115.73H24.135C24.6778 115.73 25.1177 116.08 25.1177 116.512C25.1177 116.944 24.6778 117.294 24.135 117.294H18.0022C17.4595 117.294 17.0195 116.944 17.0195 116.512ZM29.2851 116.512C29.2851 116.08 29.725 115.73 30.2678 115.73H36.4006C36.9433 115.73 37.3833 116.08 37.3833 116.512C37.3833 116.944 36.9433 117.294 36.4006 117.294H30.2678C29.725 117.294 29.2851 116.944 29.2851 116.512ZM41.5506 116.512C41.5506 116.08 41.9906 115.73 42.5334 115.73H48.6661C49.2089 115.73 49.6489 116.08 49.6489 116.512C49.6489 116.944 49.2089 117.294 48.6661 117.294H42.5334C41.9906 117.294 41.5506 116.944 41.5506 116.512ZM53.8162 116.512C53.8162 116.08 54.2562 115.73 54.7989 115.73H60.9317C61.4745 115.73 61.9145 116.08 61.9145 116.512C61.9145 116.944 61.4745 117.294 60.9317 117.294H54.7989C54.2562 117.294 53.8162 116.944 53.8162 116.512ZM66.0818 116.512C66.0818 116.08 66.5217 115.73 67.0645 115.73H73.1973C73.74 115.73 74.18 116.08 74.18 116.512C74.18 116.944 73.74 117.294 73.1973 117.294H67.0645C66.5217 117.294 66.0818 116.944 66.0818 116.512ZM78.3473 116.512C78.3473 116.08 78.7873 115.73 79.3301 115.73H85.4628C86.0056 115.73 86.4456 116.08 86.4456 116.512C86.4456 116.944 86.0056 117.294 85.4628 117.294H79.3301C78.7873 117.294 78.3473 116.944 78.3473 116.512ZM90.6129 116.512C90.6129 116.08 91.0529 115.73 91.5956 115.73H97.7284C98.2712 115.73 98.7111 116.08 98.7111 116.512C98.7111 116.944 98.2712 117.294 97.7284 117.294H91.5956C91.0529 117.294 90.6129 116.944 90.6129 116.512ZM102.878 116.512C102.878 116.08 103.318 115.73 103.861 115.73H106.928C107.47 115.73 107.91 116.08 107.91 116.512C107.91 116.944 107.47 117.294 106.928 117.294H103.861C103.318 117.294 102.878 116.944 102.878 116.512Z" fill="#B1B5BA"/>
<path fill-rule="evenodd" clip-rule="evenodd" d="M1.10803 111.039C1.71998 111.039 2.21607 111.535 2.21607 112.146V115.079H5.14759C5.75954 115.079 6.25563 115.575 6.25563 116.186C6.25563 116.798 5.75954 117.294 5.14759 117.294H1.10803C0.496084 117.294 0 116.798 0 116.186V112.146C0 111.535 0.496084 111.039 1.10803 111.039Z" fill="#B1B5BA"/>
<path fill-rule="evenodd" clip-rule="evenodd" d="M5.62016 16.0316C5.12435 16.0316 4.65409 16.1291 4.22599 16.3049C3.72173 16.5119 3.14336 16.2752 2.93416 15.7762C2.72495 15.2772 2.96414 14.7048 3.4684 14.4978C4.13246 14.2252 4.85985 14.0752 5.62016 14.0752H8.60957C9.1555 14.0752 9.59806 14.5132 9.59806 15.0534C9.59806 15.5937 9.1555 16.0316 8.60957 16.0316H5.62016ZM13.5999 15.0534C13.5999 14.5132 14.0424 14.0752 14.5884 14.0752H20.5672C21.1131 14.0752 21.5557 14.5132 21.5557 15.0534C21.5557 15.5937 21.1131 16.0316 20.5672 16.0316H14.5884C14.0424 16.0316 13.5999 15.5937 13.5999 15.0534ZM25.5575 15.0534C25.5575 14.5132 26.0001 14.0752 26.546 14.0752H32.5248C33.0707 14.0752 33.5133 14.5132 33.5133 15.0534C33.5133 15.5937 33.0707 16.0316 32.5248 16.0316H26.546C26.0001 16.0316 25.5575 15.5937 25.5575 15.0534ZM37.5151 15.0534C37.5151 14.5132 37.9577 14.0752 38.5036 14.0752H44.4824C45.0283 14.0752 45.4709 14.5132 45.4709 15.0534C45.4709 15.5937 45.0283 16.0316 44.4824 16.0316H38.5036C37.9577 16.0316 37.5151 15.5937 37.5151 15.0534ZM49.4727 15.0534C49.4727 14.5132 49.9153 14.0752 50.4612 14.0752H56.44C56.986 14.0752 57.4285 14.5132 57.4285 15.0534C57.4285 15.5937 56.986 16.0316 56.44 16.0316H50.4612C49.9153 16.0316 49.4727 15.5937 49.4727 15.0534ZM61.4303 15.0534C61.4303 14.5132 61.8729 14.0752 62.4188 14.0752H68.3976C68.9436 14.0752 69.3861 14.5132 69.3861 15.0534C69.3861 15.5937 68.9436 16.0316 68.3976 16.0316H62.4188C61.8729 16.0316 61.4303 15.5937 61.4303 15.0534ZM73.388 15.0534C73.388 14.5132 73.8305 14.0752 74.3764 14.0752H80.3553C80.9012 14.0752 81.3438 14.5132 81.3438 15.0534C81.3438 15.5937 80.9012 16.0316 80.3553 16.0316H74.3764C73.8305 16.0316 73.388 15.5937 73.388 15.0534ZM85.3456 15.0534C85.3456 14.5132 85.7881 14.0752 86.3341 14.0752H92.3129C92.8588 14.0752 93.3014 14.5132 93.3014 15.0534C93.3014 15.5937 92.8588 16.0316 92.3129 16.0316H86.3341C85.7881 16.0316 85.3456 15.5937 85.3456 15.0534ZM97.3032 15.0534C97.3032 14.5132 97.7458 14.0752 98.2917 14.0752H104.27C104.816 14.0752 105.259 14.5132 105.259 15.0534C105.259 15.5937 104.816 16.0316 104.27 16.0316H98.2917C97.7458 16.0316 97.3032 15.5937 97.3032 15.0534ZM109.261 15.0534C109.261 14.5132 109.703 14.0752 110.249 14.0752H113.239C113.999 14.0752 114.726 14.2252 115.39 14.4978C115.895 14.7048 116.134 15.2772 115.925 15.7762C115.715 16.2752 115.137 16.5119 114.633 16.3049C114.205 16.1291 113.734 16.0316 113.239 16.0316H110.249C109.703 16.0316 109.261 15.5937 109.261 15.0534ZM1.71899 16.9796C2.22335 17.1864 2.46281 17.7586 2.25385 18.2577C2.07641 18.6815 1.97797 19.1471 1.97797 19.6379V22.6843C1.97797 23.2246 1.5354 23.6625 0.989473 23.6625C0.443542 23.6625 0.000976562 23.2246 0.000976562 22.6843V19.6379C0.000976562 18.8857 0.152296 18.166 0.42741 17.5089C0.636375 17.0098 1.21464 16.7728 1.71899 16.9796ZM117.14 16.9796C117.644 16.7728 118.222 17.0098 118.431 17.5089C118.707 18.166 118.858 18.8857 118.858 19.6379V22.8114C118.858 23.3517 118.415 23.7896 117.869 23.7896C117.323 23.7896 116.881 23.3517 116.881 22.8114V19.6379C116.881 19.1471 116.782 18.6815 116.605 18.2577C116.396 17.7586 116.635 17.1864 117.14 16.9796ZM0.989473 27.7989C1.5354 27.7989 1.97797 28.2368 1.97797 28.7771V34.8699C1.97797 35.4101 1.5354 35.8481 0.989473 35.8481C0.443542 35.8481 0.000976562 35.4101 0.000976562 34.8699V28.7771C0.000976562 28.2368 0.443542 27.7989 0.989473 27.7989ZM117.869 28.1802C118.415 28.1802 118.858 28.6181 118.858 29.1584V35.5053C118.858 36.0456 118.415 36.4835 117.869 36.4835C117.323 36.4835 116.881 36.0456 116.881 35.5053V29.1584C116.881 28.6181 117.323 28.1802 117.869 28.1802ZM0.989473 39.9845C1.5354 39.9845 1.97797 40.4224 1.97797 40.9627V47.0555C1.97797 47.5957 1.5354 48.0337 0.989473 48.0337C0.443542 48.0337 0.000976562 47.5957 0.000976562 47.0555V40.9627C0.000976562 40.4224 0.443542 39.9845 0.989473 39.9845ZM117.869 40.8741C118.415 40.8741 118.858 41.312 118.858 41.8523V48.1992C118.858 48.7395 118.415 49.1774 117.869 49.1774C117.323 49.1774 116.881 48.7395 116.881 48.1992V41.8523C116.881 41.312 117.323 40.8741 117.869 40.8741ZM0.989473 52.17C1.5354 52.17 1.97797 52.608 1.97797 53.1482V59.241C1.97797 59.7813 1.5354 60.2192 0.989473 60.2192C0.443542 60.2192 0.000976562 59.7813 0.000976562 59.241V53.1482C0.000976562 52.608 0.443542 52.17 0.989473 52.17ZM117.869 53.568C118.415 53.568 118.858 54.0059 118.858 54.5462V60.8931C118.858 61.4334 118.415 61.8713 117.869 61.8713C117.323 61.8713 116.881 61.4334 116.881 60.8931V54.5462C116.881 54.0059 117.323 53.568 117.869 53.568ZM0.989473 64.3556C1.5354 64.3556 1.97797 64.7935 1.97797 65.3338V71.4266C1.97797 71.9668 1.5354 72.4048 0.989473 72.4048C0.443542 72.4048 0.000976562 71.9668 0.000976562 71.4266V65.3338C0.000976562 64.7935 0.443542 64.3556 0.989473 64.3556ZM117.869 66.2619C118.415 66.2619 118.858 66.6998 118.858 67.2401V73.587C118.858 74.1273 118.415 74.5653 117.869 74.5653C117.323 74.5653 116.881 74.1273 116.881 73.587V67.2401C116.881 66.6998 117.323 66.2619 117.869 66.2619ZM0.989473 76.5411C1.5354 76.5411 1.97797 76.9791 1.97797 77.5193V83.6121C1.97797 84.1524 1.5354 84.5903 0.989473 84.5903C0.443542 84.5903 0.000976562 84.1524 0.000976562 83.6121V77.5193C0.000976562 76.9791 0.443542 76.5411 0.989473 76.5411ZM117.869 78.9558C118.415 78.9558 118.858 79.3937 118.858 79.934V86.2809C118.858 86.8212 118.415 87.2592 117.869 87.2592C117.323 87.2592 116.881 86.8212 116.881 86.2809V79.934C116.881 79.3937 117.323 78.9558 117.869 78.9558ZM0.989473 88.7267C1.5354 88.7267 1.97797 89.1646 1.97797 89.7049V95.7977C1.97797 96.3379 1.5354 96.7759 0.989473 96.7759C0.443542 96.7759 0.000976562 96.3379 0.000976562 95.7977V89.7049C0.000976562 89.1646 0.443542 88.7267 0.989473 88.7267ZM117.869 91.6497C118.415 91.6497 118.858 92.0876 118.858 92.6279V98.9748C118.858 99.5151 118.415 99.9531 117.869 99.9531C117.323 99.9531 116.881 99.5151 116.881 98.9748V92.6279C116.881 92.0876 117.323 91.6497 117.869 91.6497ZM0.989473 100.912C1.5354 100.912 1.97797 101.35 1.97797 101.89V104.937C1.97797 105.477 1.5354 105.915 0.989473 105.915C0.443542 105.915 0.000976562 105.477 0.000976562 104.937V101.89C0.000976562 101.35 0.443542 100.912 0.989473 100.912ZM117.869 104.344C118.415 104.344 118.858 104.782 118.858 105.322V108.495C118.858 109.036 118.415 109.473 117.869 109.473C117.323 109.473 116.881 109.036 116.881 108.495V105.322C116.881 104.782 117.323 104.344 117.869 104.344Z" fill="#B1B5BA"/>
<path d="M131.358 101.654H14.0745V4.63448C14.0745 2.07457 16.1547 0 18.7215 0H126.72C129.287 0 131.367 2.07457 131.367 4.63448V101.654H131.358Z" fill="#EFEFEF"/>
<path fill-rule="evenodd" clip-rule="evenodd" d="M19.6891 1.96289C17.6732 1.96289 16.0415 3.59094 16.0415 5.59773V101.255H130.964V5.59773C130.964 3.59094 129.333 1.96289 127.317 1.96289H19.6891ZM14.0745 5.59773C14.0745 2.50481 16.5889 0 19.6891 0H127.317C130.417 0 132.931 2.50481 132.931 5.59773V102.236C132.931 102.778 132.491 103.218 131.948 103.218H15.058C14.5148 103.218 14.0745 102.778 14.0745 102.236V5.59773Z" fill="#B1B5BA"/>
<path fill-rule="evenodd" clip-rule="evenodd" d="M19.6891 1.93468C17.7009 1.93468 16.0415 3.57397 16.0415 5.65645V19.96H130.964V5.65645C130.964 3.57397 129.305 1.93468 127.317 1.93468H19.6891ZM14.0745 5.65645C14.0745 2.55877 16.5611 0 19.6891 0H127.317C130.445 0 132.931 2.55877 132.931 5.65645V20.9273C132.931 21.4616 132.491 21.8947 131.948 21.8947H15.058C14.5148 21.8947 14.0745 21.4616 14.0745 20.9273V5.65645Z" fill="#B1B5BA"/>
<path fill-rule="evenodd" clip-rule="evenodd" d="M76.9378 50.417C77.3537 49.9299 78.0354 49.9212 78.4606 50.3976L88.8182 62.0051C89.2434 62.4816 89.251 63.2628 88.8351 63.7499C88.4193 64.2371 87.7376 64.2458 87.3124 63.7693L76.9548 52.1618C76.5296 51.6854 76.522 50.9042 76.9378 50.417Z" fill="#B1B5BA"/>
<path fill-rule="evenodd" clip-rule="evenodd" d="M88.8111 50.3904C89.245 50.8576 89.2534 51.6242 88.8298 52.1028L78.5145 63.756C78.0909 64.2346 77.3957 64.2438 76.9618 63.7766C76.5279 63.3094 76.5196 62.5427 76.9432 62.0642L87.2585 50.4109C87.6821 49.9324 88.3772 49.9232 88.8111 50.3904Z" fill="#B1B5BA"/>
<path fill-rule="evenodd" clip-rule="evenodd" d="M103.524 50.3749C103.94 49.9414 104.622 49.9333 105.047 50.357L115.405 60.6731C115.83 61.0967 115.838 61.7916 115.422 62.2252C115.007 62.6587 114.325 62.6668 113.9 62.2431L103.542 51.927C103.117 51.5034 103.109 50.8085 103.524 50.3749Z" fill="#B1B5BA"/>
<path fill-rule="evenodd" clip-rule="evenodd" d="M115.398 50.3506C115.832 50.7659 115.84 51.4474 115.417 51.8728L105.101 62.2312C104.678 62.6566 103.983 62.6648 103.549 62.2495C103.115 61.8342 103.106 61.1527 103.53 60.7273L113.845 50.3689C114.269 49.9435 114.964 49.9353 115.398 50.3506Z" fill="#B1B5BA"/>
</svg>
