<svg width="67" height="67" viewBox="0 0 67 67" fill="none" xmlns="http://www.w3.org/2000/svg">
<path d="M0 13C0 5.8203 5.8203 0 13 0H54C61.1797 0 67 5.8203 67 13V54C67 61.1797 61.1797 67 54 67H13C5.8203 67 0 61.1797 0 54V13Z" fill="#F8F8F8"/>
<path fill-rule="evenodd" clip-rule="evenodd" d="M54 0.2H13C5.93076 0.2 0.2 5.93076 0.2 13V54C0.2 61.0692 5.93076 66.8 13 66.8H54C61.0692 66.8 66.8 61.0692 66.8 54V13C66.8 5.93076 61.0692 0.2 54 0.2ZM13 0C5.8203 0 0 5.8203 0 13V54C0 61.1797 5.8203 67 13 67H54C61.1797 67 67 61.1797 67 54V13C67 5.8203 61.1797 0 54 0H13Z" fill="#9E9E9E"/>
<path d="M33.467 33.6967C27.95 33.6967 22.433 33.7012 16.916 33.6876C16.4709 33.6865 15.9957 33.6337 15.5875 33.4709C14.6291 33.0892 14.0953 32.3355 14.0186 31.3026C13.9879 30.892 13.9896 30.4655 14.0674 30.0634C14.23 29.22 14.7473 28.6239 15.5278 28.2683C15.6984 28.1906 15.7672 28.0998 15.7774 27.9132C16.1787 20.2224 21.6895 13.6767 29.3899 11.915C29.6759 11.8498 29.7316 11.7228 29.7481 11.4624C29.8691 9.5624 31.4552 8.04068 33.3368 8.00098C35.385 7.95787 37.025 9.34347 37.2462 11.3036C37.3058 11.8305 37.3098 11.8158 37.9022 11.978C44.1741 13.6937 48.4063 17.5856 50.4835 23.7581C50.9371 25.1063 51.1543 26.5061 51.2339 27.9246C51.2447 28.1146 51.3226 28.1957 51.4874 28.2745C52.4765 28.7487 52.9734 29.5472 53.0098 30.6368C53.0291 31.2176 52.9995 31.7927 52.7056 32.3145C52.1804 33.248 51.3641 33.6933 50.3016 33.695C47.8413 33.6989 45.3809 33.6972 42.9206 33.6972C39.769 33.6972 36.618 33.6967 33.467 33.6967ZM49.533 28.0085C49.4676 27.4816 49.4108 26.9876 49.3437 26.4953C49.2863 26.075 49.2812 26.075 48.8611 26.075C41.0151 26.075 33.1697 26.075 25.3237 26.0745C25.2384 26.0745 25.1531 26.0773 25.0684 26.0733C24.6336 26.0529 24.2902 25.7347 24.2493 25.3167C24.2044 24.8556 24.4755 24.4688 24.9235 24.3763C25.0605 24.348 25.2049 24.3451 25.3464 24.3451C33.0406 24.344 40.7348 24.344 48.4296 24.344C48.5564 24.344 48.6826 24.344 48.8156 24.344C48.8105 24.2657 48.8133 24.2368 48.806 24.2107C48.7855 24.1381 48.7622 24.0661 48.7383 23.9946C47.8884 21.4531 46.4803 19.2667 44.5106 17.4489C42.1861 15.3027 39.4507 13.9727 36.3349 13.4192C35.5356 13.2774 35.3003 12.9212 35.4811 12.1249C35.7966 10.7302 34.4925 9.45861 33.077 9.76998C31.9213 10.0241 31.2266 11.1924 31.5473 12.2372C31.7303 12.8333 31.4273 13.2683 30.8054 13.3908C30.5456 13.4419 30.2853 13.4884 30.026 13.5422C23.4921 14.9017 18.4896 20.2462 17.5982 26.8231C17.5459 27.2105 17.5226 27.6013 17.4839 28.0085C28.1774 28.0085 38.8214 28.0085 49.533 28.0085ZM33.4664 31.9589C39.0124 31.9589 44.5578 31.9589 50.1038 31.9589C50.2175 31.9589 50.3311 31.9628 50.4443 31.9549C50.7359 31.9345 50.9866 31.8154 51.1253 31.5567C51.3578 31.1228 51.351 30.6561 51.1571 30.2193C50.9758 29.8098 50.5875 29.7514 50.1743 29.7514C39.0635 29.7554 27.9534 29.7543 16.8427 29.7548C16.7387 29.7548 16.6335 29.7497 16.5306 29.7611C16.2293 29.794 15.9917 29.9363 15.8433 30.2035C15.3607 31.0735 15.8735 31.96 16.8569 31.96C22.3938 31.9589 27.9301 31.9589 33.4664 31.9589Z" fill="#E0E0E0"/>
<path d="M33.6222 51.2489C33.824 51.427 34.0082 51.5869 34.1895 51.7503C34.9274 52.4156 35.0064 53.4643 34.347 54.209C33.5198 55.1431 32.6791 56.0648 31.8292 56.9779C31.1601 57.6971 30.0908 57.7328 29.3251 57.0692C26.9177 54.9832 24.5153 52.8909 22.1107 50.8008C21.5826 50.342 21.0528 49.8849 20.5269 49.4237C19.6657 48.6688 19.61 47.6156 20.3797 46.7779C21.0511 46.0468 21.7258 45.3191 22.383 44.5756C22.8412 44.0572 23.2959 43.5535 24.0963 43.5768C24.0622 43.4719 24.0503 43.4095 24.0224 43.3556C23.1874 41.7437 22.2699 40.1823 21.1568 38.7416C20.3024 37.6357 20.3871 36.2002 21.3569 35.2734C22.3205 34.3523 23.8616 34.316 24.9024 35.2019C26.4242 36.4979 27.8272 37.913 29.121 39.4359C29.3046 39.652 29.4928 39.8652 29.6628 40.0909C30.4137 41.0875 31.4137 41.3455 32.5876 41.0733C33.4175 40.881 34.1633 40.4925 34.8762 40.0393C36.9505 38.7212 39.0164 37.3906 41.0986 36.0862C41.8991 35.5848 42.7233 35.1191 43.5567 34.6745C44.6402 34.0959 46.0256 34.4516 46.7111 35.4487C47.4018 36.4537 47.2483 37.8172 46.3229 38.605C45.8999 38.9651 45.411 39.2476 44.9756 39.5941C43.0246 41.1459 41.2658 42.9053 39.5666 44.7196C37.6225 46.7955 35.7278 48.9178 33.812 51.0209C33.7546 51.0833 33.7035 51.1508 33.6222 51.2489ZM32.2897 50.0941C32.3772 50.0011 32.4358 49.941 32.492 49.8786C33.9343 48.2775 35.3458 46.648 36.8238 45.0809C39.4228 42.325 41.9775 39.517 45.1211 37.339C45.3713 37.166 45.4497 36.8813 45.3627 36.6102C45.2803 36.3539 45.0216 36.1253 44.7459 36.1514C44.5214 36.1724 44.2889 36.2574 44.0894 36.368C41.4989 37.8024 39.0084 39.399 36.5424 41.0342C35.5703 41.6785 34.5789 42.2768 33.4567 42.6319C31.379 43.2892 29.6491 42.8162 28.3627 41.265C27.7055 40.4727 27.0376 39.6854 26.3196 38.9492C25.4953 38.1047 24.6182 37.3112 23.7479 36.5127C23.3954 36.1894 22.8895 36.2211 22.5632 36.5348C22.2431 36.8422 22.2124 37.2528 22.5035 37.6323C24.2822 39.9469 25.6341 42.5043 26.8204 45.1569C26.9017 45.3384 27.0319 45.5148 27.1809 45.647C28.2217 46.5675 29.274 47.4755 30.3228 48.387C30.9703 48.9507 31.6195 49.5128 32.2897 50.0941ZM33.048 53.0548C30.0601 50.4617 27.0905 47.885 24.1089 45.2976C23.2527 46.2306 22.4245 47.1324 21.5758 48.0574C24.5727 50.6534 27.5458 53.2283 30.5348 55.8169C31.3852 54.8822 32.2095 53.9764 33.048 53.0548Z" fill="#E0E0E0"/>
</svg>
