<svg width="58" height="53" viewBox="0 0 58 53" fill="none" xmlns="http://www.w3.org/2000/svg">
    <path d="M31.2748 21.0095C26.2166 22.903 21.1578 22.903 16.0996 21.0095C15.0623 16.3928 14.7582 11.7761 15.1875 7.15938C15.5696 3.05107 19.3207 -0.0310574 23.8276 0.000236169C23.8786 0.000236169 23.9289 0.000826615 23.9786 0.0020075C28.2261 0.0628234 31.786 3.06937 32.1656 6.93915C32.6252 11.6291 32.3283 16.319 31.2748 21.0095Z" fill="#40596B"/>
    <path d="M39.1386 24.4872V28.1539H8.1543V24.4872C8.75462 23.4362 10.014 21.8125 12.3249 21.2103L12.3314 21.2162C12.4598 21.2457 14.0284 21.6885 16.023 22.1668C17.3792 22.4856 18.9414 22.8222 20.3737 23.0465H20.3802C21.6396 23.2473 22.8079 23.3595 23.6471 23.3123C24.4934 23.3595 25.6546 23.2473 26.9198 23.0465H26.9263C28.3599 22.8163 29.9221 22.4797 31.2834 22.1668C33.3555 21.6708 34.9693 21.2103 34.9693 21.2103H34.9764C37.2796 21.8184 38.5447 23.4421 39.1386 24.4872Z" fill="#DFDFDF"/>
    <path d="M27.7338 16.3739L27.5763 15.7734H19.714L19.5565 16.3739L19.5488 16.3874C19.5507 16.3851 19.5591 16.3733 19.5591 16.3733C19.1873 17.9025 19.6501 20.4456 20.3789 23.0447C21.6415 23.2443 22.8053 23.3618 23.6471 23.3116C24.4895 23.3618 25.6546 23.2443 26.9185 23.0441C27.646 20.4503 28.1824 18.2119 27.8151 16.6821L27.7338 16.3739Z" fill="#F8B64C"/>
    <path d="M23.6438 16.6875C23.6367 16.694 23.6289 16.694 23.6289 16.694V16.681C23.6367 16.681 23.6438 16.6875 23.6438 16.6875Z" fill="#ACB3BA"/>
    <path d="M23.6714 16.681V16.6945C23.6714 16.6945 23.6643 16.6945 23.6572 16.6875C23.6572 16.6875 23.6643 16.681 23.6714 16.681Z" fill="#ACB3BA"/>
    <g opacity="0.1">
        <mask id="mask0" mask-type="alpha" maskUnits="userSpaceOnUse" x="21" y="15" width="7" height="7">
            <path fill-rule="evenodd" clip-rule="evenodd" d="M21.7002 15.9648H27.857V21.6331H21.7002V15.9648Z" fill="white"/>
        </mask>
        <g mask="url(#mask0)">
            <path d="M21.7002 17.3928L27.2716 21.6322C27.2716 21.6322 28.3044 17.8344 27.6259 15.9669L22.1236 17.1147L21.7002 17.3928Z" fill="#40596B"/>
        </g>
    </g>
    <path d="M18.1603 9.56079C18.4159 10.5651 18.2816 11.4526 17.8582 11.5429C17.4354 11.6333 16.8841 10.8922 16.6285 9.8879C16.3729 8.88296 16.5071 7.99552 16.9312 7.90519C17.3534 7.81544 17.9047 8.55704 18.1603 9.56079Z" fill="#F8B64C"/>
    <path d="M29.1688 9.56065C28.9126 10.565 29.0475 11.4524 29.4709 11.5428C29.8937 11.6331 30.3708 10.8738 30.7006 9.88776C30.8981 9.29909 30.8078 8.09635 30.3979 7.90505C30.0112 7.72437 29.4245 8.5569 29.1688 9.56065Z" fill="#F8B64C"/>
    <path d="M29.7268 12.481C27.9484 17.6427 23.6874 18.0347 23.6874 18.0347C23.6874 18.0347 19.4252 17.6427 17.6474 12.481C17.6474 12.481 16.6953 9.78857 17.4938 7.54488C17.4938 7.54488 17.9825 3.71643 23.6881 3.71643C29.3931 3.71643 29.8811 7.54488 29.8811 7.54488C30.6783 9.78857 29.7268 12.481 29.7268 12.481Z" fill="#FFD15C"/>
    <path d="M30.016 7.99122C30.016 7.99122 27.128 11.4985 23.4564 8.14001C20.4709 5.4092 17.3467 8.04377 17.3467 8.04377L17.1562 7.59976C17.1562 4.32987 20.0539 1.67877 23.6294 1.67877C27.2049 1.67877 30.1032 4.32987 30.1032 7.59976L30.016 7.99122Z" fill="#40596B"/>
    <path d="M28.8121 24.2511L29.9165 26.849C29.9165 26.849 28.9547 27.3155 27.7341 28.1539H25.2295C28.6571 18.8674 27.7857 16.6048 27.7405 16.3864C27.7405 16.3864 28.9612 18.0632 30.0392 19.8759C30.4839 20.6139 30.9164 21.3992 31.285 22.1668C31.6407 22.899 31.924 23.6193 32.0854 24.2511H28.8121Z" fill="#FF7058"/>
    <path d="M34.9757 21.2103H34.9686C34.1036 20.9505 32.8707 20.2065 31.67 19.3799C29.76 18.0638 27.9267 16.534 27.7453 16.3864H27.7389C27.7389 16.3864 28.9595 18.0632 30.0375 19.8759C30.4823 20.6139 30.9148 21.3992 31.2834 22.1668C31.639 22.899 31.9224 23.6193 32.0838 24.2511H28.8104L29.9142 26.849C29.9142 26.849 28.9531 27.3155 27.7324 28.1539H34.1746C33.0127 25.1728 34.9757 21.2103 34.9757 21.2103Z" fill="#F1543F"/>
    <path d="M18.4876 24.2511L17.3844 26.849C17.3844 26.849 18.3456 27.3155 19.5656 28.1539H22.0708C18.6425 18.8674 19.5139 16.6048 19.5591 16.3864C19.5591 16.3864 18.3391 18.0632 17.2611 19.8759C16.8157 20.6139 16.3832 21.3992 16.0146 22.1668C15.6602 22.899 15.3762 23.6193 15.2148 24.2511H18.4876Z" fill="#FF7058"/>
    <path d="M12.3242 21.2103H12.3307C13.1957 20.9505 14.4286 20.2065 15.6286 19.3799C17.5393 18.0638 19.3731 16.534 19.5532 16.3864H19.5597C19.5597 16.3864 18.3397 18.0632 17.2617 19.8759C16.8163 20.6139 16.3838 21.3992 16.0152 22.1668C15.6608 22.899 15.3762 23.6193 15.2148 24.2511H18.4875L17.3843 26.849C17.3843 26.849 18.3455 27.3155 19.5655 28.1539H13.124C14.2859 25.1728 12.3242 21.2103 12.3242 21.2103Z" fill="#F1543F"/>
    <path d="M41.7383 24.6226H48.3972V26.3784H41.7383V24.6226Z" fill="#415A6B"/>
    <path d="M51.0125 28.6828C51.0125 27.366 49.8234 26.3783 48.5154 26.3783H41.8565C40.4296 26.3783 39.3594 27.4757 39.3594 28.6828H51.0125Z" fill="#415A6B"/>
    <path d="M0 28.3538H57.0764V33.0726H0V28.3538Z" fill="#8191A8"/>
    <rect x="4.75684" y="33.1822" width="47.5636" height="12.4005" fill="#39475A"/>
    <path d="M54.1031 10.1371H36.0289C35.3155 10.1371 34.8398 10.576 34.8398 11.2345V23.5253C34.8398 24.1837 35.3155 24.6227 36.0289 24.6227H54.222C54.9355 24.6227 55.4111 24.1837 55.4111 23.5253V11.2345C55.2922 10.576 54.8166 10.1371 54.1031 10.1371Z" fill="#415A6B"/>
    <path d="M10.0579 36.0917C10.0579 36.0917 4.69003 37.282 5.77719 39.795C5.77719 39.795 6.93231 41.7127 9.58228 39.1998C9.58228 39.1998 10.3977 37.6127 11.281 36.3562L10.0579 35.0997V36.0917Z" fill="#F8B64C"/>
    <path d="M31.4608 25.6432H11.0764C10.4649 25.6432 9.98926 26.1061 9.98926 26.7013V36.4885C9.98926 37.0837 10.4649 37.5466 11.0764 37.5466H31.257C31.3249 37.5466 31.3249 37.5466 31.3929 37.5466C32.0724 37.4804 32.616 36.9514 32.616 36.224V26.7013C32.548 26.1061 32.0724 25.6432 31.4608 25.6432Z" fill="#78D600"/>
    <path d="M11.8232 33.5128V29.6772C13.1143 29.6772 14.2014 28.6191 14.2014 27.3627H28.4705C28.4705 28.6191 29.5577 29.6772 30.8487 29.6772V33.5128C29.5577 33.5128 28.4705 34.5708 28.4705 35.8273H14.2014C14.2014 34.5708 13.1143 33.5128 11.8232 33.5128Z" fill="#F2F2F2"/>
    <path d="M15.2878 37.2819C15.2878 37.2819 16.7827 37.811 17.0545 39.2658C17.1904 39.861 16.7827 40.39 16.2391 40.5223C16.1032 40.5223 15.9673 40.5223 15.8314 40.5223C15.8314 40.5223 16.4429 42.0433 15.084 42.1094C15.084 42.1094 14.8801 42.7046 14.5404 43.1013C14.2007 43.432 13.5891 43.432 13.1814 43.1013C12.9096 42.8368 12.6378 42.44 12.502 41.8449L13.1135 38.5384L15.2878 37.2819Z" fill="#F4AA40"/>
    <path d="M12.9795 40.919C12.9795 40.919 13.8628 41.911 14.3385 42.1755C14.6102 42.3078 14.95 42.3078 15.0859 42.0432C15.0859 42.0432 13.9987 41.8448 13.3192 40.3239L12.9795 40.919Z" fill="#F2A138"/>
    <path d="M14.3383 39.0014C14.3383 39.0014 14.5422 40.2579 15.8332 40.4563C15.8332 40.4563 15.6293 40.8531 14.9498 40.5886C14.6781 40.4563 14.4063 40.2579 14.2024 39.9934C14.0665 39.795 13.8627 39.5305 13.7947 39.266C13.5229 38.7369 14.3383 39.0014 14.3383 39.0014Z" fill="#F2A138"/>
    <path d="M16.3069 35.695C16.3069 35.695 15.3556 37.745 14.3364 39.1999C14.3364 39.1999 12.5018 41.0515 11.8223 43.5644C11.8223 43.5644 11.5506 45.879 10.3954 47.8629C10.2595 48.0613 10.1916 48.2597 10.0557 48.4581H0.542969C0.542969 48.2597 0.542969 48.0613 0.542969 47.8629C0.542969 46.6725 0.678865 45.4822 0.814761 44.2919C1.01861 42.837 1.1545 40.7209 1.2904 37.5466C1.2904 37.5466 1.35835 36.6208 3.19294 35.8934L8.42494 33.0498C8.96853 32.7853 9.51211 32.653 10.1236 32.653V36.224C10.1236 36.224 7.88136 36.7531 6.59035 37.745C5.09549 38.9354 6.59035 41.1838 8.28905 40.3241C8.28905 40.3241 8.35699 40.3241 8.35699 40.2579C9.10442 39.8612 9.64801 39.266 10.0557 38.6047C10.7352 37.4805 11.9582 35.2982 12.5698 34.9014C12.5698 34.9014 13.9967 32.7853 15.5595 33.5127C17.0543 34.0417 16.3069 35.695 16.3069 35.695Z" fill="#FFD15C"/>
    <path d="M14.8129 36.6868C14.3373 36.7529 13.2501 36.0255 13.1822 35.5625C13.1142 35.0335 14.4732 33.777 14.4732 33.777L16.1039 34.9012C16.1039 34.9012 15.3565 36.6206 14.8129 36.6868Z" fill="#F2F2F2"/>
    <path d="M10.3954 47.8626C10.2595 48.061 10.1916 48.2594 10.0557 48.4578H0.542969C0.542969 48.2594 0.542969 48.061 0.542969 47.8626H10.3954Z" fill="#FCC854"/>
    <rect x="0.339844" y="48.3918" width="9.98836" height="0.991939" fill="#F2F2F2"/>
    <rect x="0.0683594" y="49.3838" width="10.5319" height="2.97585" fill="#40596B"/>
    <path d="M9.03942 51.6323C9.45221 51.6323 9.78685 51.3067 9.78685 50.9049C9.78685 50.5032 9.45221 50.1775 9.03942 50.1775C8.62663 50.1775 8.29199 50.5032 8.29199 50.9049C8.29199 51.3067 8.62663 51.6323 9.03942 51.6323Z" fill="#FF7466"/>
    <path d="M25.416 32.3883C25.8663 32.3883 26.2313 32.033 26.2313 31.5947C26.2313 31.1564 25.8663 30.8011 25.416 30.8011C24.9656 30.8011 24.6006 31.1564 24.6006 31.5947C24.6006 32.033 24.9656 32.3883 25.416 32.3883Z" fill="#78D600"/>
    <path d="M17.1923 32.3883C17.6427 32.3883 18.0077 32.033 18.0077 31.5947C18.0077 31.1564 17.6427 30.8011 17.1923 30.8011C16.742 30.8011 16.377 31.1564 16.377 31.5947C16.377 32.033 16.742 32.3883 17.1923 32.3883Z" fill="#78D600"/>
    <path d="M21.3354 34.8352C22.7239 34.8352 23.8494 33.3844 23.8494 31.5948C23.8494 29.8052 22.7239 28.3544 21.3354 28.3544C19.9469 28.3544 18.8213 29.8052 18.8213 31.5948C18.8213 33.3844 19.9469 34.8352 21.3354 34.8352Z" fill="#78D600"/>
    <path fill-rule="evenodd" clip-rule="evenodd" d="M21.065 33.4464C20.4535 33.3803 20.0458 33.1819 19.7061 32.8513L20.1137 32.2561C20.3176 32.4545 20.6573 32.6529 20.9971 32.719V31.8593C20.4535 31.727 19.774 31.5287 19.774 30.8012C19.774 30.2722 20.2496 29.8093 20.9971 29.677V29.2141H21.5407V29.7432C22.0163 29.8093 22.356 29.9415 22.6958 30.2061L22.2201 30.8012C22.041 30.6269 21.8094 30.5547 21.6176 30.4949C21.5911 30.4866 21.5654 30.4786 21.5407 30.4706V31.198C22.1522 31.3303 22.7637 31.5287 22.7637 32.3222C22.7637 32.9174 22.356 33.3803 21.5407 33.4464V33.9093H21.065V33.4464ZM21.0639 30.4044C20.7921 30.4044 20.6562 30.5366 20.6562 30.735C20.7242 30.9334 20.8601 30.9995 21.0639 31.0657V30.4044ZM21.6095 32.785V32.0576C21.8813 32.1237 22.0172 32.1898 22.0172 32.3882C22.0172 32.5866 21.8813 32.7189 21.6095 32.785Z" fill="#F2F2F2"/>
</svg>
