<svg width="144" height="99" viewBox="0 0 144 99" fill="none" xmlns="http://www.w3.org/2000/svg">
<g opacity="0.6">
<path d="M66.8377 0C62.8847 0 59.581 2.83587 58.9794 6.74355L54.9309 33.0565C54.771 34.0806 55.2937 35.0903 56.2223 35.5558L64.4506 39.6712V66.8387H69.2248V2.3871C69.2248 1.06942 68.1578 0 66.8377 0ZM64.4506 34.3312L59.9152 32.0635L63.6987 7.46684C63.7942 6.84381 64.0616 6.28761 64.4506 5.846V34.3312Z" fill="#BBDEFB"/>
<path d="M45.3541 0V14.3226H40.5799V0H35.8057V14.3226H31.0315V0H26.2573V16.7097V21.4839C26.2573 25.4321 29.4704 28.6452 33.4186 28.6452H35.8057V66.8387H40.5799V28.6452H42.967C46.9153 28.6452 50.1283 25.4321 50.1283 21.4839V16.7097V0H45.3541ZM45.3541 21.4839C45.3541 22.7992 44.2847 23.871 42.967 23.871H33.4186C32.1009 23.871 31.0315 22.7992 31.0315 21.4839V19.0968H45.3541V21.4839Z" fill="#BBDEFB"/>
<path d="M109.252 40.2321L112.627 36.8568C113.193 36.2886 113.439 35.4746 113.276 34.6893C113.117 33.9039 112.57 33.2499 111.825 32.9515L94.946 26.1984C94.0628 25.8475 93.0482 26.0528 92.3727 26.7283C91.6971 27.4039 91.4895 28.416 91.8428 29.304L98.5958 46.1832C98.8942 46.9279 99.5459 47.4722 100.334 47.6345C100.494 47.6679 100.656 47.6846 100.813 47.6846C101.441 47.6846 102.05 47.4364 102.501 46.9852L105.876 43.6099L114.317 52.0483L117.693 48.6729L109.252 40.2321ZM101.685 41.0485L98.3452 32.7008L106.693 36.0404L101.685 41.0485Z" fill="#64B5F6"/>
<path d="M95.4833 16.7097C88.9021 16.7097 83.5479 22.064 83.5479 28.6452C83.5479 32.8895 85.8323 36.8497 89.5084 38.9789L91.9003 34.8493C89.6922 33.5698 88.322 31.1922 88.322 28.6452C88.322 24.6969 91.5351 21.4839 95.4833 21.4839C98.7489 21.4839 101.599 23.6872 102.415 26.8429L107.037 25.647C105.676 20.3858 100.926 16.7097 95.4833 16.7097Z" fill="#BBDEFB"/>
<path d="M95.4834 7.16138C83.6362 7.16138 73.9995 16.8005 73.9995 28.6452C73.9995 39.4612 82.0822 48.6252 92.8003 49.962L93.3923 45.226C85.0589 44.1852 78.7737 37.0574 78.7737 28.6452C78.7737 19.4311 86.2716 11.9356 95.4834 11.9356C104.695 11.9356 112.193 19.4311 112.193 28.6452H116.967C116.967 16.8005 107.331 7.16138 95.4834 7.16138Z" fill="#E3F2FD"/>
<path d="M90.7092 54.9033H85.9351V59.6775H90.7092V54.9033Z" fill="#E3F2FD"/>
<path d="M100.258 54.9033H95.4834V59.6775H100.258V54.9033Z" fill="#E3F2FD"/>
<path d="M109.806 54.9033H105.032V59.6775H109.806V54.9033Z" fill="#BBDEFB"/>
<path d="M143.132 74.4704C142.839 73.4464 141.903 72.7422 140.838 72.7422H2.38671C1.32207 72.7422 0.386324 73.4464 0.092711 74.4704C-0.200902 75.4945 0.219227 76.5878 1.12155 77.1535L20.2183 89.089C20.4308 89.2203 20.6647 89.3206 20.9058 89.3803L38.1932 93.7033V96.6132C38.1932 97.9308 39.2602 99.0002 40.5803 99.0002H102.645C103.965 99.0002 105.032 97.9308 105.032 96.6132V93.7033L122.319 89.3803C122.563 89.3206 122.794 89.2203 123.007 89.089L142.103 77.1535C143.006 76.5878 143.426 75.4945 143.132 74.4704ZM120.796 84.84L102.065 89.5211C101.002 89.7861 100.255 90.7409 100.255 91.8366V94.2237H42.965V91.8366C42.965 90.7409 42.2178 89.7861 41.1555 89.5211L22.424 84.84L10.7081 77.5164H132.515L120.796 84.84Z" fill="#BBDEFB"/>
</g>
</svg>
