<svg width="16" height="15" viewBox="0 0 16 15" fill="none" xmlns="http://www.w3.org/2000/svg">
<path d="M15.0099 2.71552H11.1343V0H10.0481V2.71552H5.70331V3.80172H6.31159L6.52014 5.43103H2.71624C1.99628 5.4318 1.30602 5.71815 0.796928 6.22724C0.287835 6.73633 0.00149091 7.42659 0.000724172 8.14655V8.68966H9.50503V8.14655V8.14366C9.50503 7.71424 9.4051 7.30872 9.22624 6.9481L9.23348 6.96403C9.07484 6.63902 8.85341 6.34863 8.58197 6.10963C8.31053 5.87062 7.99445 5.68774 7.65197 5.57152L7.63241 5.56572L7.40648 3.80172H13.7753L12.5566 13.306H0V14.3922H13.5124L14.8702 3.80172H15.75V2.71552H15.0099ZM8.32541 7.60345H1.17962C1.29265 7.28629 1.50082 7.01176 1.77572 6.81735C2.05062 6.62294 2.37882 6.51813 2.71552 6.51724H6.78879C7.12358 6.5176 7.45016 6.62089 7.72425 6.81312C7.99835 7.00535 8.2067 7.27722 8.32107 7.59186L8.32469 7.60345H8.32541Z" fill="#9E9E9E"/>
<path d="M9.23325 10.5911H9.5048V9.50488H0.000488281V10.5911H9.23325Z" fill="#9E9E9E"/>
<path d="M9.23325 12.4925H9.5048V11.4062H0.000488281V12.4925H9.23325Z" fill="#9E9E9E"/>
</svg>
