<svg width="24" height="24" viewBox="0 0 24 24" fill="none" xmlns="http://www.w3.org/2000/svg">
    <path d="M23.093 19.5082C21.4315 18.119 16.5447 14.0214 14.3038 12.0228C15.5169 10.9109 17.2153 9.25721 18.8673 7.64805C20.7585 5.80573 22.5451 4.06593 23.3547 3.38234C23.7653 3.03616 24.0007 2.52732 24.0007 1.98632C24.0007 1.30953 23.6487 0.709421 23.0588 0.381289C22.4718 0.0551257 21.7809 0.0712042 21.2101 0.425727C19.3673 1.5688 12.0004 6.85946 12.0004 8.00009C12.0004 8.33656 11.9867 8.73234 11.8668 9.1815C11.316 8.23686 11.0004 7.37139 11.0004 7.00008C11.0004 6.28865 8.58287 3.97119 3.81469 0.111283C3.61692 -0.0493608 3.32788 -0.0347355 3.14671 0.14644L0.146647 3.1465C-0.0345291 3.32716 -0.0496701 3.61573 0.11149 3.81449C3.97145 8.58266 6.28885 11.0002 7.00029 11.0002C7.4248 11.0002 8.49202 11.4108 9.58911 12.1183C7.37211 14.0889 2.85345 17.8815 0.908944 19.5072C0.331338 19.9901 0.000252852 20.7006 0.000252852 21.4564C0.000252852 22.8593 1.1414 24.0005 2.54426 24.0005C3.29967 24.0005 4.01059 23.6689 4.4935 23.0908C6.1644 21.0933 10.072 16.4375 12.0007 14.2784C13.9909 16.5075 18.1142 21.4249 19.509 23.0927C19.9914 23.6699 20.7019 24.0005 21.4567 24.0005C22.8596 24.0005 24.0008 22.8593 24.0008 21.4564C24.0008 20.7016 23.6702 19.9911 23.093 19.5082ZM13.0005 8.08803C13.5264 7.26671 18.6891 3.16652 21.7375 1.2754C21.9953 1.11673 22.3078 1.10791 22.5725 1.25487C22.8406 1.40431 23.0007 1.67774 23.0007 1.98632C23.0007 2.23195 22.8948 2.46193 22.7097 2.61816C21.8728 3.32473 20.0739 5.07672 18.1696 6.93174C16.491 8.5671 14.7663 10.2458 13.5618 11.3459C13.4866 11.2748 13.4092 11.2018 13.354 11.1467C13.0575 10.8501 12.7912 10.5267 12.5441 10.1979C12.9543 9.33718 12.9992 8.60427 13.0005 8.08803ZM3.72642 22.4491C3.43392 22.7997 3.00275 23.0004 2.54426 23.0004C1.69266 23.0004 1.00026 22.308 1.00026 21.4564C1.00026 20.9974 1.20093 20.5667 1.55058 20.2748C3.54867 18.6036 8.25872 14.6501 10.422 12.7155C10.6724 12.9154 10.9181 13.1249 11.147 13.3537C11.1955 13.4023 11.2615 13.4726 11.3226 13.5368C9.40582 15.6765 5.42043 20.4243 3.72642 22.4491ZM21.4567 23.0004C20.9983 23.0004 20.5681 22.8002 20.276 22.4511C18.1544 19.9139 13.0869 13.8796 11.854 12.6467C10.3471 11.1398 8.0663 10.0119 7.09995 10.0119C7.09507 10.0119 7.08968 10.0124 7.08481 10.0124C6.4959 9.78339 3.67214 6.6007 1.17257 3.53468L1.50024 3.20702L6.14682 7.8536C6.24446 7.95124 6.37243 8.00009 6.50036 8.00009C6.62828 8.00009 6.75621 7.95124 6.8539 7.8536C7.04923 7.65827 7.04923 7.34186 6.8539 7.14657L2.20731 2.49999L2.50029 2.20701L7.14687 6.8536C7.24451 6.95124 7.37249 7.00008 7.50041 7.00008C7.62833 7.00008 7.75626 6.95124 7.85395 6.8536C8.04928 6.65826 8.04928 6.34185 7.85395 6.14657L3.20737 1.49998L3.53503 1.17232C6.601 3.67189 9.78322 6.49228 10.0005 7.00008C10.0005 8.04209 11.1324 10.339 12.647 11.8537C13.8799 13.0866 19.9142 18.1541 22.4514 20.2753C22.8005 20.5678 23.0007 20.998 23.0007 21.4564C23.0007 22.308 22.3083 23.0004 21.4567 23.0004Z" fill="black"/>
</svg>
