<svg width="23" height="19" viewBox="0 0 23 19" fill="none" xmlns="http://www.w3.org/2000/svg">
<path d="M7.54213 8.52216C6.6499 8.31427 5.96977 7.84692 5.4959 7.09883C5.21491 6.65562 5.05876 6.17027 5.04957 5.65176C5.03454 4.7944 5.03872 3.93664 5.04331 3.07887C5.04498 2.71588 5.32263 2.45028 5.6725 2.45315C6.02029 2.45601 6.28667 2.72447 6.29042 3.09074C6.29585 3.61498 6.2921 4.1388 6.2921 4.66304C6.2921 4.73629 6.2921 4.80914 6.2921 4.89303C6.71086 4.89303 7.11084 4.89303 7.53044 4.89303C7.5342 4.83737 7.54088 4.77885 7.54088 4.72074C7.54213 4.18996 7.54004 3.65877 7.54297 3.12798C7.54505 2.72979 7.80266 2.45478 8.16673 2.45478C8.53039 2.45438 8.79092 2.73061 8.79259 3.12635C8.79509 3.71033 8.79342 4.29472 8.79342 4.89139C9.21219 4.89139 9.61718 4.89139 10.0426 4.89139C10.0426 4.32828 10.0422 3.77213 10.043 3.21597C10.043 3.13453 10.0393 3.05146 10.0526 2.97165C10.1023 2.66882 10.375 2.44824 10.6823 2.45519C10.99 2.46215 11.2801 2.69419 11.2822 2.99907C11.2885 3.97143 11.3465 4.95237 11.2409 5.9149C11.0964 7.23224 10.2764 8.07036 8.99007 8.46773C8.9312 8.48574 8.87191 8.50211 8.79259 8.52544C8.79259 8.59787 8.79259 8.67154 8.79259 8.74479C8.79259 9.70446 8.79467 10.6641 8.79092 11.6238C8.78966 11.9287 8.61264 12.1513 8.3304 12.2307C8.07279 12.3035 7.77761 12.2045 7.64693 11.968C7.58096 11.8485 7.54714 11.6979 7.54589 11.5612C7.53754 10.6289 7.54213 9.69627 7.54255 8.76361C7.54213 8.68831 7.54213 8.61424 7.54213 8.52216ZM9.91027 6.12402C9.3174 6.12402 8.74248 6.12402 8.16757 6.12402C7.58889 6.12402 7.01022 6.12402 6.42486 6.12402C6.63404 6.82628 7.37721 7.34519 8.15588 7.35174C8.93579 7.35829 9.69233 6.83733 9.91027 6.12402Z" fill="#536DFE"/>
<path d="M13.7906 9.80534C13.7906 10.4323 13.7943 11.0302 13.7889 11.6281C13.7864 11.9313 13.6081 12.1536 13.3251 12.2321C13.0737 12.3017 12.7873 12.2088 12.6562 11.9813C12.5881 11.8634 12.5489 11.714 12.546 11.5778C12.5343 11.0065 12.541 10.4352 12.541 9.86386C12.5405 7.66707 12.5401 5.46986 12.5397 3.27307C12.5397 3.20513 12.5376 3.13679 12.541 3.06885C12.5652 2.58964 13.0274 2.30767 13.4607 2.53071C14.9613 3.30212 15.8953 4.50488 16.1967 6.14101C16.2919 6.65788 16.2727 7.19603 16.2882 7.72518C16.3019 8.20071 16.2944 8.67748 16.2898 9.15342C16.2861 9.55243 16.0314 9.80207 15.6235 9.80452C15.0214 9.8082 14.4189 9.80534 13.7906 9.80534ZM15.0394 8.57067C15.0394 8.02556 15.0469 7.49641 15.0377 6.96768C15.0243 6.1934 14.796 5.48214 14.3379 4.84905C14.1868 4.63992 14.0052 4.45208 13.8019 4.21227C13.8019 5.71131 13.8019 7.13628 13.8019 8.57067C14.2123 8.57067 14.6118 8.57067 15.0394 8.57067Z" fill="#536DFE"/>
<path d="M20.9069 16.1543L20.9023 16.1606L20.9069 16.1543Z" fill="#536DFE"/>
<path d="M21.1679 15.316C21.1674 15.1113 21.1244 14.9145 21.0472 14.7356C20.9307 14.4655 20.7365 14.2367 20.4922 14.075C20.3699 13.994 20.2346 13.9297 20.0905 13.8859C19.946 13.8417 19.7923 13.8184 19.6345 13.8184C19.4236 13.8184 19.2211 13.8605 19.0374 13.9366C18.7618 14.0508 18.5283 14.2412 18.3634 14.4806C18.2807 14.6005 18.2151 14.7327 18.1705 14.8744C18.1266 15.0131 18.1028 15.1605 18.102 15.3119C18.102 15.3119 18.1016 15.3152 18.1016 15.3217C18.1016 15.528 18.1446 15.7265 18.2222 15.9066C18.3387 16.1768 18.5329 16.4056 18.7772 16.5672C18.8996 16.6483 19.0344 16.7125 19.1789 16.7567C19.3226 16.8005 19.4758 16.8243 19.6328 16.8243H19.6337H19.6345C19.8454 16.8243 20.0479 16.7821 20.2316 16.706C20.5072 16.5918 20.7407 16.4015 20.9056 16.162C20.9883 16.0421 21.0539 15.9099 21.0985 15.7683C21.142 15.6316 21.1654 15.4867 21.167 15.3373L21.1674 15.332V15.3213L21.1679 15.316ZM19.6349 14.6889C19.7255 14.6889 19.8086 14.7065 19.8859 14.7385C20.0007 14.7859 20.1005 14.867 20.1698 14.9681C20.2045 15.0184 20.2321 15.0741 20.2509 15.133C20.2696 15.1924 20.2797 15.2546 20.2797 15.3213C20.2797 15.4101 20.2617 15.4916 20.2291 15.5673C20.1807 15.6799 20.098 15.7777 19.9949 15.8456C19.9431 15.8796 19.8867 15.9066 19.8266 15.925C19.766 15.9435 19.7026 15.9533 19.6345 15.9533C19.5439 15.9533 19.4608 15.9357 19.3835 15.9038C19.2687 15.8563 19.1689 15.7752 19.0996 15.6741C19.0649 15.6238 19.0374 15.5681 19.0186 15.5092C18.9998 15.4498 18.9898 15.3876 18.9898 15.3209C18.9898 15.2321 19.0077 15.1506 19.0403 15.0749C19.0887 14.9624 19.1714 14.8645 19.2745 14.7966C19.3259 14.7626 19.3827 14.7356 19.4428 14.7172C19.5034 14.6988 19.5673 14.6889 19.6349 14.6889Z" fill="#536DFE"/>
<path d="M22.731 14.5641C22.5786 14.4147 22.3714 14.3173 22.1422 14.3025C22.2934 14.1335 22.3706 13.9215 22.3702 13.7103C22.3702 13.4806 22.2804 13.2498 22.1021 13.0746L21.9255 12.9015C21.7534 12.7324 21.5208 12.6379 21.277 12.6383C21.0531 12.6379 20.8398 12.7181 20.6727 12.8622C20.6581 12.6379 20.5587 12.4345 20.4059 12.2851C20.2405 12.1226 20.0105 12.0215 19.7578 12.0215H19.5077C19.2551 12.0215 19.025 12.1226 18.8596 12.2851C18.7072 12.4345 18.6078 12.6375 18.5928 12.8622C18.4262 12.7185 18.2124 12.6379 17.9885 12.6383C17.7447 12.6379 17.5125 12.7324 17.3401 12.9015L17.1634 13.0746C16.9847 13.2498 16.8949 13.4806 16.8953 13.7103C16.8953 13.9215 16.9722 14.1335 17.1233 14.3025C16.8941 14.3168 16.687 14.4143 16.5345 14.5641C16.3688 14.7262 16.2656 14.9517 16.2656 15.1993V15.4445C16.2656 15.6921 16.3688 15.9176 16.5345 16.0797C16.687 16.2291 16.8941 16.3265 17.1233 16.3413C16.9768 16.5046 16.8949 16.7141 16.8949 16.9335C16.8945 17.1725 16.991 17.4001 17.1634 17.5692L17.3401 17.7423C17.5121 17.9113 17.7447 18.0059 17.9885 18.0055C18.2124 18.0059 18.4258 17.9257 18.5928 17.7816C18.6074 18.0063 18.7068 18.2093 18.8596 18.3587C19.025 18.5212 19.2551 18.6223 19.5077 18.6223H19.7578C20.0105 18.6223 20.2405 18.5212 20.4059 18.3587C20.5583 18.2093 20.6577 18.0063 20.6727 17.7816C20.8394 17.9253 21.0531 18.0055 21.277 18.0055C21.5208 18.0059 21.753 17.9113 21.9255 17.7423L22.1021 17.5692C22.2746 17.4005 22.371 17.1725 22.3706 16.9335C22.371 16.7141 22.2892 16.505 22.1422 16.3413C22.371 16.3269 22.5786 16.2295 22.731 16.0797C22.8968 15.9176 22.9999 15.6921 22.9999 15.4445V15.1993C22.9999 14.9517 22.8968 14.7262 22.731 14.5641ZM22.1414 15.5018C22.1259 15.5169 22.1059 15.5255 22.0829 15.5255H21.9572C21.6532 15.5251 21.3801 15.7056 21.264 15.9819L21.2644 15.9815L21.2628 15.9852V15.9856C21.2239 16.0777 21.2047 16.1743 21.2047 16.27C21.2047 16.4608 21.2807 16.6482 21.4235 16.7882L21.5125 16.8754C21.5288 16.8918 21.5363 16.9102 21.5367 16.9327C21.5363 16.9556 21.5288 16.974 21.5125 16.99L21.3358 17.1631C21.3191 17.1791 21.3004 17.1869 21.277 17.1869C21.2536 17.1865 21.2348 17.1791 21.2181 17.1631L21.1291 17.076C20.9863 16.936 20.7951 16.8611 20.6005 16.8615C20.5028 16.8615 20.4038 16.8803 20.3099 16.9184L20.309 16.9188L20.3044 16.9208C20.0242 17.035 19.8409 17.3019 19.8409 17.599V17.7231C19.8409 17.7456 19.8317 17.7652 19.8167 17.7804C19.8013 17.7955 19.7812 17.8041 19.7582 17.8041H19.5081C19.4847 17.8041 19.4651 17.7951 19.4497 17.7804C19.4342 17.7652 19.4254 17.7456 19.4254 17.7231V17.5994C19.4258 17.3015 19.2413 17.0338 18.9594 16.92H18.959L18.9557 16.9188L18.9565 16.9192C18.8625 16.8807 18.7636 16.8619 18.6654 16.8623C18.4709 16.8623 18.2796 16.9368 18.1368 17.0768L18.0478 17.164C18.0311 17.1799 18.0128 17.1873 17.9894 17.1877C17.966 17.1873 17.9472 17.1799 17.9305 17.164L17.7539 16.9908C17.7376 16.9744 17.7297 16.956 17.7297 16.9331C17.7301 16.9102 17.7376 16.8918 17.7539 16.8758L17.8428 16.7886C17.9856 16.6486 18.062 16.4612 18.0616 16.2704C18.0616 16.1747 18.0424 16.0777 18.0036 15.9856L18.004 15.9868L18.0023 15.9831L18.0019 15.9823C17.8858 15.7064 17.6127 15.5259 17.3087 15.5259H17.183C17.1597 15.5259 17.14 15.5169 17.1246 15.5022C17.1091 15.487 17.1004 15.4674 17.1004 15.4449V15.1997C17.1004 15.1768 17.1095 15.1576 17.1246 15.1424C17.14 15.1273 17.1601 15.1187 17.183 15.1187H17.3087C17.4603 15.1187 17.6052 15.0736 17.7259 14.9938C17.8466 14.914 17.9439 14.7994 18.0019 14.6615L18.0023 14.6607L18.0036 14.6578L18.0032 14.659C18.0424 14.5669 18.0616 14.4699 18.0612 14.3742C18.0612 14.1834 17.9852 13.996 17.8424 13.856L17.7535 13.7688C17.7372 13.7528 17.7297 13.7328 17.7292 13.7115C17.7292 13.6898 17.7372 13.6702 17.7535 13.6542L17.9301 13.4811C17.9468 13.4651 17.9656 13.4573 17.989 13.4573C18.0124 13.4577 18.0311 13.4651 18.0474 13.4811L18.1364 13.5682C18.2792 13.7082 18.4704 13.7831 18.665 13.7827C18.7627 13.7827 18.8617 13.7639 18.9561 13.7258L18.9598 13.7242L18.959 13.7246C19.2404 13.6108 19.425 13.3435 19.4246 13.0451V12.9219C19.4246 12.899 19.4338 12.8798 19.4488 12.8646C19.4643 12.8495 19.4843 12.8409 19.5073 12.8409H19.7574C19.7804 12.8409 19.8004 12.8499 19.8159 12.8646C19.8313 12.8798 19.8401 12.8994 19.8401 12.9219V13.0451C19.8397 13.3431 20.0242 13.6108 20.3061 13.7246L20.3078 13.7254L20.3094 13.7258C20.4034 13.7643 20.5024 13.7827 20.6001 13.7827C20.7947 13.7827 20.9859 13.7082 21.1287 13.5682L21.2177 13.4811C21.2344 13.4651 21.2532 13.4577 21.2766 13.4573C21.2999 13.4577 21.3187 13.4651 21.335 13.4811L21.5116 13.6542C21.5279 13.6702 21.5355 13.6902 21.5359 13.7115C21.5359 13.7332 21.5279 13.7528 21.5116 13.7692L21.4227 13.8564C21.2795 13.9968 21.2035 14.1842 21.2035 14.3746C21.2035 14.4703 21.2227 14.5669 21.2615 14.6586L21.2632 14.6627C21.3793 14.9386 21.6524 15.1191 21.9564 15.1191H22.0821C22.105 15.1191 22.1251 15.1281 22.1405 15.1428C22.156 15.158 22.1647 15.1776 22.1647 15.2001V15.4453C22.166 15.467 22.1568 15.4862 22.1414 15.5018Z" fill="#536DFE"/>
<path d="M17.854 16.7773L17.8442 16.7876H17.8438L17.854 16.7773Z" fill="#536DFE"/>
<path d="M16.6121 17.1219C16.6117 16.8649 16.7152 16.6206 16.9006 16.4393L16.9181 16.4221H16.8935C16.6221 16.4221 16.3753 16.3137 16.1975 16.1389C16.134 16.0767 16.0793 16.0059 16.0351 15.9286C11.7735 15.9298 7.51234 15.9302 3.25077 15.9298C2.35061 15.9298 1.63874 15.4702 1.38072 14.7099C6.26773 14.7099 11.1464 14.7099 16.0359 14.7099C16.0802 14.6329 16.1344 14.5626 16.1979 14.5008C16.3758 14.3264 16.6229 14.2176 16.8939 14.2176H16.9185L16.901 14.2004C16.7089 14.0125 16.6129 13.7645 16.6129 13.5178C16.6129 13.5026 16.6146 13.4875 16.615 13.4723C11.9096 13.4723 7.21716 13.4723 2.51218 13.4723C2.50843 13.4126 2.50133 13.3541 2.50133 13.2956C2.50091 9.52564 2.50091 5.75573 2.50133 1.98541C2.50133 1.45013 2.72679 1.22791 3.27039 1.22791C8.19957 1.22791 13.1292 1.22791 18.0583 1.22791C18.6149 1.22791 18.8349 1.44644 18.8349 1.9981C18.8349 5.30434 18.8349 8.61058 18.8349 11.9168C19.009 11.763 19.2407 11.6684 19.4933 11.6684H19.7731C19.882 11.6684 19.9868 11.686 20.085 11.7183C20.085 8.46162 20.0858 5.20449 20.0841 1.94776C20.0837 0.810485 19.2958 0.00469365 18.1577 0.00346593C13.1642 -0.00185418 8.17076 -0.00185418 3.1777 0.00919528C2.8892 0.0100138 2.57732 0.0787659 2.31679 0.199901C1.56902 0.547345 1.24962 1.17103 1.24962 1.96822C1.25046 5.7189 1.25004 9.46998 1.25004 13.2207C1.25004 13.3005 1.25004 13.3803 1.25004 13.4818C0.768644 13.4875 0.247169 13.3631 0 13.9291C0 14.0923 0 14.2556 0 14.4193C0.0530243 14.6293 0.0914357 14.8441 0.161578 15.0483C0.606231 16.3415 1.77151 17.1539 3.18772 17.1551C6.63222 17.158 10.0771 17.1571 13.5216 17.1567C14.5521 17.1567 15.5825 17.1637 16.6129 17.1612C16.6125 17.1485 16.6121 17.1354 16.6121 17.1219Z" fill="#536DFE"/>
</svg>
