<svg width="17" height="17" viewBox="0 0 17 17" fill="none" xmlns="http://www.w3.org/2000/svg">
    <path d="M17 10.9952C17 14.3129 14.3129 17 10.9952 17H6.00484C2.6871 17 0 14.3129 0 10.9952V6.00484C0 2.6871 2.6871 0 6.00484 0H10.9952C14.3129 0 17 2.6871 17 6.00484V10.9952Z" fill="#00A6F9"/>
    <path d="M0 6.00484C0 2.6871 2.6871 0 6.00484 0H10.9952C14.3129 0 17 2.6871 17 6.00484V10.9952C17 14.3129 14.3129 17 10.9952 17" fill="#0097F4"/>
    <path d="M10.9951 0C14.3129 0 17 2.6871 17 6.00484V10.9952C17 14.3129 14.3129 17 10.9951 17" fill="#008BF2"/>
    <path d="M5.73063 6.58064H11.2693C11.4887 6.58064 11.6806 6.3887 11.6806 6.16935C11.6806 5.94999 11.4887 5.75806 11.2693 5.75806H5.73063C5.51127 5.75806 5.31934 5.94999 5.31934 6.16935C5.34676 6.3887 5.51127 6.58064 5.73063 6.58064Z" fill="#008BF2"/>
    <path d="M11.2693 8.5H5.73063C5.51127 8.5 5.31934 8.69194 5.31934 8.91129C5.31934 9.13065 5.51127 9.32258 5.73063 9.32258H11.2693C11.4887 9.32258 11.6806 9.13065 11.6806 8.91129C11.6806 8.69194 11.4887 8.5 11.2693 8.5Z" fill="#008BF2"/>
    <path d="M11.2693 11.5161H5.73063C5.51127 11.5161 5.31934 11.708 5.31934 11.9274C5.31934 12.1467 5.51127 12.3387 5.73063 12.3387H11.2693C11.4887 12.3387 11.6806 12.1467 11.6806 11.9274C11.6532 11.708 11.4887 11.5161 11.2693 11.5161Z" fill="#008BF2"/>
    <path d="M5.73063 6.03227H11.2693C11.4887 6.03227 11.6806 5.84033 11.6806 5.62098C11.6806 5.40162 11.4887 5.20969 11.2693 5.20969H5.73063C5.51127 5.20969 5.31934 5.40162 5.31934 5.62098C5.34676 5.84033 5.51127 6.03227 5.73063 6.03227Z" fill="white"/>
    <path d="M5.73063 8.77418H11.2693C11.4887 8.77418 11.6806 8.58224 11.6806 8.36289C11.6806 8.14353 11.4887 7.9516 11.2693 7.9516H5.73063C5.51127 7.9516 5.31934 8.14353 5.31934 8.36289C5.34676 8.58224 5.51127 8.77418 5.73063 8.77418Z" fill="white"/>
    <path d="M11.2693 10.9677H5.73063C5.51127 10.9677 5.31934 11.1596 5.31934 11.379C5.31934 11.5983 5.51127 11.7903 5.73063 11.7903H11.2693C11.4887 11.7903 11.6806 11.5983 11.6806 11.379C11.6532 11.1596 11.4887 10.9677 11.2693 10.9677Z" fill="white"/>
</svg>
