<svg width="22" height="22" viewBox="0 0 22 22" fill="none" xmlns="http://www.w3.org/2000/svg">
<path d="M16.7393 7.85211V8.88723C16.7393 9.24988 16.4832 9.56227 16.1279 9.63316L14.2308 10.0126C14.0989 10.4848 13.9116 10.9334 13.6761 11.3515L14.7495 12.9615C14.9505 13.2632 14.911 13.6654 14.6545 13.9214L13.9227 14.6532C13.6662 14.9097 13.2645 14.9493 12.9628 14.7482L11.3528 13.6748C10.9347 13.9103 10.4857 14.0976 10.0139 14.2295L9.63445 16.1266C9.56355 16.4824 9.25117 16.738 8.88852 16.738H7.8534C7.49074 16.738 7.17836 16.482 7.10746 16.1266L6.72805 14.2295C6.25582 14.0976 5.80723 13.9103 5.38914 13.6748L3.7791 14.7482C3.47746 14.9493 3.07527 14.9097 2.81918 14.6532L2.08527 13.9219C1.82875 13.6654 1.78922 13.2636 1.99031 12.962L3.06367 11.3519C2.8282 10.9338 2.64086 10.4848 2.50895 10.013L0.611875 9.63359C0.256094 9.56227 0 9.24988 0 8.88723V7.85211C0 7.48945 0.256094 7.17707 0.611445 7.10617L2.50852 6.72676C2.64043 6.25453 2.82777 5.80594 3.06324 5.38785L1.99031 3.77738C1.78922 3.47574 1.82875 3.07355 2.08527 2.81746L2.81703 2.0857C3.07355 1.82918 3.47531 1.78965 3.77695 1.99074L5.38699 3.0641C5.80508 2.82863 6.2541 2.64129 6.7259 2.50938L7.10531 0.612305C7.17707 0.256094 7.48945 0 7.85211 0H8.88723C9.24988 0 9.56227 0.256094 9.63316 0.611445L10.0126 2.50852C10.4848 2.64043 10.9334 2.82777 11.3515 3.06324L12.9615 1.98988C13.2632 1.78879 13.6654 1.82832 13.9214 2.08484L14.6532 2.8166C14.9097 3.07313 14.9493 3.47488 14.7482 3.77652L13.6748 5.38656C13.9103 5.80465 14.0976 6.25367 14.2295 6.72547L16.1266 7.10488C16.4832 7.17707 16.7393 7.48945 16.7393 7.85211Z" fill="#BFBFBF"/>
<path d="M12.0431 8.36969C12.0431 10.3982 10.3987 12.0431 8.36969 12.0431C6.3407 12.0431 4.69629 10.3987 4.69629 8.36969C4.69629 6.3407 6.3407 4.69629 8.36969 4.69629C10.3987 4.69629 12.0431 6.34113 12.0431 8.36969Z" fill="#E2E2E2"/>
<path d="M10.1962 8.36957C10.1962 9.37848 9.37848 10.1962 8.36957 10.1962C7.36066 10.1962 6.54297 9.37848 6.54297 8.36957C6.54297 7.36066 7.36066 6.54297 8.36957 6.54297C9.37848 6.54297 10.1962 7.36066 10.1962 8.36957Z" fill="#6D6D6D"/>
<path d="M9.08672 8.36957C9.08672 9.18512 8.55219 9.8752 7.81484 10.1102C7.07707 9.87562 6.54297 9.18512 6.54297 8.36957C6.54297 7.55402 7.0775 6.86395 7.81484 6.62891C8.55219 6.86395 9.08672 7.55402 9.08672 8.36957Z" fill="#999999"/>
<path d="M22.0003 16.1597V16.8399C22.0003 17.0784 21.8318 17.2833 21.5985 17.3302L20.3515 17.5794C20.2647 17.8896 20.1419 18.1844 19.9867 18.4594L20.6923 19.5173C20.8246 19.7158 20.7984 19.9796 20.63 20.148L20.1492 20.6289C19.9807 20.7973 19.7165 20.8235 19.5184 20.6912L18.4605 19.9856C18.1855 20.1403 17.8907 20.2636 17.5805 20.3504L17.3313 21.597C17.2844 21.8307 17.0795 21.9987 16.841 21.9987H16.1608C15.9223 21.9987 15.7174 21.8303 15.6705 21.597L15.4213 20.35C15.1111 20.2632 14.8163 20.1403 14.5413 19.9852L13.4834 20.6907C13.2849 20.8231 13.0211 20.7969 12.8526 20.6284L12.3718 20.1476C12.2034 19.9792 12.1772 19.7149 12.3095 19.5168L13.015 18.4589C12.8604 18.1839 12.737 17.8892 12.6502 17.5789L11.4037 17.3297C11.17 17.2829 11.002 17.0779 11.002 16.8395V16.1593C11.002 15.9208 11.1704 15.7158 11.4037 15.669L12.6507 15.4198C12.7375 15.1095 12.8604 14.8148 13.0155 14.5398L12.3099 13.4819C12.1776 13.2838 12.2038 13.0195 12.3722 12.8511L12.853 12.3703C13.0215 12.2018 13.2857 12.1756 13.4838 12.308L14.5417 13.0135C14.8167 12.8588 15.1115 12.7355 15.4217 12.6487L15.6709 11.4018C15.7178 11.168 15.9227 11 16.1612 11H16.8414C17.0799 11 17.2849 11.1684 17.3317 11.4018L17.5809 12.6487C17.8911 12.7355 18.1859 12.8584 18.4609 13.0135L19.5188 12.308C19.7173 12.1756 19.9811 12.2018 20.1496 12.3703L20.6304 12.8511C20.7988 13.0195 20.8251 13.2838 20.6927 13.4819L19.9872 14.5398C20.1419 14.8148 20.2652 15.1095 20.352 15.4198L21.5985 15.669C21.8318 15.7162 22.0003 15.9216 22.0003 16.1597Z" fill="#5D7EAC"/>
<path d="M19.25 16.5C19.25 18.0189 18.0189 19.25 16.5 19.25C14.9811 19.25 13.75 18.0189 13.75 16.5C13.75 14.9811 14.9811 13.75 16.5 13.75C18.0189 13.75 19.25 14.9811 19.25 16.5Z" fill="#ABC5FF"/>
<path d="M18.1506 16.5001C18.1506 17.4115 17.412 18.1501 16.5006 18.1501C15.5892 18.1501 14.8506 17.4115 14.8506 16.5001C14.8506 15.5887 15.5892 14.8501 16.5006 14.8501C17.412 14.8501 18.1506 15.5887 18.1506 16.5001Z" fill="#5D7EAC"/>
<path d="M17.0506 16.5002C17.0506 17.2187 16.5913 17.8293 15.9506 18.0561C15.3099 17.8297 14.8506 17.2187 14.8506 16.5002C14.8506 15.7818 15.3099 15.1712 15.9506 14.9443C16.5913 15.1712 17.0506 15.7818 17.0506 16.5002Z" fill="#809DED"/>
</svg>
