<svg width="17" height="18" viewBox="0 0 17 18" fill="none" xmlns="http://www.w3.org/2000/svg">
<path d="M6.99881 -0.00043287C7.33107 -0.00043287 7.66333 -0.00043287 7.99559 -0.00043287C7.99559 0.670989 7.99559 1.34274 7.99559 2.01416C8.33817 2.01416 8.66011 2.01416 8.99237 2.01416C8.99237 1.33475 8.99237 0.666994 8.99237 -0.00043287C9.32464 -0.00043287 9.6569 -0.00043287 9.98916 -0.00043287C9.98916 0.671321 9.98916 1.34308 9.98916 2.0145C10.3324 2.0145 10.6547 2.0145 10.9859 2.0145C10.9859 1.33509 10.9859 0.667327 10.9859 -0.00043287C11.3182 -0.00043287 11.6505 -0.00043287 11.9827 -0.00043287C11.9827 0.671654 11.9827 1.34374 11.9827 2.02615C12.5261 2.02615 13.0454 2.02315 13.5645 2.02948C13.6327 2.03048 13.7176 2.06077 13.7655 2.10737C14.1457 2.47787 14.5213 2.85302 14.8918 3.23351C14.9384 3.28144 14.9691 3.36633 14.9701 3.43457C14.9771 3.9046 14.9741 4.37463 14.9747 4.84465C14.9747 4.89791 14.9797 4.95118 14.9827 5.01609C15.6639 5.01609 16.3321 5.01609 17.0003 5.01609C17.0003 5.3483 17.0003 5.68052 17.0003 6.01273C16.3284 6.01273 15.6566 6.01273 14.9851 6.01273C14.9851 6.35593 14.9851 6.67816 14.9851 7.00938C15.6646 7.00938 16.3324 7.00938 17.0003 7.00938C17.0003 7.3416 17.0003 7.67381 17.0003 8.00603C16.3287 8.00603 15.6572 8.00603 14.9854 8.00603C14.9854 8.35023 14.9854 8.67245 14.9854 9.00267C15.6649 9.00267 16.3327 9.00267 17.0003 9.00267C17.0003 9.33489 17.0003 9.6671 17.0003 9.99932C16.3287 9.99932 15.6569 9.99932 14.9854 9.99932C14.9854 10.3419 14.9854 10.6637 14.9854 10.996C15.6649 10.996 16.3327 10.996 17.0003 10.996C17.0003 11.3282 17.0003 11.6604 17.0003 11.9926C16.3274 11.9926 15.6546 11.9926 14.9734 11.9926C14.9734 12.5309 14.9771 13.0452 14.9694 13.5595C14.9681 13.637 14.9318 13.7329 14.8785 13.7882C14.5166 14.162 14.1481 14.5298 13.7749 14.8923C13.7233 14.9426 13.6334 14.9776 13.5608 14.9786C13.0957 14.9862 12.6306 14.9826 12.1655 14.9826C12.1072 14.9826 12.049 14.9826 11.9787 14.9826C11.9787 15.6693 11.9787 16.3317 11.9787 16.9985C11.6435 16.9985 11.3205 16.9985 10.9786 16.9985C10.9786 16.3217 10.9786 15.6556 10.9786 14.9922C10.6404 14.9922 10.3214 14.9922 9.9845 14.9922C9.9845 15.668 9.9845 16.3344 9.9845 17.0011C9.64724 17.0011 9.32796 17.0011 8.99104 17.0011C8.99104 16.3271 8.99104 15.661 8.99104 14.9955C8.64979 14.9955 8.32685 14.9955 7.99126 14.9955C7.99126 15.6706 7.99126 16.3327 7.99126 16.9981C7.65501 16.9981 7.33207 16.9981 6.99115 16.9981C6.99115 16.3207 6.99115 15.6543 6.99115 14.9922C6.6539 14.9922 6.33462 14.9922 5.9977 14.9922C5.9977 15.668 5.9977 16.334 5.9977 16.9955C5.65645 16.9955 5.33351 16.9955 4.99759 16.9955C4.99759 16.3197 4.99759 15.6573 4.99759 14.9826C4.47023 14.9826 3.95619 14.9869 3.44249 14.9779C3.36058 14.9766 3.26071 14.9339 3.20178 14.8767C2.83156 14.5192 2.46768 14.1543 2.10878 13.7852C2.05818 13.7332 2.02055 13.6447 2.01956 13.5721C2.01123 13.1071 2.01489 12.6421 2.01456 12.177C2.01456 12.1188 2.01456 12.0602 2.01456 11.9889C1.32873 11.9889 0.666542 11.9889 -0.000976562 11.9889C-0.000976562 11.6527 -0.000976562 11.3298 -0.000976562 10.989C0.675531 10.989 1.34205 10.989 2.0069 10.989C2.0069 10.6518 2.0069 10.3329 2.0069 9.99566C1.33206 9.99566 0.665543 9.99566 0.00168685 9.99566C0.00168685 9.65445 0.00168685 9.33123 0.00168685 8.99568C0.676862 8.99568 1.33905 8.99568 2.00358 8.99568C2.00358 8.65947 2.00358 8.33658 2.00358 8.0017C1.3294 8.0017 0.666875 8.0017 -0.000976562 8.0017C-0.000976562 7.66649 -0.000976562 7.34359 -0.000976562 7.00239C0.675531 7.00239 1.34205 7.00239 2.00624 7.00239C2.00624 6.66518 2.00624 6.34628 2.00624 6.00841C1.33073 6.00841 0.664211 6.00841 0.0023527 6.00841C0.0023527 5.6662 0.0023527 5.34298 0.0023527 5.00843C0.678194 5.00843 1.34072 5.00843 2.01556 5.00843C2.01556 4.47682 2.01223 3.95752 2.01956 3.43823C2.02055 3.36566 2.05585 3.27612 2.10612 3.22419C2.46867 2.85103 2.83656 2.48253 3.21044 2.12069C3.2657 2.06743 3.36125 2.03081 3.43882 2.02948C3.87063 2.02082 4.30243 2.02548 4.73457 2.02548C4.82114 2.02548 4.9077 2.02548 5.00624 2.02548C5.00624 1.33675 5.00624 0.66766 5.00624 -0.00109863C5.3385 -0.00109863 5.67076 -0.00109863 6.00302 -0.00109863C6.00302 0.670323 6.00302 1.34174 6.00302 2.0135C6.34727 2.0135 6.66954 2.0135 6.99981 2.0135C6.99881 1.33475 6.99881 0.666994 6.99881 -0.00043287ZM7.98827 5.00876C7.98827 4.66956 7.98827 4.35066 7.98827 4.03209C6.65623 4.03209 5.33684 4.03209 4.01678 4.03209C4.01678 5.36029 4.01678 6.6755 4.01678 8.00902C4.34805 8.00902 4.67132 8.00902 4.99326 8.00902C4.99326 8.35023 4.99326 8.67345 4.99326 9.00766C4.66166 9.00766 4.34239 9.00766 4.01945 9.00766C4.01945 10.3389 4.01945 11.6581 4.01945 12.9763C5.35016 12.9763 6.66954 12.9763 8.00092 12.9763C8.00092 12.6444 8.00092 12.3252 8.00092 12.0029C8.33584 12.0029 8.65878 12.0029 8.9997 12.0029C8.9997 12.3371 8.9997 12.6604 8.9997 12.9796C10.3334 12.9796 11.6491 12.9796 12.9679 12.9796C12.9679 11.6504 12.9679 10.3312 12.9679 8.99368C12.6333 8.99368 12.31 8.99368 11.9914 8.99368C11.9914 8.65648 11.9914 8.33724 11.9914 8.0007C12.324 8.0007 12.6472 8.0007 12.9652 8.0007C12.9652 6.66352 12.9652 5.34431 12.9652 4.02909C11.6355 4.02909 10.3198 4.02909 8.98671 4.02909C8.98671 4.36198 8.98671 4.6852 8.98671 5.00843C8.65013 5.00876 8.33118 5.00876 7.98827 5.00876Z" fill="#1D1D26"/>
</svg>
