<svg width="22" height="22" viewBox="0 0 22 22" fill="none" xmlns="http://www.w3.org/2000/svg">
    <path d="M22 19.5556V2.44444C22 1.1 20.9 0 19.5556 0H2.44444C1.1 0 0 1.1 0 2.44444V19.5556C0 20.9 1.1 22 2.44444 22H19.5556C20.9 22 22 20.9 22 19.5556ZM7.21111 13.42L9.77778 16.5122L13.5667 11.6356C13.8111 11.3178 14.3 11.3178 14.5444 11.6478L18.8344 17.3678C18.9025 17.4586 18.944 17.5665 18.9542 17.6796C18.9644 17.7926 18.9429 17.9062 18.8922 18.0077C18.8414 18.1092 18.7634 18.1946 18.6668 18.2543C18.5703 18.314 18.459 18.3456 18.3456 18.3456H3.69111C3.17778 18.3456 2.89667 17.7589 3.21444 17.3556L6.25778 13.4444C6.49 13.1267 6.95444 13.1144 7.21111 13.42Z" fill="#9E9E9E"/>
</svg>
