<svg width="20" height="20" viewBox="0 0 20 20" fill="none" xmlns="http://www.w3.org/2000/svg">
<path d="M20 4.82755V13.1034H3.44824V4.82755C3.44824 4.06591 4.06591 3.44824 4.82755 3.44824H18.6207C19.3823 3.44824 20 4.06591 20 4.82755Z" fill="#3D9AE2"/>
<path d="M11.0344 3.44824V10.3448C11.0332 10.7254 10.7254 11.0332 10.3448 11.0344H3.44824V4.82755C3.44824 4.06591 4.06591 3.44824 4.82755 3.44824H11.0344Z" fill="#1E81CE"/>
<path d="M15.1721 18.6206C15.5519 18.6236 15.8588 18.9305 15.8618 19.3103C15.8605 19.6909 15.5527 19.9986 15.1721 19.9999H8.27559C7.89585 19.9969 7.58895 19.69 7.58594 19.3103C7.58723 18.9297 7.89499 18.6219 8.27559 18.6206H15.1721Z" fill="#898890"/>
<path d="M14.4831 18.6204H8.96582L9.31065 15.8618H14.1382L14.4831 18.6204Z" fill="#ACABB1"/>
<path d="M20 13.1035V14.4828C20 15.2445 19.3823 15.8621 18.6207 15.8621H4.82755C4.06591 15.8621 3.44824 15.2445 3.44824 14.4828V13.1035H20Z" fill="#C6C5CA"/>
<path d="M10.3448 2.06885V9.65507C10.3435 10.0357 10.0358 10.3434 9.65518 10.3447H0.689656C0.309052 10.3434 0.0012931 10.0357 0 9.65507V2.06885H10.3448Z" fill="#5AAAE7"/>
<path d="M0.689656 0H9.65518C10.0358 0.0012931 10.3435 0.309052 10.3448 0.689655V2.06897H0V0.689655C0.0012931 0.309052 0.309052 0.0012931 0.689656 0Z" fill="#FF5023"/>
<path d="M14.2236 16.5515H9.22363L9.30984 15.8618H14.1374L14.2236 16.5515Z" fill="#898890"/>
<path d="M17.5859 14.1382H18.2756V14.8278H17.5859V14.1382Z" fill="#898890"/>
<path d="M1.03418 0.689453H1.72383V1.37911H1.03418V0.689453Z" fill="#ED1C24"/>
<path d="M2.41406 0.689453H3.10372V1.37911H2.41406V0.689453Z" fill="#ED1C24"/>
<path d="M3.79297 0.689453H4.48262V1.37911H3.79297V0.689453Z" fill="#ED1C24"/>
<path d="M3.10352 6.55176H3.79317V8.62072H3.10352V6.55176Z" fill="#ED1C24"/>
<path d="M4.48242 5.17236H5.17208V8.62063H4.48242V5.17236Z" fill="#FFD422"/>
<path d="M5.8623 3.79297H6.55196V8.62055H5.8623V3.79297Z" fill="#00CCB3"/>
<path d="M7.24121 5.86182H7.93087V8.62044H7.24121V5.86182Z" fill="#FF9811"/>
<path d="M1.03418 3.44824H3.10314V4.1379H1.03418V3.44824Z" fill="#1E81CE"/>
<path d="M1.03418 4.82764H3.10314V5.51729H1.03418V4.82764Z" fill="#1E81CE"/>
<path d="M12.4131 5.17236H13.1027V5.86201H12.4131V5.17236Z" fill="#1E81CE"/>
<path d="M13.793 5.17236H17.9309V5.86201H13.793V5.17236Z" fill="#1E81CE"/>
<path d="M12.4131 6.55176H17.9303V7.24141H12.4131V6.55176Z" fill="#1E81CE"/>
<path d="M12.4131 7.93115H17.9303V8.62081H12.4131V7.93115Z" fill="#1E81CE"/>
<path d="M12.4131 9.31006H16.551V9.99971H12.4131V9.31006Z" fill="#1E81CE"/>
<path d="M17.2412 9.31006H17.9309V9.99971H17.2412V9.31006Z" fill="#1E81CE"/>
<path d="M2.41309 8.27588H8.61998V8.96553H2.41309V8.27588Z" fill="#1E81CE"/>
</svg>
