<svg width="24" height="18" viewBox="0 0 24 18" fill="none" xmlns="http://www.w3.org/2000/svg">
    <rect x="2.70312" y="10.1973" width="5.40591" height="1.0439" fill="#FFD15C"/>
    <path d="M1.80472 12.807C1.46491 12.807 1.17365 12.4752 1.22219 12.1433C1.80472 8.16108 0.0571324 4.27365 0.0571324 4.22624C-0.0885003 3.9418 0.0571324 3.60994 0.348398 3.46772C0.639663 3.3255 0.979472 3.46772 1.12511 3.75217C1.22219 3.89439 2.82415 7.54478 2.48434 11.6218H8.06693C8.40674 11.6218 8.64946 11.9063 8.64946 12.1907C8.64946 12.5226 8.35819 12.7596 8.06693 12.7596L1.80472 12.807Z" fill="#40596B"/>
    <path d="M2.02873 17.4801C1.69805 17.3853 1.55632 17.0534 1.6508 16.769L3.20975 11.6492C3.30423 11.3173 3.63492 11.1751 3.91837 11.2699C4.24905 11.3647 4.39077 11.6966 4.29629 11.981L2.73734 17.0534C2.64286 17.3853 2.35942 17.5749 2.02873 17.4801Z" fill="#40596B"/>
    <path d="M7.53568 17.0788L5.97192 11.9746C5.87715 11.691 6.06669 11.3602 6.35101 11.2657C6.68272 11.1712 6.96704 11.3602 7.06181 11.6438L8.62557 16.7479C8.72034 17.0788 8.5308 17.3623 8.24648 17.4569C7.96216 17.5986 7.63045 17.4096 7.53568 17.0788Z" fill="#40596B"/>
    <path d="M2.16211 14.3728H7.56802V15.4167H2.16211V14.3728Z" fill="#40596B"/>
    <rect x="10.8115" y="8.1095" width="1.62177" height="8.87315" fill="#40596B"/>
    <rect x="19.4609" y="8.1095" width="1.62178" height="8.87315" fill="#40596B"/>
    <path d="M22.4885 7.58746H9.45168C9.0004 7.58746 8.64941 7.81582 8.64941 8.10941C8.64941 8.40301 9.0004 8.63136 9.45168 8.63136H22.4383C22.8896 8.63136 23.2406 8.40301 23.2406 8.10941C23.2907 7.84844 22.9397 7.58746 22.4885 7.58746Z" fill="#40596B"/>
    <path d="M14.5477 11.7631L11.3525 7.58746H21.0832L14.5477 11.7631Z" fill="#42C8F3"/>
    <path d="M20.5429 7.58746H19.7286L15.6091 10.1346L13.5494 7.58746H12.9746L15.5133 10.7192L20.5429 7.58746Z" fill="#F2F2F2"/>
    <path d="M18.3804 8.3512C20.7689 8.3512 22.7051 6.48172 22.7051 4.1756C22.7051 1.86948 20.7689 0 18.3804 0C15.9919 0 14.0557 1.86948 14.0557 4.1756C14.0557 6.48172 15.9919 8.3512 18.3804 8.3512Z" fill="#61DC00"/>
    <path d="M20.4638 3.41636H19.1663V2.16368C19.1663 1.74612 18.8125 1.44244 18.4193 1.44244C17.9869 1.44244 17.6723 1.78408 17.6723 2.16368V3.41636H16.3749C15.9425 3.41636 15.6279 3.758 15.6279 4.1376C15.6279 4.55516 15.9818 4.85884 16.3749 4.85884H17.5937V6.11153C17.5937 6.52909 17.9476 6.83277 18.3407 6.83277C18.7732 6.83277 19.0877 6.49113 19.0877 6.11153V4.85884H20.3851C20.8176 4.85884 21.1321 4.5172 21.1321 4.1376C21.2108 3.758 20.8569 3.41636 20.4638 3.41636Z" fill="white"/>
</svg>
