<svg width="23" height="23" viewBox="0 0 23 23" fill="none" xmlns="http://www.w3.org/2000/svg">
<path d="M22.575 12.9413H21.3114V11.6159C21.3114 6.92269 17.9144 3.0135 13.4124 2.13735V1.88344C13.4124 0.842665 12.5568 0.00279028 11.5 0C10.4432 0 9.59042 0.842665 9.58758 1.88344V2.14015C5.08561 3.01629 1.68859 6.92548 1.68859 11.6187V12.9441H0.424982C0.189825 12.9441 0 13.1311 0 13.3627C0 13.5942 0.189825 13.7812 0.424982 13.7812H22.575C22.8102 13.7812 23 13.5942 23 13.3627C23 13.1283 22.8102 12.9413 22.575 12.9413ZM10.1542 1.88344C10.1542 1.51791 10.3044 1.18866 10.548 0.945905C10.7945 0.705941 11.1288 0.558056 11.5 0.558056C11.8712 0.558056 12.2055 0.705941 12.452 0.945905C12.6956 1.18587 12.8458 1.51512 12.8458 1.88344V2.04807C12.4066 1.98947 11.9561 1.95599 11.5 1.95599C11.0439 1.95599 10.5962 1.98947 10.1542 2.04807V1.88344ZM5.16494 5.37687C6.78837 3.77804 9.02661 2.79307 11.5 2.79307C13.9762 2.79307 16.2145 3.78083 17.8351 5.37687C19.4585 6.9757 20.4586 9.18002 20.4586 11.6187V12.9441H2.53856V11.6187C2.53856 9.18002 3.54151 6.9757 5.16494 5.37687Z" fill="white"/>
<path d="M5.03198 16.485H5.86211V22.1855H4.93565V18.6475L3.40005 22.1855H2.70591L1.16181 18.6865V22.1855H0.235352V16.485H1.06548L3.05723 20.9439L5.03198 16.485Z" fill="white"/>
<path d="M7.12891 22.1855V16.485H10.9991V17.3025H8.1517V18.879H10.8262V19.6966H8.1517V21.3708H10.9962V22.1883H7.12891V22.1855Z" fill="white"/>
<path d="M15.8577 16.485H16.8408V22.1855H16.0617L12.9395 18.1926V22.1883H11.9648V16.485H12.744L15.8577 20.4723V16.485Z" fill="white"/>
<path d="M18.6822 21.6526C18.2742 21.2508 18.0674 20.6592 18.0674 19.8808V16.485H19.0987V19.9338C19.0987 20.4249 19.2148 20.796 19.4472 21.0499C19.6795 21.3038 20.028 21.4294 20.4869 21.4294C20.9374 21.4294 21.2802 21.301 21.5154 21.0443C21.7506 20.7876 21.8695 20.4165 21.8695 19.931V16.485H22.9008V19.878C22.9008 20.6509 22.694 21.2424 22.2832 21.647C21.8724 22.0516 21.2717 22.2553 20.4869 22.2553C19.6936 22.2581 19.0902 22.0572 18.6822 21.6526Z" fill="white"/>
</svg>
