<svg width="11" height="16" viewBox="0 0 11 16" fill="none" xmlns="http://www.w3.org/2000/svg">
<path d="M2.20145 3.17263C2.20145 1.4205 3.67902 5.15274e-05 5.50161 5.16867e-05C7.32419 5.18461e-05 8.80176 1.4205 8.80176 3.17263C8.80176 4.92477 7.32419 6.34521 5.50161 6.34521C3.67902 6.34472 2.20145 4.92427 2.20145 3.17263Z" fill="#4CAF50"/>
<path d="M9.89995 8.46698L1.10005 8.46698C0.494069 8.46698 6.06085e-07 8.94195 5.55156e-07 9.52451C5.37689e-07 9.72432 0.055183 9.91272 0.169159 10.0976C0.188757 10.1294 0.210933 10.1601 0.235173 10.1884L4.69933 15.5439C5.13925 15.9624 5.7968 16.0303 6.36462 15.476L10.7648 10.1884C10.7891 10.1601 10.8107 10.1284 10.8308 10.0976C10.9448 9.91272 11 9.72432 11 9.52451C11 8.94195 10.5059 8.46698 9.89995 8.46698Z" fill="#607D8B"/>
</svg>
