<svg width="11" height="16" viewBox="0 0 11 16" fill="none" xmlns="http://www.w3.org/2000/svg">
<path d="M8.79855 12.7021C8.79855 14.4543 7.32098 15.8747 5.49839 15.8747C3.67581 15.8747 2.19824 14.4543 2.19824 12.7021C2.19824 10.95 3.67581 9.52954 5.49839 9.52954C7.32098 9.53004 8.79855 10.9505 8.79855 12.7021Z" fill="#4CAF50"/>
<path d="M1.10005 7.40777H9.89995C10.5059 7.40777 11 6.9328 11 6.35024C11 6.15044 10.9448 5.96204 10.8308 5.77711C10.8112 5.74538 10.7891 5.71464 10.7648 5.68638L6.30067 0.330818C5.86075 -0.0876314 5.2032 -0.155555 4.63538 0.398742L0.235173 5.68638C0.210933 5.71464 0.189273 5.74637 0.169159 5.77711C0.0551831 5.96204 0 6.15044 0 6.35024C0 6.9328 0.494069 7.40777 1.10005 7.40777Z" fill="#607D8B"/>
</svg>
