<svg width="17" height="17" viewBox="0 0 17 17" fill="none" xmlns="http://www.w3.org/2000/svg">
<path fill-rule="evenodd" clip-rule="evenodd" d="M17 8.5C17 13.1944 13.1944 17 8.5 17C3.80558 17 0 13.1944 0 8.5C0 3.80558 3.80558 0 8.5 0C13.1944 0 17 3.80558 17 8.5ZM6.40219 5.56479L6.40212 5.56482L6.40211 5.56482L6.4021 5.56483L6.40209 5.56483L6.40207 5.56484L6.40204 5.56485C6.00058 5.70403 5.61419 5.83799 5.23813 5.9963C4.38991 6.35354 3.67516 6.92097 3 7.54071V7.59005L3.00119 7.59119L3.00143 7.59143C3.35002 7.92748 3.69862 8.26355 4.05649 8.60896C4.88956 7.76324 5.88444 7.23725 6.9644 6.94169V5.36719C6.77353 5.43606 6.58628 5.50097 6.40219 5.56479ZM10.0352 5.43164C10.832 5.58213 11.5742 5.8244 12.2337 6.24381C12.6606 6.51473 13.0632 6.82487 13.4658 7.13497C13.6432 7.27161 13.8206 7.40825 14 7.54151V7.59085L13.0276 8.6897C12.1227 7.78723 11.1415 7.23707 10.0352 6.94842V5.43164ZM7.74772 8.48903C7.75833 8.87715 7.77099 9.26527 7.78366 9.65362L7.79465 9.99199C7.8059 10.33 7.92127 10.4425 8.26105 10.4464C8.35989 10.4475 8.45872 10.4473 8.55756 10.4471L8.67612 10.4469C9.09216 10.4464 9.20167 10.3463 9.20412 9.92932C9.20648 9.49268 9.2254 9.05604 9.24433 8.6194L9.24433 8.61932C9.26456 8.15254 9.28479 7.68575 9.28479 7.21896L9.30366 6.5231C9.32264 5.82693 9.34162 5.13076 9.35812 4.43459C9.36545 4.13064 9.25643 4.0137 8.95674 4.00531C8.6639 3.99742 8.37056 3.99939 8.07772 4.00432C7.7355 4.01025 7.63381 4.1188 7.64261 4.47258C7.67585 5.81173 7.71154 7.15038 7.74772 8.48903ZM5.33374 9.85715L4.99902 9.51614C5.56369 8.96055 6.22467 8.55693 7.06409 8.29492C7.06409 8.41309 7.06429 8.52898 7.06448 8.6431L7.06448 8.6436V8.64361V8.64363C7.06516 9.03584 7.06579 9.40714 7.05822 9.77814C7.05724 9.82995 6.98391 9.89212 6.93013 9.92864C6.71253 10.0761 6.49274 10.2206 6.27505 10.3637C6.18462 10.4232 6.09455 10.4824 6.00516 10.5415C5.79238 10.3244 5.56761 10.0954 5.33409 9.85751L5.33374 9.85715ZM9.93914 9.78602C9.94012 9.8324 10.0061 9.88816 10.0545 9.92072C10.2911 10.0802 10.5294 10.2369 10.7638 10.391L10.999 10.5459L11.5343 10.0044L12.0052 9.52796C11.4346 8.96201 10.7761 8.55345 9.93376 8.29688C9.93376 8.41374 9.93359 8.52835 9.93343 8.6412V8.64174C9.93284 9.03756 9.93229 9.41179 9.93914 9.78602ZM7.59999 12.1042C7.59119 11.6177 8.00821 11.1943 8.4971 11.1934C8.98746 11.1924 9.40154 11.6078 9.3991 12.0983C9.39714 12.5888 8.97523 13.0067 8.49026 12.9993C8.00968 12.9919 7.60879 12.5892 7.59999 12.1042Z" fill="#F44336"/>
</svg>
