<svg width="41" height="36" viewBox="0 0 41 36" fill="none" xmlns="http://www.w3.org/2000/svg">
    <path fill-rule="evenodd" clip-rule="evenodd" d="M36.0309 33.4119C36.215 33.4119 36.3643 33.5611 36.3643 33.7452V34.9609C36.3643 35.145 36.215 35.2942 36.0309 35.2942H34.8153C34.6312 35.2942 34.4819 35.145 34.4819 34.9609C34.4819 34.7768 34.6312 34.6276 34.8153 34.6276H35.6975V33.7452C35.6975 33.5611 35.8467 33.4119 36.0309 33.4119Z" fill="#B1B5BA"/>
    <path fill-rule="evenodd" clip-rule="evenodd" d="M2.95312 35.059C2.95312 34.9291 3.08552 34.8237 3.24884 34.8237H4.17153C4.33484 34.8237 4.46724 34.9291 4.46724 35.059C4.46724 35.189 4.33484 35.2943 4.17153 35.2943H3.24884C3.08552 35.2943 2.95312 35.189 2.95312 35.059ZM5.7212 35.059C5.7212 34.9291 5.8536 34.8237 6.01691 34.8237H7.8623C8.02561 34.8237 8.15801 34.9291 8.15801 35.059C8.15801 35.189 8.02561 35.2943 7.8623 35.2943H6.01691C5.8536 35.2943 5.7212 35.189 5.7212 35.059ZM9.41197 35.059C9.41197 34.9291 9.54437 34.8237 9.70768 34.8237H11.5531C11.7164 34.8237 11.8488 34.9291 11.8488 35.059C11.8488 35.189 11.7164 35.2943 11.5531 35.2943H9.70768C9.54437 35.2943 9.41197 35.189 9.41197 35.059ZM13.1027 35.059C13.1027 34.9291 13.2351 34.8237 13.3985 34.8237H15.2438C15.4072 34.8237 15.5395 34.9291 15.5395 35.059C15.5395 35.189 15.4072 35.2943 15.2438 35.2943H13.3985C13.2351 35.2943 13.1027 35.189 13.1027 35.059ZM16.7935 35.059C16.7935 34.9291 16.9259 34.8237 17.0892 34.8237H18.9346C19.0979 34.8237 19.2303 34.9291 19.2303 35.059C19.2303 35.189 19.0979 35.2943 18.9346 35.2943H17.0892C16.9259 35.2943 16.7935 35.189 16.7935 35.059ZM20.4843 35.059C20.4843 34.9291 20.6167 34.8237 20.78 34.8237H22.6254C22.7887 34.8237 22.9211 34.9291 22.9211 35.059C22.9211 35.189 22.7887 35.2943 22.6254 35.2943H20.78C20.6167 35.2943 20.4843 35.189 20.4843 35.059ZM24.175 35.059C24.175 34.9291 24.3074 34.8237 24.4708 34.8237H26.3161C26.4795 34.8237 26.6119 34.9291 26.6119 35.059C26.6119 35.189 26.4795 35.2943 26.3161 35.2943H24.4708C24.3074 35.2943 24.175 35.189 24.175 35.059ZM27.8658 35.059C27.8658 34.9291 27.9982 34.8237 28.1615 34.8237H30.0069C30.1702 34.8237 30.3026 34.9291 30.3026 35.059C30.3026 35.189 30.1702 35.2943 30.0069 35.2943H28.1615C27.9982 35.2943 27.8658 35.189 27.8658 35.059ZM31.5566 35.059C31.5566 34.9291 31.689 34.8237 31.8523 34.8237H32.775C32.9383 34.8237 33.0707 34.9291 33.0707 35.059C33.0707 35.189 32.9383 35.2943 32.775 35.2943H31.8523C31.689 35.2943 31.5566 35.189 31.5566 35.059Z" fill="#B1B5BA"/>
    <path fill-rule="evenodd" clip-rule="evenodd" d="M0.93351 33.4119C1.11765 33.4119 1.26692 33.5611 1.26692 33.7452V34.6276H2.14903C2.33317 34.6276 2.48245 34.7768 2.48245 34.9609C2.48245 35.145 2.33317 35.2942 2.14903 35.2942H0.93351C0.749372 35.2942 0.600098 35.145 0.600098 34.9609V33.7452C0.600098 33.5611 0.749372 33.4119 0.93351 33.4119Z" fill="#B1B5BA"/>
    <path fill-rule="evenodd" clip-rule="evenodd" d="M2.29094 4.82405C2.14175 4.82405 2.00024 4.85339 1.87142 4.90627C1.71969 4.96857 1.54566 4.89734 1.48271 4.74719C1.41976 4.59703 1.49173 4.42481 1.64346 4.36251C1.84328 4.28048 2.06216 4.23535 2.29094 4.23535H3.19046C3.35474 4.23535 3.48791 4.36714 3.48791 4.5297C3.48791 4.69226 3.35474 4.82405 3.19046 4.82405H2.29094ZM4.69207 4.5297C4.69207 4.36714 4.82524 4.23535 4.98952 4.23535H6.78857C6.95284 4.23535 7.08601 4.36714 7.08601 4.5297C7.08601 4.69226 6.95284 4.82405 6.78857 4.82405H4.98952C4.82524 4.82405 4.69207 4.69226 4.69207 4.5297ZM8.29018 4.5297C8.29018 4.36714 8.42335 4.23535 8.58762 4.23535H10.3867C10.5509 4.23535 10.6841 4.36714 10.6841 4.5297C10.6841 4.69226 10.5509 4.82405 10.3867 4.82405H8.58762C8.42335 4.82405 8.29018 4.69226 8.29018 4.5297ZM11.8883 4.5297C11.8883 4.36714 12.0215 4.23535 12.1857 4.23535H13.9848C14.1491 4.23535 14.2822 4.36714 14.2822 4.5297C14.2822 4.69226 14.1491 4.82405 13.9848 4.82405H12.1857C12.0215 4.82405 11.8883 4.69226 11.8883 4.5297ZM15.4864 4.5297C15.4864 4.36714 15.6196 4.23535 15.7838 4.23535H17.5829C17.7472 4.23535 17.8803 4.36714 17.8803 4.5297C17.8803 4.69226 17.7472 4.82405 17.5829 4.82405H15.7838C15.6196 4.82405 15.4864 4.69226 15.4864 4.5297ZM19.0845 4.5297C19.0845 4.36714 19.2177 4.23535 19.3819 4.23535H21.181C21.3453 4.23535 21.4784 4.36714 21.4784 4.5297C21.4784 4.69226 21.3453 4.82405 21.181 4.82405H19.3819C19.2177 4.82405 19.0845 4.69226 19.0845 4.5297ZM22.6826 4.5297C22.6826 4.36714 22.8158 4.23535 22.98 4.23535H24.7791C24.9434 4.23535 25.0765 4.36714 25.0765 4.5297C25.0765 4.69226 24.9434 4.82405 24.7791 4.82405H22.98C22.8158 4.82405 22.6826 4.69226 22.6826 4.5297ZM26.2807 4.5297C26.2807 4.36714 26.4139 4.23535 26.5781 4.23535H28.3772C28.5415 4.23535 28.6746 4.36714 28.6746 4.5297C28.6746 4.69226 28.5415 4.82405 28.3772 4.82405H26.5781C26.4139 4.82405 26.2807 4.69226 26.2807 4.5297ZM29.8788 4.5297C29.8788 4.36714 30.012 4.23535 30.1762 4.23535H31.9753C32.1396 4.23535 32.2727 4.36714 32.2727 4.5297C32.2727 4.69226 32.1396 4.82405 31.9753 4.82405H30.1762C30.012 4.82405 29.8788 4.69226 29.8788 4.5297ZM33.4769 4.5297C33.4769 4.36714 33.6101 4.23535 33.7744 4.23535H34.6739C34.9027 4.23535 35.1215 4.28048 35.3214 4.36251C35.4731 4.42481 35.5451 4.59703 35.4821 4.74719C35.4192 4.89734 35.2451 4.96857 35.0934 4.90627C34.9646 4.85339 34.8231 4.82405 34.6739 4.82405H33.7744C33.6101 4.82405 33.4769 4.69226 33.4769 4.5297ZM1.11706 5.1093C1.26882 5.17152 1.34088 5.34371 1.278 5.4939C1.2246 5.62143 1.19498 5.76151 1.19498 5.90921V6.82588C1.19498 6.98844 1.06181 7.12023 0.897541 7.12023C0.733268 7.12023 0.600098 6.98844 0.600098 6.82588V5.90921C0.600098 5.68286 0.64563 5.46629 0.728414 5.26857C0.791292 5.11838 0.965293 5.04708 1.11706 5.1093ZM35.8478 5.1093C35.9995 5.04708 36.1735 5.11838 36.2364 5.26857C36.3192 5.46629 36.3647 5.68286 36.3647 5.90921V6.86412C36.3647 7.02669 36.2315 7.15847 36.0673 7.15847C35.903 7.15847 35.7698 7.02669 35.7698 6.86412V5.90921C35.7698 5.76151 35.7402 5.62143 35.6868 5.4939C35.6239 5.34372 35.696 5.17152 35.8478 5.1093ZM0.897541 8.36488C1.06181 8.36488 1.19498 8.49666 1.19498 8.65923V10.4926C1.19498 10.6551 1.06181 10.7869 0.897541 10.7869C0.733268 10.7869 0.600098 10.6551 0.600098 10.4926V8.65923C0.600098 8.49666 0.733268 8.36488 0.897541 8.36488ZM36.0673 8.47961C36.2315 8.47961 36.3647 8.61139 36.3647 8.77395V10.6838C36.3647 10.8463 36.2315 10.9781 36.0673 10.9781C35.903 10.9781 35.7698 10.8463 35.7698 10.6838V8.77395C35.7698 8.61139 35.903 8.47961 36.0673 8.47961ZM0.897541 12.0316C1.06181 12.0316 1.19498 12.1634 1.19498 12.3259V14.1593C1.19498 14.3218 1.06181 14.4536 0.897541 14.4536C0.733268 14.4536 0.600098 14.3218 0.600098 14.1593V12.3259C0.600098 12.1634 0.733268 12.0316 0.897541 12.0316ZM36.0673 12.2993C36.2315 12.2993 36.3647 12.431 36.3647 12.5936V14.5034C36.3647 14.666 36.2315 14.7978 36.0673 14.7978C35.903 14.7978 35.7698 14.666 35.7698 14.5034V12.5936C35.7698 12.431 35.903 12.2993 36.0673 12.2993ZM0.897541 15.6983C1.06181 15.6983 1.19498 15.8301 1.19498 15.9926V17.826C1.19498 17.9885 1.06181 18.1203 0.897541 18.1203C0.733268 18.1203 0.600098 17.9885 0.600098 17.826V15.9926C0.600098 15.8301 0.733268 15.6983 0.897541 15.6983ZM36.0673 16.1189C36.2315 16.1189 36.3647 16.2507 36.3647 16.4133V18.3231C36.3647 18.4857 36.2315 18.6174 36.0673 18.6174C35.903 18.6174 35.7698 18.4857 35.7698 18.3231V16.4133C35.7698 16.2507 35.903 16.1189 36.0673 16.1189ZM0.897541 19.365C1.06181 19.365 1.19498 19.4967 1.19498 19.6593V21.4927C1.19498 21.6552 1.06181 21.787 0.897541 21.787C0.733268 21.787 0.600098 21.6552 0.600098 21.4927V19.6593C0.600098 19.4967 0.733268 19.365 0.897541 19.365ZM36.0673 19.9386C36.2315 19.9386 36.3647 20.0704 36.3647 20.2329V22.1428C36.3647 22.3053 36.2315 22.4371 36.0673 22.4371C35.903 22.4371 35.7698 22.3053 35.7698 22.1428V20.2329C35.7698 20.0704 35.903 19.9386 36.0673 19.9386ZM0.897541 23.0317C1.06181 23.0317 1.19498 23.1634 1.19498 23.326V25.1594C1.19498 25.3219 1.06181 25.4537 0.897541 25.4537C0.733268 25.4537 0.600098 25.3219 0.600098 25.1594V23.326C0.600098 23.1634 0.733268 23.0317 0.897541 23.0317ZM36.0673 23.7582C36.2315 23.7582 36.3647 23.89 36.3647 24.0526V25.9624C36.3647 26.125 36.2315 26.2568 36.0673 26.2568C35.903 26.2568 35.7698 26.125 35.7698 25.9624V24.0526C35.7698 23.89 35.903 23.7582 36.0673 23.7582ZM0.897541 26.6983C1.06181 26.6983 1.19498 26.8301 1.19498 26.9927V28.826C1.19498 28.9886 1.06181 29.1204 0.897541 29.1204C0.733268 29.1204 0.600098 28.9886 0.600098 28.826V26.9927C0.600098 26.8301 0.733268 26.6983 0.897541 26.6983ZM36.0673 27.5779C36.2315 27.5779 36.3647 27.7097 36.3647 27.8722V29.7821C36.3647 29.9446 36.2315 30.0764 36.0673 30.0764C35.903 30.0764 35.7698 29.9446 35.7698 29.7821V27.8722C35.7698 27.7097 35.903 27.5779 36.0673 27.5779ZM0.897541 30.365C1.06181 30.365 1.19498 30.4968 1.19498 30.6594V31.5761C1.19498 31.7386 1.06181 31.8704 0.897541 31.8704C0.733268 31.8704 0.600098 31.7386 0.600098 31.5761V30.6594C0.600098 30.4968 0.733268 30.365 0.897541 30.365ZM36.0673 31.3976C36.2315 31.3976 36.3647 31.5293 36.3647 31.6919V32.6468C36.3647 32.8094 36.2315 32.9412 36.0673 32.9412C35.903 32.9412 35.7698 32.8094 35.7698 32.6468V31.6919C35.7698 31.5293 35.903 31.3976 36.0673 31.3976Z" fill="#B1B5BA"/>
    <path d="M40.1261 30.5882H4.83496V1.39454C4.83496 0.624249 5.46091 0 6.23329 0H38.7307C39.503 0 40.129 0.624249 40.129 1.39454V30.5882H40.1261Z" fill="#EFEFEF"/>
    <path fill-rule="evenodd" clip-rule="evenodd" d="M6.52442 0.590642C5.91783 0.590642 5.42684 1.08053 5.42684 1.68438V30.4681H40.0077V1.68438C40.0077 1.08053 39.5167 0.590642 38.9101 0.590642H6.52442ZM4.83496 1.68438C4.83496 0.753709 5.59156 0 6.52442 0H38.9101C39.843 0 40.5996 0.753709 40.5996 1.68438V30.7634C40.5996 30.9265 40.4671 31.0587 40.3036 31.0587H5.1309C4.96746 31.0587 4.83496 30.9265 4.83496 30.7634V1.68438Z" fill="#B1B5BA"/>
    <path fill-rule="evenodd" clip-rule="evenodd" d="M6.52442 0.582156C5.92617 0.582156 5.42684 1.07542 5.42684 1.70205V6.00606H40.0077V1.70205C40.0077 1.07543 39.5084 0.582156 38.9101 0.582156H6.52442ZM4.83496 1.70205C4.83496 0.769947 5.58322 0 6.52442 0H38.9101C39.8513 0 40.5996 0.769946 40.5996 1.70205V6.29714C40.5996 6.4579 40.4671 6.58822 40.3036 6.58822H5.1309C4.96746 6.58822 4.83496 6.4579 4.83496 6.29714V1.70205Z" fill="#B1B5BA"/>
    <path fill-rule="evenodd" clip-rule="evenodd" d="M23.7511 15.171C23.8762 15.0244 24.0813 15.0218 24.2093 15.1652L27.3259 18.6579C27.4539 18.8013 27.4561 19.0363 27.331 19.1829C27.2059 19.3295 27.0008 19.3321 26.8728 19.1888L23.7562 15.696C23.6282 15.5527 23.6259 15.3176 23.7511 15.171Z" fill="#B1B5BA"/>
    <path fill-rule="evenodd" clip-rule="evenodd" d="M27.3238 15.163C27.4544 15.3036 27.4569 15.5343 27.3294 15.6783L24.2255 19.1848C24.098 19.3288 23.8888 19.3315 23.7583 19.191C23.6277 19.0504 23.6252 18.8197 23.7527 18.6757L26.8566 15.1692C26.9841 15.0252 27.1932 15.0224 27.3238 15.163Z" fill="#B1B5BA"/>
    <path fill-rule="evenodd" clip-rule="evenodd" d="M31.751 15.1583C31.876 15.0278 32.0812 15.0254 32.2092 15.1529L35.3258 18.257C35.4538 18.3845 35.4562 18.5936 35.3311 18.7241C35.2061 18.8545 35.0009 18.857 34.8729 18.7295L31.7563 15.6253C31.6283 15.4978 31.6259 15.2887 31.751 15.1583Z" fill="#B1B5BA"/>
    <path fill-rule="evenodd" clip-rule="evenodd" d="M35.3238 15.151C35.4544 15.2759 35.4569 15.481 35.3294 15.609L32.2255 18.7259C32.098 18.8539 31.8888 18.8564 31.7583 18.7314C31.6277 18.6064 31.6252 18.4014 31.7527 18.2734L34.8566 15.1565C34.9841 15.0285 35.1932 15.026 35.3238 15.151Z" fill="#B1B5BA"/>
</svg>
