<svg width="16" height="16" viewBox="0 0 16 16" fill="none" xmlns="http://www.w3.org/2000/svg">
<path d="M11.1067 15.9965C11.4682 15.9956 11.7845 15.7535 11.8798 15.4048L12.617 12.6524L15.4089 11.9061C15.8343 11.7904 16.0862 11.3528 15.9728 10.9269L14.5253 5.53158L14.6399 5.10507C14.7435 4.71224 14.536 4.30415 14.1576 4.15625L13.5058 1.72312C13.3891 1.29807 12.9526 1.04583 12.5261 1.15688L7.76479 2.43409L3.77231 1.36373C3.60866 1.31882 3.43488 1.32822 3.27709 1.39045L2.2797 0.394772C1.9435 0.0555151 1.45158 -0.0779909 0.990043 0.0448981C0.528508 0.167787 0.168017 0.528156 0.0450066 0.989691C-0.0780043 1.45123 0.0552575 1.94327 0.394392 2.27948L2.21234 4.09743L0.0342675 12.2284C-0.0797128 12.6547 0.172411 13.093 0.598312 13.2089L10.8991 15.9688C10.9667 15.9873 11.0365 15.9967 11.1067 15.9965ZM15.457 11.0646C15.4947 11.2061 15.4114 11.3515 15.2703 11.3905L12.7766 12.0569L14.2485 6.56229L15.457 11.0646ZM12.6625 1.67248C12.7312 1.65368 12.8046 1.6632 12.8662 1.69884C12.9278 1.73435 12.9726 1.79317 12.9907 1.862L13.5594 3.98625L8.79465 2.70977L12.6625 1.67248ZM8.0772 8.07857L6.73128 7.62997L7.6286 6.73179L8.0772 8.07759V8.07857ZM6.99219 6.61562L4.73016 4.35333C4.62606 4.24924 4.45717 4.24924 4.35307 4.35346C4.24898 4.45755 4.2491 4.62645 4.35332 4.73054L6.61547 6.99221L6.23863 7.36955L2.46825 3.59916L2.84521 3.22219L3.59902 3.97637C3.66651 4.04373 3.76462 4.07009 3.85676 4.04532C3.94877 4.02067 4.02065 3.94879 4.0453 3.85678C4.06995 3.76476 4.04372 3.66652 3.97635 3.59916L3.22242 2.84523L3.59939 2.46802L7.36916 6.23841L6.99219 6.61562ZM1.71407 2.84523L2.84521 1.71409L3.22218 2.09105L2.09128 3.22219L1.71407 2.84523ZM0.537294 1.33712C0.537294 1.01361 0.732184 0.721825 1.03105 0.598082C1.33003 0.474338 1.67405 0.5428 1.90274 0.771615L2.46825 1.33712L1.33711 2.46826L0.771357 1.90251C0.62101 1.7529 0.536684 1.54934 0.537294 1.33712ZM0.54962 12.3683L2.64813 4.53321L6.04984 7.93493C6.07767 7.96215 6.1111 7.98277 6.14796 7.99546C6.15003 7.99546 6.15162 7.99839 6.15406 7.99912L7.91014 8.58562C7.96493 8.60368 8.02241 8.61259 8.08013 8.61235C8.18057 8.61198 8.2788 8.58306 8.36325 8.52888L11.429 9.35212C11.4516 9.35835 11.4749 9.36152 11.4983 9.3614C11.6322 9.3614 11.7452 9.26218 11.7625 9.12953C11.78 8.99688 11.6964 8.87192 11.5672 8.83738L8.60805 8.04293C8.60537 7.99766 8.59719 7.95287 8.58353 7.90955L7.99703 6.15335C7.99703 6.15091 7.9941 6.14932 7.993 6.14688C7.98031 6.11039 7.95968 6.07708 7.93271 6.04937L3.81234 1.92728L13.935 4.63877C14.0034 4.65708 14.0618 4.70174 14.0972 4.76313C14.1326 4.82439 14.1421 4.89724 14.1238 4.96571L11.3651 15.2653C11.3469 15.3338 11.3021 15.3922 11.2407 15.4276C11.1793 15.463 11.1063 15.4725 11.038 15.4541L0.738285 12.6951C0.669946 12.6768 0.611613 12.6322 0.576101 12.5709C0.540711 12.5095 0.531193 12.4367 0.54962 12.3683Z" fill="#9E9E9E"/>
</svg>
