<svg width="25" height="25" viewBox="0 0 25 25" fill="none" xmlns="http://www.w3.org/2000/svg">
    <path d="M6.81804 11.9315C6.81804 11.6174 6.5639 11.3633 6.24984 11.3633C5.93578 11.3633 5.68164 11.6174 5.68164 11.9315C5.68164 13.4235 7.32738 15.4721 7.51493 15.7012C7.62759 15.8378 7.7907 15.9088 7.95492 15.9088C8.08143 15.9088 8.20906 15.8666 8.31501 15.78C8.55748 15.5808 8.59242 15.223 8.39379 14.9799C7.78463 14.2375 6.81804 12.7538 6.81804 11.9315Z" fill="white"/>
    <path d="M18.7501 11.3633C18.436 11.3633 18.1819 11.6174 18.1819 11.9315C18.1819 12.751 17.2153 14.2364 16.6061 14.9805C16.4075 15.223 16.4429 15.5809 16.6855 15.78C16.7909 15.8666 16.9185 15.9088 17.0455 15.9088C17.2098 15.9088 17.3723 15.8378 17.485 15.7012C17.6726 15.4721 19.3183 13.4235 19.3183 11.9315C19.3183 11.6174 19.0642 11.3633 18.7501 11.3633Z" fill="white"/>
    <path d="M12.4998 11.3633C12.1858 11.3633 11.9316 11.6174 11.9316 11.9315V15.3406C11.9316 15.6546 12.1858 15.9088 12.4998 15.9088C12.8139 15.9088 13.068 15.6546 13.068 15.3406V11.9315C13.068 11.6174 12.8138 11.3633 12.4998 11.3633Z" fill="white"/>
    <path d="M18.75 2.27275C18.4057 2.27275 18.0459 2.31829 17.6722 2.3877C16.4208 0.928925 14.5683 0 12.5 0C10.4317 0 8.5792 0.928925 7.32785 2.38764C6.95412 2.31829 6.5943 2.27269 6.25004 2.27269C2.80371 2.27275 0 5.07646 0 8.52273C0 10.8842 1.33168 13.031 3.42241 14.0924L3.41133 22.679C3.4108 23.2988 3.65157 23.8814 4.08937 24.3197C4.5277 24.7586 5.10975 25 5.72957 25H19.2727C20.5511 25 21.591 23.9602 21.591 22.6818V14.0841C23.6739 13.0199 25.0001 10.8764 25.0001 8.52273C25 5.07646 22.1963 2.27275 18.75 2.27275ZM20.4546 22.6818C20.4546 23.3332 19.9241 23.8637 19.2727 23.8637H5.72951C5.4138 23.8637 5.11694 23.7405 4.89333 23.5169C4.67024 23.2933 4.54709 22.9965 4.54762 22.6802L4.55061 20.4546H20.4546V22.6818ZM20.8063 13.1997C20.7763 13.2119 20.7481 13.2263 20.7214 13.2435C20.6498 13.2879 20.591 13.3468 20.5472 13.4144C20.5028 13.4815 20.4728 13.5592 20.4606 13.6424C20.4556 13.6741 20.454 13.7057 20.4545 13.7379V19.3182H4.55204L4.55934 13.7456C4.55988 13.7146 4.55822 13.6829 4.5538 13.6524C4.5416 13.5664 4.50996 13.4865 4.46389 13.4171C4.42058 13.3522 4.36401 13.2956 4.29519 13.2523C4.26691 13.2346 4.23692 13.219 4.20586 13.2062C2.34098 12.3907 1.13635 10.5541 1.13635 8.52273C1.13635 5.70288 3.43019 3.40909 6.24999 3.40909C6.3602 3.40909 6.47653 3.42241 6.59068 3.43141C6.01582 4.43049 5.68179 5.585 5.68179 6.81819C5.68179 7.13225 5.93592 7.38639 6.24999 7.38639C6.56405 7.38639 6.81819 7.13225 6.81819 6.81819C6.81819 3.68539 9.36723 1.13635 12.5 1.13635C15.6328 1.13635 18.1818 3.68539 18.1818 6.81819C18.1818 7.13225 18.4359 7.38639 18.75 7.38639C19.0641 7.38639 19.3182 7.13225 19.3182 6.81819C19.3182 5.585 18.9842 4.43054 18.4093 3.43141C18.5235 3.42241 18.6398 3.40909 18.75 3.40909C21.5699 3.40909 23.8637 5.70293 23.8637 8.52273C23.8637 10.5469 22.664 12.3812 20.8063 13.1997Z" fill="white"/>
</svg>
