<svg width="26" height="22" viewBox="0 0 26 22" fill="none" xmlns="http://www.w3.org/2000/svg">
    <path d="M25.614 7.35222C25.2707 6.9215 24.7556 6.67439 24.2008 6.67439H19.1935L16.4783 0.457097C16.31 0.0716167 15.861 -0.104543 15.4754 0.063898C15.0899 0.232238 14.9138 0.681296 15.0822 1.06683L17.5312 6.67445H8.46884L10.9178 1.06683C11.0861 0.681296 10.9101 0.232289 10.5246 0.063898C10.1391 -0.104543 9.69003 0.0715152 9.52169 0.457097L6.80646 6.67445H1.79923C1.2444 6.67445 0.729323 6.9215 0.385991 7.35227C0.0489563 7.77518 -0.0754069 8.31884 0.0447922 8.84402L2.71878 20.5237C2.9055 21.3392 3.62695 21.9088 4.47322 21.9088H21.5268C22.373 21.9088 23.0945 21.3392 23.2812 20.5237L25.9552 8.84397C26.0754 8.31879 25.951 7.77513 25.614 7.35222ZM21.5268 20.3853H4.47322C4.34388 20.3853 4.23059 20.3005 4.20382 20.1836L1.52984 8.50404C1.50887 8.41238 1.54406 8.34342 1.57737 8.30173C1.60824 8.26293 1.67817 8.19788 1.79923 8.19788H6.14118L5.94166 8.65476C5.77332 9.04029 5.94933 9.4893 6.33486 9.65769C6.43409 9.70106 6.53748 9.72157 6.63929 9.72157C6.93291 9.72157 7.21271 9.5508 7.33774 9.26454L7.80355 8.19798H18.1965L18.6624 9.26454C18.7874 9.55085 19.0672 9.72157 19.3608 9.72157C19.4626 9.72157 19.566 9.70106 19.6652 9.65769C20.0508 9.48935 20.2268 9.04029 20.0584 8.65476L19.8589 8.19788H24.2009C24.3219 8.19788 24.3918 8.26293 24.4227 8.30173C24.456 8.34347 24.4912 8.41243 24.4703 8.50399L21.7963 20.1837C21.7695 20.3005 21.6561 20.3853 21.5268 20.3853Z" fill="white"/>
    <path d="M8.42969 11.4922C8.00902 11.4922 7.66797 11.8332 7.66797 12.2539V17.8398C7.66797 18.2605 8.00902 18.6016 8.42969 18.6016C8.85036 18.6016 9.19141 18.2605 9.19141 17.8398V12.2539C9.19141 11.8332 8.85041 11.4922 8.42969 11.4922Z" fill="white"/>
    <path d="M13 11.4922C12.5793 11.4922 12.2383 11.8332 12.2383 12.2539V17.8398C12.2383 18.2605 12.5793 18.6016 13 18.6016C13.4207 18.6016 13.7617 18.2605 13.7617 17.8398V12.2539C13.7617 11.8332 13.4207 11.4922 13 11.4922Z" fill="white"/>
    <path d="M17.5703 11.4922C17.1496 11.4922 16.8086 11.8332 16.8086 12.2539V17.8398C16.8086 18.2605 17.1496 18.6016 17.5703 18.6016C17.991 18.6016 18.332 18.2605 18.332 17.8398V12.2539C18.332 11.8332 17.991 11.4922 17.5703 11.4922Z" fill="white"/>
</svg>
