<svg width="31" height="28" viewBox="0 0 31 28" fill="none" xmlns="http://www.w3.org/2000/svg">
    <path d="M29.435 14.3092H28.3773C28.2782 12.7001 27.8865 11.147 27.2086 9.68697C27.1052 9.46344 26.8402 9.36667 26.6168 9.47018C26.3934 9.57392 26.2964 9.83909 26.4001 10.0626C27.0229 11.4045 27.3862 12.8311 27.4839 14.3092H4.04372C3.79753 14.3092 3.59807 14.5088 3.59807 14.7551C3.59807 15.0015 3.79753 15.201 4.04372 15.201C4.2899 15.201 29.435 15.201 29.435 15.201C29.6605 15.201 29.8437 15.3846 29.8437 15.6102V16.1545C29.8437 16.3801 29.6605 16.5636 29.435 16.5636H1.56487C1.33937 16.5636 1.15618 16.3801 1.15618 16.1545V15.6102C1.15618 15.3846 1.33937 15.201 1.56487 15.201H4.98918C5.23537 15.201 5.43506 15.0015 5.43506 14.7551C5.43506 14.5088 5.23537 14.3092 4.98918 14.3092H3.516C3.71244 11.3466 4.98221 8.59048 7.12234 6.50589C9.18484 4.49714 11.8499 3.31459 14.6981 3.12711C14.6998 3.12711 14.7014 3.12734 14.703 3.12711C14.8244 3.1192 14.9443 3.11315 15.0629 3.10873C15.0866 3.10804 15.1101 3.10687 15.1338 3.10617C15.1761 3.10478 15.2182 3.10385 15.2598 3.10292C15.3398 3.10152 15.4197 3.10013 15.4999 3.10013C15.6064 3.10013 15.7129 3.10222 15.8191 3.10501C15.8505 3.10594 15.8817 3.10687 15.9133 3.1078C15.9951 3.11059 16.0767 3.11478 16.1583 3.1192C16.2015 3.12153 16.2448 3.12385 16.2883 3.12664C19.9476 3.36715 23.3143 5.27124 25.4093 8.32438C25.5486 8.52721 25.8261 8.57908 26.0291 8.43952C26.232 8.30019 26.2836 8.02246 26.1441 7.8194C24.0826 4.81487 20.8738 2.84706 17.3272 2.33952C17.5494 1.99433 17.6743 1.58798 17.6743 1.16232C17.6743 0.919943 17.5662 0.473114 16.8422 0.206551C16.4807 0.0735024 16.0039 0 15.4999 0C14.9957 0 14.5189 0.0735024 14.1574 0.206551C13.4335 0.473114 13.3256 0.919943 13.3256 1.16232C13.3256 1.58681 13.45 1.99247 13.6709 2.33696C10.9781 2.71819 8.48068 3.93796 6.50048 5.8667C4.18715 8.11992 2.82045 11.1037 2.62261 14.309H1.56487C0.847921 14.3092 0.264648 14.8928 0.264648 15.6102V16.1545C0.264648 16.8721 0.847921 17.4557 1.56487 17.4557H6.36658C6.1269 17.6199 5.89722 17.8041 5.68218 18.0086L5.67335 18.0169C5.65963 18.0297 5.64661 18.0434 5.63475 18.0581L3.51856 20.6293C3.25308 20.4607 2.93878 20.3992 2.62866 20.4588C2.30529 20.5207 2.02562 20.7049 1.84104 20.9775L1.00879 22.2054C0.628235 22.7671 0.775157 23.5345 1.33611 23.9157L7.03098 27.7867C7.23742 27.927 7.47593 28 7.72026 28C7.79791 28 7.87625 27.9926 7.95436 27.9777C8.2775 27.9158 8.55716 27.7316 8.74175 27.459L9.574 26.2311C9.95455 25.6693 9.80786 24.902 9.24691 24.5207L9.21436 24.4986C9.61073 24.0485 10.1391 23.7259 10.714 23.5929C11.9255 23.3121 13.351 23.4929 14.3178 23.6531C15.5139 23.8513 16.7702 23.7836 17.9509 23.4573L19.5921 23.0035C20.6855 22.7011 21.6916 22.1919 22.5829 21.4899C22.5896 21.4846 22.5962 21.4792 22.6027 21.4734L25.4205 18.9764C25.9007 18.6087 26.0054 17.9718 25.8396 17.4557H29.435C30.152 17.4557 30.7352 16.8721 30.7352 16.1547V15.6102C30.7352 14.8928 30.152 14.3092 29.435 14.3092ZM15.4999 0.892031C16.2506 0.892031 16.7004 1.07788 16.7827 1.18116C16.7767 1.60426 16.5628 1.99457 16.2148 2.22857C16.1272 2.22391 16.0407 2.22019 15.9544 2.21694C15.9254 2.216 15.8963 2.21461 15.8672 2.21391C15.7429 2.21019 15.6201 2.20833 15.4999 2.20833C15.4146 2.20833 15.3277 2.20949 15.24 2.21135C15.1977 2.21205 15.1552 2.21321 15.1126 2.21461C15.062 2.21624 15.0108 2.21787 14.9597 2.21996C14.9013 2.22252 14.843 2.22508 14.7849 2.22833C14.4368 1.99433 14.2232 1.60403 14.2172 1.18116C14.2995 1.07788 14.7493 0.892031 15.4999 0.892031ZM18.6964 17.6708C18.6632 17.5955 18.6234 17.5238 18.5786 17.4557H22.854L21.0053 18.6798L18.3703 19.4426L18.2808 19.4446C18.788 19.0215 18.9731 18.2991 18.6964 17.6708ZM13.8629 17.4557L13.2196 17.5899L12.7224 17.4557H13.8629ZM8.83613 25.7305L8.00411 26.9584C7.9532 27.0338 7.87602 27.0845 7.78675 27.1017C7.69771 27.1187 7.60705 27.1001 7.53196 27.0489L1.83709 23.1779C1.68226 23.0728 1.64181 22.8611 1.74689 22.7062L2.57914 21.4781C2.63005 21.4029 2.707 21.352 2.79627 21.335C2.81789 21.3308 2.83951 21.3287 2.8609 21.3287C2.92831 21.3287 2.9941 21.349 3.05106 21.3878L3.35862 21.5967C3.35862 21.5969 3.35885 21.5969 3.35885 21.5969L8.74593 25.2585C8.90076 25.3637 8.94121 25.5756 8.83613 25.7305ZM24.8735 18.2721C24.8628 18.2798 24.8525 18.2881 24.8425 18.297L22.0217 20.797C21.2264 21.4211 20.3291 21.8742 19.3548 22.1435L17.7135 22.5973C16.6567 22.8897 15.533 22.9504 14.4638 22.7732C13.4219 22.6006 11.8792 22.4073 10.513 22.7239C9.72162 22.9072 8.99909 23.3621 8.47347 23.9948L4.26038 21.1312L6.3052 18.6466C7.07864 17.916 8.05944 17.4822 8.99863 17.4557H9.01676C9.30805 17.4508 9.61631 17.5366 9.94246 17.628C10.008 17.6462 10.0733 17.6645 10.1389 17.6822L13.0904 18.4789C13.158 18.497 13.2289 18.4991 13.2975 18.4847L17.163 17.6783C17.3383 17.642 17.5225 17.6776 17.6682 17.7764C17.7624 17.8404 17.8358 17.9283 17.8807 18.0304C18.0132 18.3312 17.8884 18.6843 17.5922 18.8369L16.2734 19.5356C16.0909 19.6324 15.9988 19.8417 16.0507 20.0417C16.1027 20.242 16.2848 20.3783 16.4917 20.3755L18.4479 20.3332C18.4867 20.3323 18.5251 20.3264 18.5621 20.3157L21.3185 19.5179C21.362 19.5054 21.4031 19.4863 21.4408 19.4614L24.2216 17.6196C24.455 17.4754 24.7656 17.3568 24.9309 17.6008C25.0597 17.7906 25.0627 18.1323 24.8735 18.2721Z" fill="white"/>
</svg>
