<svg width="30" height="23" viewBox="0 0 30 23" fill="none" xmlns="http://www.w3.org/2000/svg">
    <path d="M24.475 11.6055L23.1095 5.4364C23.478 5.38651 23.803 5.19905 24.0317 4.9276C24.3015 5.09628 24.6199 5.19424 24.9609 5.19424H26.1328C26.4565 5.19424 26.7188 4.93195 26.7188 4.60831V2.26456C26.7188 1.94092 26.4565 1.67862 26.1328 1.67862H24.9609C24.6098 1.67862 24.2825 1.78253 24.0076 1.96083C23.7394 1.65756 23.3478 1.46576 22.912 1.46576H19.4531C18.8317 1.46576 18.2998 1.85555 18.0881 2.40326H16.6992C15.8592 2.40326 15.1758 3.0867 15.1758 3.9267C15.1758 4.76669 15.8592 5.45013 16.6992 5.45013H19.7152V6.63094C19.7152 6.95457 19.9775 7.21687 20.3011 7.21687C20.6248 7.21687 20.8871 6.95457 20.8871 6.63094V5.45013H21.9125L23.3833 12.0957L20.5996 17.0538C20.2954 17.5935 19.7218 17.9288 19.1022 17.9288H12.1532C11.8623 15.4891 9.78218 13.591 7.26562 13.591C6.15211 13.591 5.10155 13.9538 4.22745 14.64C4.2263 14.6409 4.22516 14.6418 4.22401 14.6427C3.18329 15.4612 2.52914 16.6358 2.37671 17.9288H1.17325C1.24969 13.7164 4.70009 10.3134 8.93005 10.3134H13.0865C13.4145 10.3134 13.6816 10.5805 13.6816 10.9087V16.171C13.6816 16.4946 13.9439 16.7569 14.2676 16.7569H17.3854C18.6573 16.7569 19.8294 16.0652 20.4442 14.9522C20.7287 14.4372 20.8795 13.854 20.88 13.266L20.8829 11.3194C20.8834 10.9957 20.6213 10.733 20.2977 10.7325C20.2975 10.7325 20.2972 10.7325 20.297 10.7325C19.9738 10.7325 19.7115 10.9943 19.7111 11.3175L19.7081 13.2646C19.7079 13.6555 19.6076 14.0433 19.4186 14.3855C19.0098 15.1252 18.2307 15.5848 17.3854 15.5848H14.8535V10.9085C14.8535 10.6084 14.778 10.3255 14.6455 10.0777C15.1719 9.77348 15.5271 9.20494 15.5271 8.55469C15.5271 7.58537 14.7384 6.79688 13.7693 6.79688H11.6306C11.4251 6.79688 11.228 6.83258 11.0447 6.89758V1.75781C11.0447 0.788498 10.256 0 9.28688 0H5.5069C2.76672 0 0.487976 2.01187 0.0691223 4.63577C0.0514984 4.69162 0.0418854 4.7509 0.0418854 4.81247C0.0418854 4.81613 0.0423431 4.81956 0.0423431 4.823C0.0144196 5.0473 0 5.2755 0 5.5069V8.55492C0 9.43497 0.650253 10.166 1.49551 10.293L2.79305 11.5906C1.07391 13.2193 0 15.5223 0 18.0718V18.5147C0 18.8383 0.262299 19.1006 0.585938 19.1006H3.87886C3.87131 19.1384 3.86719 19.1778 3.86719 19.2178C3.86719 20.0681 4.1819 20.8461 4.70009 21.4426H0.585938C0.262299 21.4426 0 21.7051 0 22.0285C0 22.3521 0.262299 22.6144 0.585938 22.6144H7.19788C7.22054 22.6151 7.24297 22.6163 7.26562 22.6163C9.13948 22.6163 10.6641 21.0917 10.6641 19.2178C10.6641 19.1778 10.6599 19.1384 10.6524 19.1006H19.1022C20.0249 19.1006 20.8871 18.6584 21.4275 17.9269H22.1695C22.0026 18.333 21.9141 18.7706 21.9141 19.2178C21.9141 20.0681 22.2288 20.8461 22.747 21.4426H15.1483C14.8247 21.4426 14.5624 21.7051 14.5624 22.0285C14.5624 22.3521 14.8247 22.6144 15.1483 22.6144H25.2448C25.2674 22.6151 25.2898 22.6163 25.3125 22.6163C27.1864 22.6163 28.7109 21.0917 28.7109 19.2178C28.7109 18.7706 28.6224 18.333 28.4555 17.9269H29.4141C29.7377 17.9269 30 17.6646 30 17.341C30 14.2481 27.5407 11.7188 24.475 11.6055ZM11.6306 7.96898H13.7693C14.0923 7.96898 14.3552 8.23174 14.3552 8.55492C14.3552 8.87787 14.0923 9.14085 13.7693 9.14085H11.6306C11.3074 9.14085 11.0447 8.87787 11.0447 8.55492C11.0447 8.23174 11.3074 7.96898 11.6306 7.96898ZM1.17188 5.5069C1.17188 5.47073 1.17371 5.4348 1.17462 5.39864H7.58629C7.90993 5.39864 8.17223 5.13634 8.17223 4.8127C8.17223 4.48906 7.90993 4.22676 7.58629 4.22676H1.36505C1.91254 2.45934 3.56209 1.1721 5.5069 1.1721H9.28665C9.60983 1.1721 9.87259 1.43486 9.87259 1.75804V8.55492C9.87259 8.87787 9.60983 9.14085 9.28665 9.14085H1.75804C1.75804 9.14085 1.75781 9.14085 1.75758 9.14085C1.43463 9.14085 1.17188 8.87787 1.17188 8.55492V5.5069ZM3.17253 10.3127H4.51332C4.2318 10.4734 3.96011 10.6494 3.69873 10.8389L3.17253 10.3127ZM9.49219 19.2178C9.49219 20.438 8.50548 21.4316 7.28828 21.4437C7.28073 21.4435 7.27318 21.4426 7.26562 21.4426H7.1981C6.00151 21.4066 5.03906 20.4229 5.03906 19.2178C5.03906 19.1778 5.03494 19.1384 5.02739 19.1006H9.50386C9.49631 19.1384 9.49219 19.1778 9.49219 19.2178ZM3.55911 17.9288C3.70422 16.9979 4.19312 16.157 4.9482 15.564C4.95003 15.5628 4.95163 15.5612 4.95346 15.5601C5.61859 15.0387 6.41808 14.7629 7.26562 14.7629C9.13513 14.7629 10.6895 16.1373 10.9717 17.9288H3.55911ZM24.9609 2.85049H25.5469V4.02237H24.9609C24.6378 4.02237 24.375 3.75961 24.375 3.43643C24.375 3.11348 24.6378 2.85049 24.9609 2.85049ZM16.3477 3.9267C16.3477 3.73283 16.5054 3.57513 16.6992 3.57513H17.9901V3.98712C17.9901 4.08691 18.0002 4.18419 18.0192 4.27826H16.6992C16.5054 4.27826 16.3477 4.12056 16.3477 3.9267ZM20.3011 4.27826H19.4531C19.2927 4.27826 19.162 4.1478 19.162 3.98712V2.92877C19.162 2.76833 19.2927 2.63763 19.4531 2.63763H22.912C23.0724 2.63763 23.2031 2.76833 23.2031 2.92877V3.98712C23.2031 4.1478 23.0724 4.27826 22.912 4.27826H20.3011ZM27.5391 19.2178C27.5391 20.438 26.5524 21.4316 25.3352 21.4437C25.3276 21.4435 25.3201 21.4426 25.3125 21.4426H25.245C24.0484 21.4066 23.0859 20.4229 23.0859 19.2178C23.0859 18.7523 23.231 18.3023 23.4984 17.9269H27.1266C27.394 18.3023 27.5391 18.7523 27.5391 19.2178ZM22.1111 16.7551L24.3455 12.7755C26.6272 12.8174 28.5059 14.5397 28.7906 16.7551H22.1111Z" fill="white"/>
</svg>
