<svg width="23" height="23" viewBox="0 0 23 23" fill="none" xmlns="http://www.w3.org/2000/svg">
<path d="M12.3503 10.9325C15.145 10.9325 17.4106 8.66695 17.4106 5.87223C17.4106 3.07752 15.145 0.811951 12.3503 0.811951C9.5556 0.811951 7.29004 3.07752 7.29004 5.87223C7.29004 8.66695 9.5556 10.9325 12.3503 10.9325Z" fill="#F6E266"/>
<path d="M12.7268 10.9189C12.6025 10.9282 12.4768 10.9327 12.3503 10.9327C9.55555 10.9327 7.29004 8.66673 7.29004 5.87201C7.29004 3.07771 9.55555 0.811768 12.3503 0.811768C12.4768 0.811768 12.6024 0.816206 12.7268 0.825515C10.1079 1.01819 8.043 3.20424 8.043 5.87201C8.043 8.5402 10.1079 10.7263 12.7268 10.9189Z" fill="#EAB14D"/>
<path d="M12.3496 9.28915C14.2367 9.28915 15.7666 7.75932 15.7666 5.87218C15.7666 3.98503 14.2367 2.4552 12.3496 2.4552C10.4624 2.4552 8.93262 3.98503 8.93262 5.87218C8.93262 7.75932 10.4624 9.28915 12.3496 9.28915Z" fill="#EAB14D"/>
<path d="M12.9017 5.53157C12.4776 5.4081 12.0075 5.25826 11.7359 5.08282C11.6094 5.00111 11.6104 4.86988 11.6222 4.79891C11.647 4.64988 11.7695 4.46686 12.0386 4.4001C12.6299 4.25336 13.0109 4.51771 13.0322 4.53297C13.1785 4.64187 13.3856 4.61278 13.4961 4.46725C13.6073 4.32081 13.5788 4.11193 13.4324 4.0007C13.415 3.98747 13.1265 3.77354 12.6561 3.7089V3.53083C12.6561 3.34694 12.507 3.19788 12.3232 3.19788C12.1393 3.19788 11.9902 3.34694 11.9902 3.53083V3.72937C11.9534 3.73652 11.9161 3.74437 11.8782 3.75376C11.3985 3.87275 11.0402 4.24 10.9653 4.6894C10.9014 5.07273 11.0583 5.43784 11.3746 5.64215C11.6516 5.82104 12.0401 5.97424 12.7156 6.17088C13.0662 6.27298 13.2466 6.47962 13.2105 6.73784C13.1555 7.13156 12.7113 7.34626 12.3213 7.34837C11.8711 7.35083 11.6933 7.33437 11.3122 7.12911C11.1504 7.04188 10.9484 7.10243 10.8612 7.2643C10.774 7.4262 10.8345 7.62815 10.9964 7.71537C11.3848 7.92464 11.6524 7.99023 11.9902 8.00825V8.21364C11.9902 8.39753 12.1393 8.54659 12.3232 8.54659C12.507 8.54659 12.6561 8.39753 12.6561 8.21364V7.98442C13.3663 7.85681 13.7988 7.33976 13.8701 6.83003C13.9531 6.23665 13.573 5.72696 12.9017 5.53157Z" fill="#F6E266"/>
<path d="M9.95996 14.8512L15.6639 11.5429C16.3316 11.138 17.1966 11.2953 17.679 11.9094C18.1436 12.5006 18.1148 13.3405 17.611 13.8986L11.2719 16.6195L9.95996 14.8512Z" fill="#EAAC9D"/>
<path d="M12.3223 14.9912L18.0262 11.6829C18.6939 11.278 19.5589 11.4353 20.0413 12.0493C20.5059 12.6406 20.4771 13.4804 19.9733 14.0385L13.6342 16.7594L12.3223 14.9912Z" fill="#FFCBBE"/>
<path d="M7.29511 20.1714L4.1399 22.1883L2.17096 18.7658L0 14.9913L3.15521 12.9744L6.95854 14.2718L6.89946 16.5578L7.29511 20.1714Z" fill="#90D8F9"/>
<path d="M7.29411 20.1713L4.1389 22.1882L2.16992 18.7657C4.42833 18.9428 5.52445 17.0947 5.52445 17.0947L7.06377 17.7213L7.29411 20.1713Z" fill="#6BBEF6"/>
<path d="M22.0646 13.605C22.0646 13.9763 21.9312 14.3468 21.6667 14.6397L20.6122 15.8074L18.4484 18.204C18.0882 18.6028 17.5976 18.8592 17.0651 18.927L7.295 20.1714L4.79888 15.8318C4.78001 15.8005 4.76199 15.7688 4.74398 15.7366C4.74096 15.7315 4.73842 15.7263 4.7354 15.7216L4.61021 15.5033C4.60806 15.4999 4.6059 15.4965 4.60422 15.4935L3.15527 12.9742L5.45285 11.2096C6.52403 10.3872 7.73155 9.76668 9.01631 9.37473C9.07078 9.35801 9.12521 9.34172 9.17968 9.32629C9.56948 9.21394 9.96656 9.12219 10.3683 9.05229L10.7663 8.98282C11.5887 8.84005 12.3761 9.37688 12.5428 10.1947C12.5639 10.2976 12.5741 10.4009 12.5741 10.5034C12.5741 10.9948 12.3387 11.4644 11.9296 11.7577L9.39404 13.5741L16.1911 14.4236L19.7194 12.2843C20.3871 11.8795 21.252 12.0369 21.7344 12.651C21.9553 12.9318 22.0646 13.2688 22.0646 13.605Z" fill="#FFDDCE"/>
<path d="M20.6132 15.8075L18.4493 18.2041C18.0892 18.603 17.5986 18.8594 17.066 18.9271L7.29592 20.1715L4.7998 15.8319C7.7526 20.8272 19.4301 17.1179 20.6132 15.8075Z" fill="#FFCBBE"/>
<path d="M4.61035 15.5034C4.65237 15.5746 4.69396 15.6471 4.73554 15.7217L4.61035 15.5034Z" fill="#FFCBBE"/>
<path d="M4.83343 20.4167C5.20851 20.4167 5.51257 20.1127 5.51257 19.7376C5.51257 19.3625 5.20851 19.0585 4.83343 19.0585C4.45836 19.0585 4.1543 19.3625 4.1543 19.7376C4.1543 20.1127 4.45836 20.4167 4.83343 20.4167Z" fill="white"/>
<path d="M5.62912 5.83067V5.91375C5.62912 6.20676 5.40222 6.44973 5.10991 6.46981L4.21072 6.53148C3.88863 6.55359 3.61523 6.29825 3.61523 5.97542V5.769C3.61523 5.44617 3.88867 5.19087 4.21072 5.21294L5.10991 5.27461C5.40222 5.29469 5.62912 5.53766 5.62912 5.83067Z" fill="#F6E781"/>
<path d="M6.32239 8.50331L6.36393 8.57528C6.51045 8.82903 6.43543 9.15293 6.19228 9.31643L5.44441 9.81944C5.17653 9.99962 4.81207 9.91524 4.65068 9.63564L4.54747 9.45684C4.38603 9.17724 4.49519 8.81946 4.78518 8.67755L5.59472 8.28137C5.85791 8.15256 6.17586 8.24957 6.32239 8.50331Z" fill="#F6E781"/>
<path d="M6.36391 3.16909L6.32237 3.24106C6.17584 3.4948 5.85789 3.59181 5.59471 3.463L4.78516 3.06682C4.49517 2.92491 4.38606 2.56709 4.54745 2.28753L4.65066 2.10873C4.8121 1.82913 5.17651 1.74475 5.44439 1.92493L6.19226 2.42794C6.43541 2.59148 6.51039 2.91534 6.36391 3.16909Z" fill="#F6E781"/>
<path d="M19.0684 5.8306V5.91369C19.0684 6.2067 19.2953 6.44967 19.5876 6.46975L20.4868 6.53142C20.8088 6.55353 21.0822 6.29819 21.0822 5.97536V5.76894C21.0822 5.44611 20.8088 5.19081 20.4868 5.21288L19.5876 5.27455C19.2953 5.29463 19.0684 5.5376 19.0684 5.8306Z" fill="#F6E781"/>
<path d="M18.3751 8.50337L18.3335 8.57534C18.187 8.82909 18.262 9.15299 18.5052 9.31649L19.253 9.8195C19.5209 9.99968 19.8854 9.9153 20.0468 9.6357L20.15 9.4569C20.3114 9.1773 20.2023 8.81952 19.9123 8.67761L19.1027 8.28143C18.8395 8.15262 18.5216 8.24963 18.3751 8.50337Z" fill="#F6E781"/>
<path d="M18.3345 3.16909L18.376 3.24106C18.5225 3.4948 18.8405 3.59181 19.1037 3.463L19.9132 3.06682C20.2032 2.92491 20.3123 2.56709 20.1509 2.28753L20.0477 2.10873C19.8863 1.82913 19.5219 1.74475 19.254 1.92493L18.5061 2.42794C18.263 2.59148 18.188 2.91534 18.3345 3.16909Z" fill="#F6E781"/>
</svg>
