<svg width="92" height="62" viewBox="0 0 92 62" fill="none" xmlns="http://www.w3.org/2000/svg">
<path d="M48 61.3242C65.1208 61.3242 79 47.6689 79 30.8242C79 13.9795 65.1208 0.324219 48 0.324219C30.8792 0.324219 17 13.9795 17 30.8242C17 47.6689 30.8792 61.3242 48 61.3242Z" fill="#CDD6E0"/>
<path d="M48 53.3242C60.1503 53.3242 70 43.2506 70 30.8242C70 18.3978 60.1503 8.32422 48 8.32422C35.8497 8.32422 26 18.3978 26 30.8242C26 43.2506 35.8497 53.3242 48 53.3242Z" fill="#ACB3BA"/>
<path d="M15.6879 0.0164926C15.0476 0.0164926 14.6634 0.656838 14.6634 1.16919V12.8242C14.6634 13.4646 14.151 13.9769 13.5107 13.9769C12.8703 13.9769 12.358 13.4646 12.358 12.8242V1.16919C12.358 0.528841 11.9738 0.0164926 11.3334 0.0164926C10.6931 -0.111624 10.0526 0.528841 10.0526 1.16919V12.8242C10.0526 13.4646 9.54025 13.9769 8.89991 13.9769C8.25956 13.9769 7.74721 13.4646 7.74721 12.8242V1.16919C7.74721 0.528841 7.36298 0.0164926 6.72264 0.0164926C6.08229 -0.111624 5.44183 0.528841 5.44183 1.16919V12.8242C5.44183 13.4646 4.92948 13.9769 4.28913 13.9769C3.64879 13.9769 3.13644 13.4646 3.13644 12.8242V1.16919C3.13644 0.528841 2.75221 0.0164926 2.11186 0.0164926C1.47152 -0.111624 0.831055 0.528841 0.831055 1.16919V14.1049C0.831055 16.2822 1.72763 18.2034 3.13644 19.7403C5.44183 22.0457 6.72264 25.2476 6.4664 28.4495L3.9049 56.1141C3.9049 56.3702 3.9049 56.7545 3.9049 57.0107C4.16102 59.8284 6.85064 61.8776 9.66837 61.3654C12.2299 60.853 13.8949 58.4196 13.6388 55.858L11.2053 28.3215C10.9492 24.9915 12.2299 21.9177 14.5353 19.6123C15.9441 18.2035 16.8406 16.1542 16.8406 13.9769V1.16919C16.8406 0.528841 16.3283 0.0164926 15.6879 0.0164926Z" fill="#F2F2F2"/>
<path d="M11.3332 28.834H6.46634L4.03284 56.1144C4.03284 56.3705 4.03284 56.7547 4.03284 57.011C4.28895 59.8287 6.97857 61.8779 9.7963 61.3656C12.3578 60.8533 14.0228 58.4199 13.7667 55.8583L11.3332 28.834Z" fill="#40596B"/>
<path d="M90.0707 0.0175781C90.0707 0.0175781 84.5634 2.19485 82.258 18.7168C81.3614 25.5048 82.7703 32.1649 85.3318 38.4407C85.5879 39.081 85.7161 39.8495 85.7161 40.618L84.1791 57.1399C84.1791 57.396 84.1791 57.6522 84.1791 57.9084C84.4352 60.0856 86.3564 61.7507 88.6618 61.4945C90.7111 61.2384 92.1199 59.061 91.9917 57.0119L90.0707 0.0175781Z" fill="#F2F2F2"/>
<path d="M85.7162 40.4902C85.7162 40.6184 85.7162 40.6184 85.7162 40.7463L84.1793 57.2683C84.1793 57.5244 84.1793 57.7806 84.1793 58.0367C84.4354 60.214 86.3566 61.879 88.662 61.6229C90.7113 61.3668 92.1201 59.1894 91.9919 57.1403L91.4796 40.6183H85.7161V40.4902H85.7162Z" fill="#FF7058"/>
</svg>
