<svg width="12" height="12" viewBox="0 0 12 12" fill="none" xmlns="http://www.w3.org/2000/svg">
<path d="M10.6549 9.57981C10.3767 8.92086 9.97302 8.32231 9.46629 7.81751C8.9611 7.31125 8.36265 6.90761 7.704 6.62888C7.6981 6.62593 7.6922 6.62446 7.6863 6.62151C8.60505 5.95788 9.20232 4.87691 9.20232 3.65732C9.20232 1.63694 7.56537 0 5.545 0C3.52463 0 1.88768 1.63694 1.88768 3.65732C1.88768 4.87691 2.48495 5.95788 3.4037 6.62298C3.3978 6.62593 3.3919 6.62741 3.386 6.63036C2.72533 6.90908 2.13249 7.30873 1.62371 7.81899C1.11745 8.32418 0.71381 8.92263 0.435081 9.58128C0.161257 10.2261 0.0135777 10.9174 3.6877e-05 11.6179C-0.000356734 11.6336 0.00240399 11.6493 0.00815646 11.6639C0.0139089 11.6786 0.0225367 11.6919 0.0335314 11.7032C0.0445261 11.7145 0.0576653 11.7234 0.0721747 11.7295C0.0866842 11.7357 0.10227 11.7388 0.118015 11.7388H1.00285C1.06774 11.7388 1.11935 11.6872 1.12083 11.6238C1.15032 10.4853 1.60749 9.41906 2.41564 8.61091C3.2518 7.77474 4.36227 7.31463 5.545 7.31463C6.72773 7.31463 7.8382 7.77474 8.67437 8.61091C9.48251 9.41906 9.93968 10.4853 9.96917 11.6238C9.97065 11.6887 10.0223 11.7388 10.0872 11.7388H10.972C10.9877 11.7388 11.0033 11.7357 11.0178 11.7295C11.0323 11.7234 11.0455 11.7145 11.0565 11.7032C11.0675 11.6919 11.0761 11.6786 11.0818 11.6639C11.0876 11.6493 11.0904 11.6336 11.09 11.6179C11.0752 10.913 10.9292 10.2272 10.6549 9.57981ZM5.545 6.19384C4.8681 6.19384 4.23102 5.92987 3.75174 5.45058C3.27245 4.97129 3.00847 4.33421 3.00847 3.65732C3.00847 2.98042 3.27245 2.34334 3.75174 1.86405C4.23102 1.38477 4.8681 1.12079 5.545 1.12079C6.2219 1.12079 6.85898 1.38477 7.33826 1.86405C7.81755 2.34334 8.08153 2.98042 8.08153 3.65732C8.08153 4.33421 7.81755 4.97129 7.33826 5.45058C6.85898 5.92987 6.2219 6.19384 5.545 6.19384Z" fill="#979797"/>
</svg>
