<svg width="21" height="21" viewBox="0 0 21 21" fill="none" xmlns="http://www.w3.org/2000/svg">
<path d="M21 17.0513V17.0382V17.0366C20.9996 16.7943 20.9406 16.5549 20.8279 16.3397C20.7147 16.1245 20.5474 15.9333 20.3318 15.7898L20.3314 15.7894L16.1798 13.0206L16.175 13.019C15.9276 12.8624 15.6487 12.7851 15.373 12.7851H15.3726H15.3722H15.3718H15.3706C15.1471 12.7855 14.9255 12.8353 14.7227 12.9321C14.5196 13.0294 14.3347 13.174 14.1877 13.3621L14.1829 13.3681L14.1825 13.3685L12.9852 14.9081L12.984 14.9097L12.9816 14.9125C12.9605 14.9403 12.9342 14.9615 12.9047 14.9758C12.8752 14.9902 12.8426 14.9977 12.8095 14.9977C12.7736 14.9977 12.739 14.9894 12.7055 14.9706H12.7051L12.4828 14.8483L12.482 14.8479L12.474 14.8435C12.0947 14.6367 11.6891 14.4156 11.1349 14.0084C10.5815 13.6011 9.88144 13.0075 8.93876 12.0643C7.99567 11.1208 7.40201 10.4207 6.99482 9.86686C6.58723 9.31261 6.3657 8.90659 6.15892 8.52806L6.03182 8.29576V8.29537C6.01269 8.2615 6.00433 8.22643 6.00393 8.18978C6.00393 8.1567 6.0115 8.12403 6.02584 8.09495C6.04018 8.06546 6.0609 8.03956 6.08879 8.01804L7.63669 6.81352L7.63749 6.81313H7.63709C7.82515 6.6657 7.96978 6.48122 8.06659 6.27761C8.16341 6.0748 8.21322 5.85326 8.21361 5.62972V5.62853V5.62773V5.62733V5.62534C8.21322 5.34164 8.13233 5.05476 7.96659 4.80214L7.96619 4.80174L7.965 4.79975L5.21026 0.668602C5.06682 0.45304 4.87597 0.285291 4.66042 0.17253C4.44687 0.0601662 4.2094 0.00119536 3.96875 0C3.96596 0 3.96437 0 3.96317 0H3.96238C3.96158 0 3.95919 0 3.95481 0C3.69423 0.00119536 3.42968 0.0709244 3.19142 0.214367L3.18664 0.217156L1.46463 1.25154C1.46463 1.25154 1.46423 1.25154 1.46423 1.25194L1.46343 1.25233C0.856224 1.61054 0.410382 2.18949 0.219933 2.86845L0.218738 2.87284L0.217941 2.87682C0.0848654 3.36373 0 3.92116 0 4.54833V4.54873C0 5.77396 0.323126 7.26138 1.22238 9.01457C2.12163 10.7686 3.59503 12.7903 5.90233 15.0981C8.21003 17.4056 10.2317 18.879 11.9851 19.7779C13.7378 20.6765 15.2252 20.9996 16.4499 20.9996C16.4503 20.9996 16.4503 20.9996 16.4507 20.9996H16.4511C16.4599 20.9996 16.4687 20.9996 16.4766 20.9996C17.0328 20.9996 17.5863 20.9263 18.1233 20.7812H18.1237L18.1257 20.7809L18.1281 20.7801H18.1289H18.1297C18.7728 20.6 19.3258 20.1907 19.6868 19.6321H19.6888L20.7852 17.8096C20.9271 17.5741 20.9964 17.3131 20.9992 17.0557L21 17.0513ZM18.6489 18.8842C18.4588 19.2086 18.1512 19.4468 17.7899 19.55C17.4002 19.6568 16.9516 19.7254 16.4384 19.7254C15.4013 19.7254 14.0976 19.4448 12.4979 18.6125C10.8986 17.7805 9.00609 16.3951 6.80597 14.1948C4.60584 11.9942 3.2209 10.1015 2.38858 8.50216C1.55626 6.90238 1.27577 5.59865 1.27577 4.56148C1.27577 4.04827 1.3443 3.59961 1.45148 3.20993C1.55467 2.84773 1.79373 2.53933 2.11885 2.34927L2.11964 2.34887L3.84245 1.31489H3.84285L3.84962 1.31091C3.88628 1.28899 3.92413 1.27943 3.96317 1.27903C3.99943 1.27903 4.03529 1.2878 4.06677 1.30453C4.09864 1.32127 4.12613 1.34517 4.14765 1.37785L5.64375 3.62432L6.8988 5.5066C6.9243 5.54565 6.93585 5.58669 6.93625 5.63012C6.93625 5.66399 6.92868 5.69746 6.91434 5.72735C6.89999 5.75763 6.87888 5.78472 6.85019 5.80704L5.30508 7.00877C5.11663 7.1534 4.9704 7.33629 4.87239 7.53871C4.77398 7.74152 4.72298 7.96385 4.72258 8.18898V8.19018V8.19057V8.19257C4.72298 8.43841 4.78434 8.68744 4.91104 8.91496L4.91143 8.91576V8.91615L5.03375 9.13849C5.2509 9.53694 5.50509 10.0031 5.95173 10.6116C6.39877 11.2208 7.03745 11.9731 8.03153 12.9668C9.02561 13.961 9.77785 14.5997 10.387 15.0463C10.9954 15.493 11.4612 15.7472 11.8596 15.9648L12.08 16.0863C12.08 16.0863 12.08 16.0863 12.0804 16.0863L12.082 16.0871C12.0828 16.0875 12.0836 16.0879 12.0844 16.0883L12.0851 16.0887C12.3127 16.215 12.5617 16.2764 12.8075 16.2764H12.8079H12.8083C13.0334 16.2764 13.2565 16.225 13.4597 16.1265C13.6621 16.0281 13.845 15.8823 13.9896 15.6938L15.1913 14.149C15.214 14.1203 15.2407 14.0996 15.271 14.0849C15.3013 14.0705 15.3343 14.063 15.3682 14.063C15.4116 14.0634 15.4527 14.0745 15.4917 14.1004L19.6151 16.8505L19.6155 16.8509L19.6202 16.8541C19.6529 16.8756 19.6768 16.9031 19.6936 16.935C19.7103 16.9665 19.7191 17.0023 19.7191 17.0386C19.7191 17.078 19.7091 17.1155 19.6872 17.1522L19.6832 17.1589V17.1593L18.6489 18.8842ZM11.9489 15.8006L11.9549 15.7898L11.9489 15.8006Z" fill="#536DFE"/>
<path d="M11.8448 3.99929C11.8532 4.00009 11.8575 4.00009 11.8595 4.00009C13.3732 4.00168 14.7414 4.6153 15.7339 5.60744C16.726 6.59998 17.3395 7.96826 17.3411 9.48198C17.3411 9.6577 17.4128 9.81827 17.528 9.93343C17.6411 10.0466 17.7981 10.1175 17.9698 10.1199V10.1203L17.9746 10.1207H17.9794H17.9814C18.1563 10.1203 18.3165 10.0486 18.4312 9.93382C18.5428 9.82226 18.6129 9.66806 18.6173 9.49911L18.6181 9.49075V9.48198V9.48158V9.48118C18.6161 7.61643 17.8587 5.9266 16.6363 4.70455C15.4143 3.4821 13.7246 2.72465 11.8595 2.72266H11.8591C11.6834 2.72266 11.5225 2.79438 11.4073 2.90993C11.293 3.02389 11.2217 3.18287 11.2205 3.35659C11.2205 3.35659 11.2205 3.35819 11.2205 3.36177C11.2205 3.53749 11.2922 3.69806 11.4077 3.81322C11.5197 3.92518 11.6747 3.99531 11.8448 3.99929Z" fill="#536DFE"/>
<path d="M11.2213 5.41391C11.2241 5.58564 11.2947 5.74303 11.4078 5.85579C11.5226 5.97094 11.6835 6.04306 11.8592 6.04306C12.8095 6.04426 13.6681 6.42916 14.2916 7.05234C14.9148 7.67552 15.2997 8.53418 15.3009 9.48489C15.3009 9.66061 15.3726 9.82118 15.4881 9.93633C15.6033 10.0515 15.7638 10.1236 15.9395 10.1236C16.1152 10.1236 16.2762 10.0519 16.3914 9.93633C16.5065 9.82118 16.5786 9.66021 16.5786 9.48449V9.48409C16.577 8.18235 16.0483 7.00214 15.1949 6.14905C14.3426 5.29636 13.1637 4.76762 11.8632 4.76562H11.8608H11.8604H11.86H11.8596C11.6839 4.76562 11.5234 4.83735 11.4082 4.9529C11.2927 5.06805 11.2209 5.22863 11.2209 5.40434C11.2209 5.40554 11.2209 5.40912 11.2213 5.41391Z" fill="#536DFE"/>
<path d="M14.5374 9.4928L14.5382 9.48443V9.47567V9.47527V9.47487C14.5374 8.73654 14.237 8.06594 13.7529 7.58222C13.2688 7.0981 12.5986 6.79767 11.8599 6.79688H11.8595C11.6838 6.79688 11.5229 6.8686 11.4077 6.98415C11.2926 7.0993 11.2205 7.25988 11.2205 7.43599C11.2205 7.61171 11.2922 7.77268 11.4077 7.88784C11.5225 8.00299 11.6834 8.07511 11.8591 8.07511C12.2464 8.07551 12.5954 8.2321 12.8496 8.48591C13.1034 8.74012 13.26 9.08917 13.2608 9.47646C13.2608 9.65218 13.3325 9.81276 13.4481 9.92791C13.56 10.0399 13.715 10.1104 13.8848 10.1144L13.8923 10.1148H13.8999H13.9007H13.9027C14.0772 10.114 14.237 10.0427 14.3517 9.92791C14.4629 9.81594 14.533 9.66174 14.5374 9.4928Z" fill="#536DFE"/>
</svg>
