<svg width="19" height="19" viewBox="0 0 19 19" fill="none" xmlns="http://www.w3.org/2000/svg">
    <path d="M18.6 15.1779V15.1665V15.1651C18.5996 14.9551 18.5485 14.7476 18.4508 14.5611C18.3527 14.3746 18.2077 14.2089 18.0209 14.0846L18.0205 14.0842L14.4224 11.6846L14.4183 11.6832C14.2039 11.5475 13.9621 11.4805 13.7232 11.4805H13.7228H13.7225H13.7222H13.7211C13.5274 11.4808 13.3354 11.524 13.1597 11.6079C12.9835 11.6921 12.8233 11.8175 12.6959 11.9805L12.6918 11.9857L12.6914 11.986L11.6538 13.3204L11.6527 13.3217L11.6507 13.3242C11.6324 13.3483 11.6096 13.3666 11.584 13.3791C11.5585 13.3915 11.5302 13.3981 11.5015 13.3981C11.4704 13.3981 11.4404 13.3908 11.4114 13.3746H11.411L11.2183 13.2686L11.2177 13.2682L11.2107 13.2644C10.882 13.0852 10.5305 12.8935 10.0502 12.5406C9.57054 12.1877 8.96384 11.6732 8.14685 10.8558C7.32951 10.038 6.815 9.4313 6.4621 8.9513C6.10885 8.47095 5.91686 8.11906 5.73765 7.791L5.62749 7.58968V7.58933C5.61092 7.55998 5.60367 7.52959 5.60332 7.49782C5.60332 7.46916 5.60988 7.44084 5.62231 7.41563C5.63474 7.39008 5.6527 7.36763 5.67687 7.34898L7.01839 6.30507L7.01908 6.30472H7.01873C7.18172 6.17695 7.30706 6.01706 7.39097 5.8406C7.47488 5.66483 7.51804 5.47283 7.51839 5.2791V5.27807V5.27738V5.27703V5.2753C7.51804 5.02943 7.44795 4.7808 7.3043 4.56186L7.30395 4.56152L7.30292 4.55979L4.91547 0.979451C4.79116 0.792629 4.62576 0.647247 4.43895 0.54952C4.25386 0.452138 4.04806 0.40103 3.8395 0.399994C3.83708 0.399994 3.8357 0.399994 3.83466 0.399994H3.83397C3.83328 0.399994 3.83121 0.399994 3.82741 0.399994C3.60158 0.40103 3.3723 0.461462 3.1658 0.585779L3.16166 0.588196L1.66925 1.48466C1.66925 1.48466 1.6689 1.48466 1.6689 1.48501L1.66821 1.48535C1.14197 1.7958 0.755568 2.29756 0.590511 2.88599L0.589475 2.88979L0.588785 2.89325C0.473453 3.31523 0.399902 3.79835 0.399902 4.34189V4.34223C0.399902 5.40411 0.679946 6.69321 1.4593 8.21265C2.23866 9.73277 3.5156 11.485 5.51527 13.4851C7.51528 15.4849 9.26736 16.7619 10.7871 17.5409C12.3061 18.3196 13.5951 18.5997 14.6566 18.5997C14.6569 18.5997 14.6569 18.5997 14.6572 18.5997H14.6576C14.6652 18.5997 14.6728 18.5997 14.6797 18.5997C15.1617 18.5997 15.6414 18.5362 16.1068 18.4105H16.1072L16.1089 18.4101L16.111 18.4094H16.1117H16.1124C16.6697 18.2533 17.149 17.8987 17.4618 17.4145H17.4636L18.4138 15.835C18.5368 15.6309 18.5968 15.4047 18.5993 15.1817L18.6 15.1779ZM16.5623 16.7664C16.3976 17.0475 16.131 17.254 15.8178 17.3434C15.4801 17.436 15.0913 17.4953 14.6465 17.4953C13.7477 17.4953 12.6179 17.2522 11.2315 16.5309C9.84541 15.8098 8.2052 14.6091 6.29842 12.7022C4.39164 10.795 3.19136 9.15469 2.47001 7.76856C1.74867 6.38207 1.50557 5.25217 1.50557 4.35328C1.50557 3.9085 1.56497 3.51967 1.65785 3.18194C1.74729 2.86804 1.95447 2.60076 2.23624 2.43603L2.23693 2.43569L3.73004 1.53957H3.73038L3.73625 1.53612C3.76802 1.51712 3.80082 1.50883 3.83466 1.50849C3.86609 1.50849 3.89716 1.51609 3.92444 1.53059C3.95207 1.54509 3.97589 1.56581 3.99454 1.59413L5.29116 3.54108L6.37888 5.1724C6.40098 5.20624 6.41099 5.24181 6.41134 5.27945C6.41134 5.3088 6.40478 5.33781 6.39235 5.36371C6.37991 5.38995 6.36161 5.41343 6.33675 5.43277L4.99765 6.47427C4.83432 6.59963 4.7076 6.75813 4.62265 6.93356C4.53736 7.10933 4.49316 7.30202 4.49282 7.49713V7.49817V7.49851V7.50024C4.49316 7.7133 4.54634 7.92913 4.65615 8.12631L4.65649 8.127V8.12735L4.7625 8.32004C4.95069 8.66537 5.171 9.0694 5.55809 9.59671C5.94552 10.1247 6.49905 10.7767 7.36058 11.6379C8.22212 12.4995 8.87406 13.0531 9.40203 13.4402C9.92932 13.8273 10.333 14.0476 10.6783 14.2362L10.8692 14.3415C10.8692 14.3415 10.8692 14.3415 10.8696 14.3415L10.871 14.3422C10.8717 14.3425 10.8723 14.3429 10.873 14.3432L10.8737 14.3436C11.0709 14.453 11.2867 14.5062 11.4998 14.5062H11.5001H11.5005C11.6956 14.5062 11.8889 14.4617 12.065 14.3764C12.2405 14.2911 12.3989 14.1647 12.5243 14.0013L13.5657 12.6625C13.5854 12.6376 13.6086 12.6197 13.6348 12.6069C13.661 12.5945 13.6897 12.5879 13.7191 12.5879C13.7567 12.5883 13.7923 12.5979 13.8261 12.6204L17.3997 15.0038L17.4 15.0042L17.4042 15.0069C17.4325 15.0256 17.4532 15.0494 17.4677 15.077C17.4822 15.1043 17.4898 15.1354 17.4898 15.1668C17.4898 15.201 17.4812 15.2335 17.4622 15.2652L17.4587 15.2711V15.2714L16.5623 16.7664ZM10.7556 14.0939L10.7608 14.0846L10.7556 14.0939Z" fill="white"/>
    <path d="M10.6656 3.86515C10.6729 3.86584 10.6767 3.86584 10.6784 3.86584C11.9902 3.86722 13.176 4.39902 14.0361 5.25888C14.896 6.11909 15.4277 7.30494 15.4291 8.61683C15.4291 8.76911 15.4913 8.90828 15.5911 9.00808C15.6891 9.10615 15.8252 9.16762 15.974 9.16969V9.17004L15.9781 9.17038H15.9823H15.984C16.1356 9.17004 16.2744 9.10788 16.3739 9.00842C16.4705 8.91173 16.5313 8.77809 16.5351 8.63168L16.5358 8.62442V8.61683V8.61648V8.61614C16.5341 7.00001 15.8777 5.53549 14.8183 4.47638C13.7592 3.41692 12.2948 2.76045 10.6784 2.75873H10.678C10.5258 2.75873 10.3863 2.82089 10.2865 2.92103C10.1874 3.01979 10.1255 3.15758 10.1245 3.30814C10.1245 3.30814 10.1245 3.30952 10.1245 3.31263C10.1245 3.46492 10.1867 3.60408 10.2868 3.70388C10.3838 3.80092 10.5182 3.8617 10.6656 3.86515Z" fill="white"/>
    <path d="M10.1253 5.08901C10.1278 5.23784 10.1889 5.37425 10.2869 5.47197C10.3864 5.57177 10.5259 5.63428 10.6782 5.63428C11.5017 5.63531 12.2459 5.9689 12.7863 6.50899C13.3263 7.04908 13.6599 7.79325 13.6609 8.6172C13.6609 8.76949 13.7231 8.90865 13.8232 9.00845C13.923 9.10825 14.0622 9.17076 14.2145 9.17076C14.3667 9.17076 14.5062 9.1086 14.606 9.00845C14.7058 8.90865 14.7683 8.76914 14.7683 8.61685V8.61651C14.767 7.48833 14.3087 6.46547 13.5691 5.72613C12.8305 4.98713 11.8087 4.52889 10.6816 4.52716H10.6796H10.6792H10.6789H10.6785C10.5262 4.52716 10.3871 4.58932 10.2873 4.68946C10.1872 4.78926 10.125 4.92843 10.125 5.08072C10.125 5.08175 10.125 5.08486 10.1253 5.08901Z" fill="white"/>
    <path d="M12.9992 8.63133L12.9999 8.62408V8.61649V8.61614V8.6158C12.9992 7.97591 12.7388 7.39472 12.3193 6.9755C11.8997 6.55593 11.3189 6.29555 10.6787 6.29486H10.6784C10.5261 6.29486 10.3866 6.35702 10.2868 6.45716C10.187 6.55696 10.1245 6.69613 10.1245 6.84876C10.1245 7.00105 10.1867 7.14056 10.2868 7.24036C10.3863 7.34016 10.5258 7.40267 10.678 7.40267C11.0137 7.40301 11.3162 7.53872 11.5365 7.7587C11.7564 7.97901 11.8921 8.28152 11.8928 8.61718C11.8928 8.76947 11.955 8.90863 12.0551 9.00843C12.1521 9.10547 12.2865 9.16659 12.4336 9.17004L12.4401 9.17039H12.4467H12.4474H12.4491C12.6004 9.1697 12.7388 9.10788 12.8383 9.00843C12.9346 8.91139 12.9954 8.77775 12.9992 8.63133Z" fill="white"/>
</svg>
