<svg width="14" height="14" viewBox="0 0 14 14" fill="none" xmlns="http://www.w3.org/2000/svg">
<path d="M13.2 10.718V10.7097V10.7087C13.1997 10.5564 13.1627 10.4059 13.0918 10.2707C13.0207 10.1354 12.9155 10.0152 12.78 9.92505L12.7798 9.92479L10.1702 8.18438L10.1672 8.18338C10.0116 8.08495 9.83632 8.03636 9.66302 8.03636H9.66277H9.66252H9.66227H9.66152C9.52102 8.03661 9.38177 8.06792 9.2543 8.12878C9.12657 8.18989 9.01037 8.28081 8.91796 8.39902L8.91495 8.40278L8.9147 8.40303L8.16213 9.37079L8.16138 9.37179L8.15987 9.37354C8.1466 9.39107 8.13007 9.40435 8.11154 9.41337C8.09301 9.42238 8.07247 9.42714 8.05168 9.42714C8.02914 9.42714 8.00735 9.42188 7.98632 9.41011H7.98607L7.84632 9.33322L7.84582 9.33297L7.84081 9.33021C7.60239 9.20023 7.34744 9.06122 6.99908 8.80526C6.65122 8.54929 6.21119 8.17612 5.61865 7.58329C5.02585 6.99021 4.6527 6.55016 4.39674 6.20203C4.14054 5.85364 4.0013 5.59843 3.87132 5.3605L3.79143 5.21448V5.21423C3.77941 5.19294 3.77415 5.1709 3.7739 5.14786C3.7739 5.12707 3.77866 5.10653 3.78767 5.08825C3.79669 5.06972 3.80971 5.05344 3.82724 5.03991L4.8002 4.28279L4.80071 4.28254H4.80046C4.91866 4.18987 5.00957 4.07391 5.07043 3.94592C5.13129 3.81844 5.16259 3.67919 5.16284 3.53868V3.53793V3.53743V3.53718V3.53593C5.16259 3.3576 5.11175 3.17728 5.00757 3.01849L5.00732 3.01824L5.00657 3.01699L3.27502 0.420264C3.18486 0.284768 3.0649 0.179326 2.92941 0.108447C2.79517 0.0378188 2.64591 0.000751366 2.49464 0C2.49289 0 2.49189 0 2.49114 0H2.49064C2.49014 0 2.48863 0 2.48588 0C2.32209 0.000751366 2.1558 0.0445811 2.00603 0.134745L2.00303 0.136498L0.920622 0.78668C0.920622 0.78668 0.920371 0.78668 0.920371 0.786931L0.91987 0.787181C0.538198 1.01234 0.257954 1.37625 0.138243 1.80303L0.137492 1.80578L0.136991 1.80829C0.053344 2.11434 0 2.46473 0 2.85895V2.8592C0 3.62935 0.203108 4.5643 0.768353 5.6663C1.3336 6.76881 2.25973 8.03962 3.71003 9.49026C5.16059 10.9406 6.43133 11.8668 7.53352 12.4319C8.63521 12.9966 9.57011 13.1997 10.34 13.1997C10.3402 13.1997 10.3402 13.1997 10.3405 13.1997H10.3407C10.3462 13.1997 10.3517 13.1997 10.3567 13.1997C10.7064 13.1997 11.0542 13.1537 11.3918 13.0625H11.3921L11.3933 13.0622L11.3948 13.0617H11.3953H11.3958C11.8 12.9485 12.1476 12.6913 12.3745 12.3402H12.3758L13.065 11.1946C13.1542 11.0466 13.1977 10.8825 13.1995 10.7207L13.2 10.718ZM11.7221 11.8701C11.6027 12.074 11.4093 12.2237 11.1822 12.2886C10.9373 12.3557 10.6553 12.3988 10.3327 12.3988C9.6808 12.3988 8.86136 12.2225 7.85584 11.6993C6.85057 11.1763 5.66097 10.3055 4.27804 8.92247C2.8951 7.53921 2.02457 6.34954 1.50139 5.34422C0.978223 4.33864 0.801912 3.51915 0.801912 2.86721C0.801912 2.54463 0.844988 2.26261 0.912357 2.01767C0.977221 1.79 1.12749 1.59615 1.33185 1.47668L1.33235 1.47643L2.41525 0.826503H2.4155L2.41976 0.823998C2.4428 0.810223 2.46659 0.804212 2.49114 0.803962C2.51393 0.803962 2.53647 0.809472 2.55625 0.819991C2.57629 0.83051 2.59357 0.845537 2.60709 0.866075L3.5475 2.27814L4.33639 3.46129C4.35242 3.48584 4.35968 3.51163 4.35993 3.53893C4.35993 3.56022 4.35517 3.58126 4.34616 3.60005C4.33714 3.61908 4.32387 3.63611 4.30583 3.65014L3.33462 4.40551C3.21616 4.49643 3.12425 4.61138 3.06264 4.73862C3.00079 4.8661 2.96873 5.00585 2.96848 5.14736V5.14811V5.14836V5.14961C2.96873 5.30414 3.0073 5.46068 3.08694 5.60369L3.08719 5.60419V5.60444L3.16407 5.74419C3.30056 5.99465 3.46035 6.28768 3.74109 6.67013C4.02208 7.05307 4.42354 7.52593 5.04839 8.15057C5.67324 8.77545 6.14608 9.17694 6.529 9.4577C6.91142 9.73846 7.20419 9.89825 7.45463 10.035L7.59312 10.1114C7.59312 10.1114 7.59312 10.1114 7.59337 10.1114L7.59438 10.1119C7.59488 10.1121 7.59538 10.1124 7.59588 10.1126L7.59638 10.1129C7.73938 10.1923 7.89591 10.2309 8.05043 10.2309H8.05068H8.05093C8.19243 10.2309 8.33268 10.1985 8.4604 10.1367C8.58763 10.0748 8.70258 9.98315 8.79349 9.86469L9.54882 8.89367C9.56309 8.87564 9.57987 8.86261 9.59891 8.85335C9.61794 8.84433 9.63873 8.83957 9.66002 8.83957C9.68731 8.83982 9.71311 8.84684 9.73765 8.86311L12.3295 10.5918L12.3297 10.592L12.3327 10.594C12.3533 10.6075 12.3683 10.6248 12.3788 10.6449C12.3893 10.6646 12.3948 10.6872 12.3948 10.71C12.3948 10.7348 12.3886 10.7583 12.3748 10.7814L12.3723 10.7856V10.7859L11.7221 11.8701ZM7.51073 9.93181L7.51449 9.92505L7.51073 9.93181Z" fill="#979797"/>
<path d="M7.44615 2.51318C7.45141 2.51368 7.45417 2.51368 7.45542 2.51368C8.40684 2.51468 9.26686 2.90039 9.89071 3.52402C10.5143 4.1479 10.9 5.00796 10.901 5.95944C10.901 6.06989 10.9461 6.17083 11.0184 6.24321C11.0896 6.31434 11.1882 6.35892 11.2962 6.36042V6.36067L11.2992 6.36092H11.3022H11.3034C11.4134 6.36067 11.5141 6.31559 11.5862 6.24346C11.6563 6.17333 11.7004 6.07641 11.7031 5.97021L11.7037 5.96495V5.95944V5.95919V5.95894C11.7024 4.78681 11.2263 3.72463 10.458 2.95649C9.68985 2.18809 8.62773 1.71198 7.45542 1.71072H7.45517C7.34472 1.71072 7.24355 1.75581 7.17117 1.82844C7.09929 1.90007 7.05446 2 7.05371 2.1092C7.05371 2.1092 7.05371 2.1102 7.05371 2.11245C7.05371 2.2229 7.09879 2.32384 7.17142 2.39622C7.24179 2.4666 7.33921 2.51068 7.44615 2.51318Z" fill="#979797"/>
<path d="M7.05396 3.40081C7.05571 3.50876 7.10004 3.60769 7.17117 3.67857C7.24329 3.75095 7.34447 3.79628 7.45492 3.79628C8.05222 3.79703 8.59192 4.03897 8.98386 4.43068C9.37555 4.8224 9.61748 5.36213 9.61823 5.95971C9.61823 6.07016 9.66331 6.1711 9.73593 6.24348C9.80831 6.31586 9.90924 6.36119 10.0197 6.36119C10.1301 6.36119 10.2313 6.31611 10.3037 6.24348C10.3761 6.1711 10.4214 6.06991 10.4214 5.95946V5.95921C10.4204 5.14098 10.0881 4.39913 9.55161 3.8629C9.01592 3.32693 8.27486 2.99457 7.45742 2.99332H7.45592H7.45567H7.45542H7.45517C7.34472 2.99332 7.2438 3.0384 7.17142 3.11103C7.09879 3.18342 7.05371 3.28435 7.05371 3.3948C7.05371 3.39555 7.05371 3.39781 7.05396 3.40081Z" fill="#979797"/>
<path d="M9.13863 5.96996L9.13913 5.9647V5.95919V5.95894V5.95869C9.13863 5.4946 8.9498 5.07308 8.64551 4.76903C8.34123 4.46473 7.91999 4.27588 7.45567 4.27538H7.45542C7.34497 4.27538 7.2438 4.32046 7.17142 4.3931C7.09904 4.46548 7.05371 4.56641 7.05371 4.67711C7.05371 4.78756 7.09879 4.88875 7.17142 4.96113C7.24355 5.03351 7.34472 5.07884 7.45517 5.07884C7.6986 5.07909 7.91798 5.17752 8.07776 5.33706C8.2373 5.49685 8.33572 5.71625 8.33622 5.9597C8.33622 6.07015 8.3813 6.17108 8.45393 6.24346C8.5243 6.31384 8.62172 6.35817 8.72841 6.36067L8.73317 6.36092H8.73793H8.73843H8.73968C8.84937 6.36042 8.9498 6.31559 9.02193 6.24346C9.0918 6.17308 9.13588 6.07616 9.13863 5.96996Z" fill="#979797"/>
</svg>
