<svg width="28" height="22" viewBox="0 0 28 22" fill="none" xmlns="http://www.w3.org/2000/svg">
<path d="M24.646 8.41276C24.6079 9.71254 24.5202 11.0123 24.3819 12.3126C24.3088 13.0006 23.7524 13.5351 23.0634 13.5899C18.7021 13.9355 14.3409 13.9355 9.97957 13.5899C9.29 13.5351 8.73355 13.0006 8.66046 12.3126C8.65366 12.2479 8.6469 12.1837 8.64064 12.1189C8.27891 8.59182 8.28567 5.06416 8.66046 1.53706C8.73355 0.849601 9.29 0.314571 9.97957 0.259756C11.377 0.149076 12.7749 0.0739375 14.1728 0.0342407C15.7387 -0.0101115 17.3042 -0.0101115 18.8702 0.0342407C20.2681 0.0739375 21.6655 0.149076 23.0634 0.259756C23.7524 0.314571 24.3088 0.849601 24.3819 1.53706C24.6252 3.82911 24.7134 6.12066 24.646 8.41276Z" fill="#F4DD45"/>
<path d="M24.646 8.41211C24.6079 9.71189 24.5202 11.0116 24.3819 12.312C24.3088 13 23.7524 13.5345 23.0634 13.5893C18.7021 13.9348 14.3408 13.9348 9.97955 13.5893C9.28999 13.5344 8.73353 12.9999 8.66045 12.312C8.65364 12.2472 8.64688 12.183 8.64062 12.1183C8.88857 11.3248 10.0015 10.4823 13.9623 11.1134C20.6585 12.1804 24.646 8.41211 24.646 8.41211Z" fill="#ECBE6B"/>
<path d="M10.8199 13.6507C10.5396 13.6314 10.2593 13.611 9.97898 13.5886C9.28992 13.5337 8.73352 12.9992 8.66043 12.3113C8.27888 8.71943 8.27888 5.12755 8.66043 1.53572C8.73352 0.848257 9.28997 0.313227 9.97898 0.258412C10.2593 0.236487 10.5396 0.215612 10.8199 0.196289C10.561 0.440076 10.3872 0.772568 10.3475 1.14736C9.93829 4.99809 9.93829 8.84888 10.3475 12.6996C10.3872 13.0744 10.561 13.4074 10.8199 13.6507Z" fill="#ECBE6B"/>
<path d="M18.87 0.0333016V5.46933L16.5211 3.83286L14.1726 5.46933V0.0333016C15.7386 -0.0111005 17.304 -0.0111005 18.87 0.0333016Z" fill="#595959"/>
<path d="M26.4312 12.1905H26.4308L19.6973 17.5917C19.1439 18.0356 18.4339 18.2378 17.7292 18.1518L8.65398 17.0473L6.23588 17.9418C4.9369 16.6059 5.47068 12.3076 5.47068 12.3076L6.04656 12.15C5.9966 11.3805 6.35948 10.6164 7.03307 10.1793C7.10736 10.1306 7.18525 10.0865 7.2672 10.0465L11.1587 8.14596L13.1601 7.16846C13.2691 7.11535 13.3802 7.07345 13.4933 7.04286C14.3298 6.81369 15.238 7.18153 15.6662 7.97036C16.152 8.86591 15.8458 9.98523 14.9719 10.5088L11.7369 12.4476L17.1808 13.3958C17.8359 13.5097 18.5099 13.3719 19.0682 13.0095L24.4825 9.49485C25.2088 9.023 26.175 9.18689 26.7058 9.8717C26.8432 10.0491 26.9395 10.2458 26.9958 10.4503C27.166 11.0716 26.9647 11.7623 26.4312 12.1905Z" fill="#FFCBBE"/>
<path d="M17.7142 16.7012C13.9861 17.1855 11.4158 14.9993 9.8608 12.9424C9.08974 11.9226 9.34975 10.4638 10.4261 9.77385C14.1804 7.36737 15.1514 7.45577 15.6661 7.97038C15.2379 7.18155 14.3297 6.81366 13.4932 7.04288C13.3801 7.07352 13.269 7.11537 13.16 7.16848L11.1586 8.14598L8.00446 9.6864C8.00446 9.6864 8.00416 9.6869 8.00406 9.687L7.2671 10.0465C6.44448 10.4481 5.99109 11.2955 6.04646 12.15L4.12915 12.8091C4.12915 12.8091 4.9368 16.606 6.23578 17.9419L8.65388 17.0475L17.7291 18.1519C18.4337 18.2379 19.1438 18.0357 19.6972 17.5918L26.4307 12.1906C24.1038 11.5594 20.2253 16.3172 17.7142 16.7012Z" fill="#EAAC9D"/>
<path d="M13.5472 10.4014C13.2281 10.4014 12.9184 10.2465 12.7295 9.96425C12.3116 9.34026 12.1883 8.71548 12.1833 8.6892C12.143 8.4794 12.2805 8.27672 12.4902 8.23647C12.6995 8.19637 12.902 8.33318 12.9428 8.54243C12.9449 8.55304 13.0471 9.04837 13.3722 9.53384C13.432 9.6232 13.5547 9.65263 13.6515 9.60102L14.1368 9.34222C14.3253 9.24165 14.5596 9.31298 14.6601 9.5015C14.7606 9.68997 14.6894 9.92425 14.5008 10.0248L14.0156 10.2836C13.8662 10.3632 13.7055 10.4014 13.5472 10.4014Z" fill="#EAAC9D"/>
<path d="M5.82776 20.2289C7.09347 19.782 7.38908 17.3511 6.48802 14.7995C5.58695 12.2478 3.83044 10.5416 2.56472 10.9886C1.29901 11.4355 1.0034 13.8664 1.90447 16.418C2.80553 18.9697 4.56205 20.6759 5.82776 20.2289Z" fill="#3B66C1"/>
<path d="M6.9737 18.2997C5.97829 18.9214 4.89827 19.303 3.73315 19.445C3.50193 18.8885 3.27902 18.3295 3.06396 17.7678C4.27759 17.618 5.40456 17.2239 6.44493 16.585C6.62915 17.1539 6.80561 17.7255 6.9737 18.2997Z" fill="#26457D"/>
<path d="M5.05502 18.1838C5.26864 18.1838 5.44182 18.0106 5.44182 17.797C5.44182 17.5833 5.26864 17.4102 5.05502 17.4102C4.84139 17.4102 4.66821 17.5833 4.66821 17.797C4.66821 18.0106 4.84139 18.1838 5.05502 18.1838Z" fill="#404A4A"/>
</svg>
