<svg width="12" height="15" viewBox="0 0 12 15" fill="none" xmlns="http://www.w3.org/2000/svg">
<path d="M10.4112 2.45797C9.33194 0.896007 7.62152 0 5.71881 0C3.8161 0 2.10568 0.896007 1.02645 2.45797C-0.0474867 4.01203 -0.295462 5.97951 0.361792 7.71776C0.537592 8.19245 0.817044 8.65364 1.1904 9.08581L5.3425 13.9629C5.4364 14.0733 5.57399 14.1369 5.71881 14.1369C5.86363 14.1369 6.00122 14.0733 6.09512 13.9629L10.2461 9.08713C10.6211 8.65248 10.9002 8.19179 11.0745 7.72091C11.7331 5.97951 11.4851 4.01203 10.4112 2.45797ZM10.1489 7.37472C10.0144 7.73803 9.79495 8.09722 9.49689 8.44272C9.49606 8.44355 9.49523 8.44438 9.49457 8.44537L5.71881 12.8802L1.94073 8.44258C1.64284 8.09739 1.42336 7.73822 1.28759 7.37144C0.74404 5.93387 0.950322 4.30713 1.83956 3.02015C2.7316 1.72906 4.14561 0.988587 5.71881 0.988587C7.29198 0.988587 8.70583 1.72903 9.59789 3.02015C10.4873 4.30713 10.6937 5.93387 10.1489 7.37472Z" fill="#9E9E9E"/>
<path d="M5.7185 2.93262C4.19228 2.93262 2.95044 4.17429 2.95044 5.70068C2.95044 7.22708 4.19211 8.46875 5.7185 8.46875C7.2449 8.46875 8.48657 7.22708 8.48657 5.70068C8.48657 4.17445 7.24473 2.93262 5.7185 2.93262ZM5.7185 7.48013C4.73732 7.48013 3.93903 6.68184 3.93903 5.70065C3.93903 4.71947 4.73732 3.92118 5.7185 3.92118C6.69969 3.92118 7.49798 4.71947 7.49798 5.70065C7.49798 6.68184 6.69969 7.48013 5.7185 7.48013Z" fill="#9E9E9E"/>
</svg>
