<svg width="14" height="14" viewBox="0 0 14 14" fill="none" xmlns="http://www.w3.org/2000/svg">
<path d="M11.6473 2.43417C10.5785 0.887332 8.88464 0 7.00036 0C5.11607 0 3.42221 0.887332 2.35342 2.43417C1.28989 3.97318 1.04431 5.92162 1.6952 7.64304C1.8693 8.11314 2.14605 8.56986 2.51579 8.99784L6.62769 13.8277C6.72068 13.937 6.85694 14 7.00036 14C7.14377 14 7.28003 13.937 7.37302 13.8277L11.4838 8.99916C11.8552 8.56871 12.1315 8.11248 12.3042 7.64616C12.9564 5.92162 12.7108 3.97318 11.6473 2.43417ZM11.3875 7.30332C11.2544 7.66311 11.037 8.01883 10.7419 8.36098C10.741 8.3618 10.7402 8.36262 10.7396 8.36361L7.00036 12.7555L3.25886 8.36084C2.96384 8.01899 2.74649 7.6633 2.61204 7.30007C2.07375 5.87642 2.27804 4.26543 3.15867 2.99091C4.04206 1.71232 5.44239 0.979016 7.00036 0.979016C8.55829 0.979016 9.95846 1.71229 10.8419 2.99091C11.7227 4.26543 11.9271 5.87642 11.3875 7.30332Z" fill="#979797"/>
<path d="M7.00006 2.90443C5.4886 2.90443 4.25879 4.13408 4.25879 5.64569C4.25879 7.15731 5.48844 8.38696 7.00006 8.38696C8.51167 8.38696 9.74132 7.15731 9.74132 5.64569C9.74132 4.13424 8.51151 2.90443 7.00006 2.90443ZM7.00006 7.40792C6.02837 7.40792 5.2378 6.61736 5.2378 5.64567C5.2378 4.67398 6.02837 3.88342 7.00006 3.88342C7.97174 3.88342 8.76231 4.67398 8.76231 5.64567C8.76231 6.61736 7.97174 7.40792 7.00006 7.40792Z" fill="#979797"/>
</svg>
