<svg width="19" height="19" viewBox="0 0 19 19" fill="none" xmlns="http://www.w3.org/2000/svg">
<path d="M9.49993 8.57129V8.6791V8.57129C8.81144 8.57129 8.1864 8.84765 7.73457 9.29327C7.28238 9.73853 7.00195 10.3545 7.00195 11.033C7.00195 11.7115 7.28238 12.3274 7.73457 12.7727C8.1864 13.2183 8.81144 13.4947 9.49993 13.4947C10.1884 13.4947 10.8135 13.2183 11.2653 12.7727C11.7175 12.3274 11.9979 11.7115 11.9979 11.033C11.9979 10.3545 11.7175 9.73853 11.2653 9.29327C10.8135 8.84765 10.1884 8.57129 9.49993 8.57129ZM10.2085 11.7316C10.0261 11.9109 9.77635 12.0213 9.49993 12.0216C9.22315 12.0216 8.97335 11.9113 8.79138 11.7316C8.60941 11.5519 8.49746 11.3057 8.49709 11.0333C8.49709 10.7606 8.60941 10.5144 8.79138 10.3351C8.97372 10.1558 9.22351 10.0454 9.5003 10.0451C9.77708 10.0451 10.0269 10.1558 10.2088 10.3351C10.3908 10.5148 10.5028 10.7609 10.5028 11.0333C10.5028 11.3057 10.3908 11.5519 10.2085 11.7316Z" fill="#536DFE"/>
<path d="M16.5835 10.6946V10.681V10.6767L16.5613 10.6547C15.7667 9.28876 14.7124 8.19448 13.5028 7.44088C12.2896 6.68476 10.9195 6.27148 9.50204 6.27148C8.08494 6.27148 6.71488 6.68476 5.50126 7.44088C4.28764 8.19699 3.23047 9.29595 2.43476 10.668C2.36912 10.7812 2.33594 10.9074 2.33594 11.0335C2.33594 11.1596 2.36876 11.2858 2.43476 11.399C3.2301 12.7711 4.28764 13.8697 5.50126 14.6261C6.71451 15.3823 8.08457 15.7955 9.50204 15.7955C10.9191 15.7955 12.2892 15.3823 13.5028 14.6261C14.7164 13.87 15.7736 12.7714 16.5693 11.3993C16.5704 11.3976 16.5711 11.3958 16.5722 11.394L16.5726 11.3929C16.5755 11.3878 16.5781 11.3828 16.5806 11.3778L16.5835 11.3864V11.3724C16.6393 11.2664 16.6678 11.1499 16.6678 11.0339C16.6678 10.9171 16.6393 10.8006 16.5835 10.6946ZM12.6032 13.4402C11.6474 14.0127 10.5891 14.3214 9.50204 14.3214C8.41496 14.3214 7.35633 14.0127 6.4009 13.4402C5.46297 12.8782 4.6246 12.0609 3.95835 11.0331C4.62423 10.0053 5.46261 9.18814 6.4009 8.62608C7.35669 8.0536 8.41496 7.7449 9.50204 7.7449C10.5891 7.7449 11.6477 8.0536 12.6032 8.62608C13.5411 9.18814 14.3795 10.0053 15.0457 11.0331C14.3798 12.0609 13.5415 12.8782 12.6032 13.4402Z" fill="#536DFE"/>
<path d="M18.9992 3.17542C18.9992 2.54939 18.7407 1.98123 18.3239 1.57083C17.9074 1.16007 17.3309 0.905273 16.6956 0.905273V1.01308V0.905273H2.30361C1.66836 0.905273 1.09182 1.16007 0.675366 1.57083C0.25855 1.98123 0 2.54939 0 3.17542V15.8253C0 16.4513 0.25855 17.0195 0.675366 17.4299C1.09182 17.8406 1.66836 18.0954 2.30361 18.0954H16.696C17.3312 18.0954 17.9078 17.8406 18.3242 17.4299C18.741 17.0195 18.9996 16.4513 18.9996 15.8253L18.9992 3.17542ZM1.73218 2.61228C1.87914 2.46746 2.08043 2.37869 2.30325 2.37869H16.6956C16.9188 2.37869 17.1197 2.46782 17.2667 2.61228C17.4137 2.75711 17.5037 2.95548 17.5037 3.17506V3.58833H1.49514V3.17506C1.49514 2.95548 1.58558 2.75747 1.73218 2.61228ZM17.2671 16.388C17.1201 16.5329 16.9188 16.6216 16.696 16.6216H2.30361C2.08043 16.6216 1.8795 16.5325 1.73254 16.388C1.58558 16.2432 1.49551 16.0448 1.49551 15.8253V5.06211H17.5045V15.8253C17.5041 16.0448 17.4137 16.2432 17.2671 16.388Z" fill="#536DFE"/>
</svg>
