<svg width="48" height="48" viewBox="0 0 48 48" fill="none" xmlns="http://www.w3.org/2000/svg">
    <path d="M36 12H12V3C12 1.34344 13.3434 0 15 0H33C34.6566 0 36 1.34344 36 3V12Z" fill="#E4EDFB"/>
    <path d="M12 6H36V12H12V6Z" fill="#D7E1F2"/>
    <path d="M45 34.5H3C1.34344 34.5 0 33.1566 0 31.5V24H48V31.5C48 33.1566 46.6566 34.5 45 34.5Z" fill="#AAB8C1"/>
    <path d="M33 42H15C13.3434 42 12 40.6566 12 39V24H36V39C36 40.6566 34.6566 42 33 42Z" fill="#E4EDFB"/>
    <path d="M7.5 37.5C8.32875 37.5 9 38.1712 9 39V46.5C9 47.3287 8.32875 48 7.5 48C6.67125 48 6 47.3287 6 46.5V39C6 38.1712 6.67125 37.5 7.5 37.5Z" fill="#57565C"/>
    <path d="M40.5 37.5C41.3288 37.5 42 38.1712 42 39V46.5C42 47.3287 41.3288 48 40.5 48C39.6712 48 39 47.3287 39 46.5V39C39 38.1712 39.6712 37.5 40.5 37.5Z" fill="#57565C"/>
    <path d="M19.5 30H28.5C29.3287 30 30 30.6712 30 31.5C30 32.3288 29.3287 33 28.5 33H19.5C18.6712 33 18 32.3288 18 31.5C18 30.6712 18.6712 30 19.5 30Z" fill="#BFC9D1"/>
    <path d="M19.5 36H28.5C29.3287 36 30 36.6712 30 37.5C30 38.3288 29.3287 39 28.5 39H19.5C18.6712 39 18 38.3288 18 37.5C18 36.6712 18.6712 36 19.5 36Z" fill="#BFC9D1"/>
    <path d="M12 24H36V30H12V24Z" fill="#D7E1F2"/>
    <path d="M45 27H3C1.34344 27 0 25.6566 0 24V16.5C0 12.3581 3.35812 9 7.5 9H40.5C44.6419 9 48 12.3581 48 16.5V24C48 25.6566 46.6566 27 45 27Z" fill="#BFC9D1"/>
    <path d="M36 15H39V18H36V15Z" fill="white"/>
    <path d="M30 15H33V18H30V15Z" fill="white"/>
</svg>
