<svg width="50" height="50" viewBox="0 0 50 50" fill="none" xmlns="http://www.w3.org/2000/svg">
<path d="M37.5 12.5H12.5V3.125C12.5 1.39941 13.8994 0 15.625 0H34.375C36.1006 0 37.5 1.39941 37.5 3.125V12.5Z" fill="#E4EDFB"/>
<path d="M12.5 6.25H37.5V12.5H12.5V6.25Z" fill="#D7E1F2"/>
<path d="M46.875 35.9375H3.125C1.39941 35.9375 0 34.5381 0 32.8125V25H50V32.8125C50 34.5381 48.6006 35.9375 46.875 35.9375Z" fill="#393D47"/>
<path d="M34.375 43.75H15.625C13.8994 43.75 12.5 42.3506 12.5 40.625V25H37.5V40.625C37.5 42.3506 36.1006 43.75 34.375 43.75Z" fill="#E4EDFB"/>
<path d="M7.8125 39.0625C8.67578 39.0625 9.375 39.7617 9.375 40.625V48.4375C9.375 49.3008 8.67578 50 7.8125 50C6.94922 50 6.25 49.3008 6.25 48.4375V40.625C6.25 39.7617 6.94922 39.0625 7.8125 39.0625Z" fill="#57565C"/>
<path d="M42.1875 39.0625C43.0508 39.0625 43.75 39.7617 43.75 40.625V48.4375C43.75 49.3008 43.0508 50 42.1875 50C41.3242 50 40.625 49.3008 40.625 48.4375V40.625C40.625 39.7617 41.3242 39.0625 42.1875 39.0625Z" fill="#57565C"/>
<path d="M20.3125 31.25H29.6875C30.5508 31.25 31.25 31.9492 31.25 32.8125C31.25 33.6758 30.5508 34.375 29.6875 34.375H20.3125C19.4492 34.375 18.75 33.6758 18.75 32.8125C18.75 31.9492 19.4492 31.25 20.3125 31.25Z" fill="#BFC9D1"/>
<path d="M20.3125 37.5H29.6875C30.5508 37.5 31.25 38.1992 31.25 39.0625C31.25 39.9258 30.5508 40.625 29.6875 40.625H20.3125C19.4492 40.625 18.75 39.9258 18.75 39.0625C18.75 38.1992 19.4492 37.5 20.3125 37.5Z" fill="#BFC9D1"/>
<path d="M12.5 25H37.5V31.25H12.5V25Z" fill="#D7E1F2"/>
<path d="M46.875 28.125H3.125C1.39941 28.125 0 26.7256 0 25V17.1875C0 12.873 3.49805 9.375 7.8125 9.375H42.1875C46.502 9.375 50 12.873 50 17.1875V25C50 26.7256 48.6006 28.125 46.875 28.125Z" fill="#646B79"/>
<path d="M37.5 15.625H40.625V18.75H37.5V15.625Z" fill="white"/>
<path d="M31.25 15.625H34.375V18.75H31.25V15.625Z" fill="white"/>
</svg>
