<svg width="18" height="18" viewBox="0 0 18 18" fill="none" xmlns="http://www.w3.org/2000/svg">
<path d="M0.62069 9.93115H17.3793C17.7222 9.93115 18 10.2089 18 10.5518V17.3794C18 17.7224 17.7222 18.0001 17.3793 18.0001H0.62069C0.277759 18.0001 0 17.7224 0 17.3794V10.5518C0 10.2089 0.277759 9.93115 0.62069 9.93115Z" fill="#FF9811"/>
<path d="M14.8965 11.1724H16.1379V12.4137H14.8965V11.1724Z" fill="#00CCB3"/>
<path d="M12.4141 11.1724H13.6554V12.4137H12.4141V11.1724Z" fill="#3D9AE2"/>
<path d="M4.96542 12.4137C5.30821 12.4137 5.58611 12.1359 5.58611 11.7931C5.58611 11.4503 5.30821 11.1724 4.96542 11.1724C4.62262 11.1724 4.34473 11.4503 4.34473 11.7931C4.34473 12.1359 4.62262 12.4137 4.96542 12.4137Z" fill="#3D9AE2"/>
<path d="M9.93164 11.1724H11.173V12.4137H9.93164V11.1724Z" fill="#FF5023"/>
<path d="M2.48299 12.4137C2.82579 12.4137 3.10368 12.1359 3.10368 11.7931C3.10368 11.4503 2.82579 11.1724 2.48299 11.1724C2.1402 11.1724 1.8623 11.4503 1.8623 11.7931C1.8623 12.1359 2.1402 12.4137 2.48299 12.4137Z" fill="#FF5023"/>
<path d="M2.79277 14.2759H15.2066C15.378 14.2759 15.5169 14.4148 15.5169 14.5862V15.8276C15.5169 15.9991 15.378 16.1379 15.2066 16.1379H2.79277C2.6213 16.1379 2.48242 15.9991 2.48242 15.8276V14.5862C2.48242 14.4148 2.6213 14.2759 2.79277 14.2759Z" fill="#CC7400"/>
<path d="M1.24121 6.20703H2.48259V9.93117H1.24121V6.20703Z" fill="#EE8700"/>
<path d="M15.5176 6.20703H16.759V9.93117H15.5176V6.20703Z" fill="#EE8700"/>
<path d="M15.5169 0V9.93103H2.48242V0L3.41346 1.24138L4.34449 0L5.27553 1.24138L6.20656 0L7.13759 1.24138L8.06863 0L8.99966 1.24138L9.9307 0L10.8617 1.24138L11.7928 0L12.7238 1.24138L13.6548 0L14.5859 1.24138L15.5169 0Z" fill="#E6E7E8"/>
<path d="M15.5172 1.24463V9.93118H8.54688C11.333 7.4395 13.6885 4.50441 15.5172 1.24463Z" fill="#D8D7DA"/>
<path d="M8.99993 8.68981C10.7139 8.68981 12.1034 7.30034 12.1034 5.58636C12.1034 3.87237 10.7139 2.48291 8.99993 2.48291C7.28595 2.48291 5.89648 3.87237 5.89648 5.58636C5.89648 7.30034 7.28595 8.68981 8.99993 8.68981Z" fill="#FFD422"/>
<path d="M15.5176 6.20703H16.1383V9.93117H15.5176V6.20703Z" fill="#CC7400"/>
<path d="M1.8623 6.20703H2.48299V9.93117H1.8623V6.20703Z" fill="#CC7400"/>
<path d="M9.31051 5.27564H8.68982C8.51836 5.27564 8.37948 5.13676 8.37948 4.9653C8.37948 4.79383 8.51836 4.65495 8.68982 4.65495H9.31051C9.48198 4.65495 9.62086 4.79383 9.62086 4.9653H10.2415C10.2415 4.45129 9.82452 4.03426 9.31051 4.03426V3.41357H8.68982V4.03426C8.17581 4.03426 7.75879 4.45129 7.75879 4.9653C7.75879 5.47931 8.17581 5.89633 8.68982 5.89633H9.31051C9.48198 5.89633 9.62086 6.03521 9.62086 6.20668C9.62086 6.37814 9.48198 6.51702 9.31051 6.51702H8.68982C8.51836 6.51702 8.37948 6.37814 8.37948 6.20668H7.75879C7.75879 6.72069 8.17581 7.13771 8.68982 7.13771V7.7584H9.31051V7.13771C9.82452 7.13771 10.2415 6.72069 10.2415 6.20668C10.2415 5.69267 9.82452 5.27564 9.31051 5.27564Z" fill="#FF5023"/>
<path d="M8.99973 8.99995C7.11439 8.99995 5.58594 7.4715 5.58594 5.58616C5.58594 3.70081 7.11439 2.17236 8.99973 2.17236C10.8851 2.17236 12.4135 3.70081 12.4135 5.58616C12.4112 7.47073 10.8843 8.99762 8.99973 8.99995ZM8.99973 2.79305C7.45732 2.79305 6.20663 4.04374 6.20663 5.58616C6.20663 7.12857 7.45732 8.37926 8.99973 8.37926C10.5421 8.37926 11.7928 7.12857 11.7928 5.58616C11.7909 4.04452 10.5414 2.79499 8.99973 2.79305Z" fill="#FF9811"/>
</svg>
