<svg width="20" height="23" viewBox="0 0 20 23" fill="none" xmlns="http://www.w3.org/2000/svg">
<path fill-rule="evenodd" clip-rule="evenodd" d="M18.93 17.2258H0.823045C0.368313 17.2258 0 16.8571 0 16.4027V5.4583C0 5.00398 0.368313 4.63525 0.823045 4.63525H18.93C19.3844 4.63525 19.7531 5.00398 19.7531 5.4583V16.4027C19.7531 16.8571 19.3844 17.2258 18.93 17.2258Z" fill="#BABABA"/>
<path fill-rule="evenodd" clip-rule="evenodd" d="M1.98047 12.3202C1.98047 12.5677 2.18111 12.7684 2.42862 12.7684H17.3245C17.572 12.7684 17.7726 12.5677 17.7726 12.3202C17.7726 12.0727 17.572 11.8721 17.3245 11.8721H2.42862C2.18111 11.8721 1.98047 12.0727 1.98047 12.3202Z" fill="#334A5E"/>
<path fill-rule="evenodd" clip-rule="evenodd" d="M4.48711 22.2223C4.03279 22.2223 3.66406 21.8536 3.66406 21.3992L3.66406 11.8721H16.0892V21.3992C16.0892 21.8536 15.7204 22.2223 15.2661 22.2223H4.48711Z" fill="#FF4452"/>
<path fill-rule="evenodd" clip-rule="evenodd" d="M3.66406 12.2836H16.0892V11.8721H3.66406V12.2836Z" fill="#81599F"/>
<path fill-rule="evenodd" clip-rule="evenodd" d="M13.3711 0H4.48711C4.03238 0 3.66406 0.368724 3.66406 0.823045V4.63539H16.0888V2.7177L13.3711 0Z" fill="#FF4452"/>
<path fill-rule="evenodd" clip-rule="evenodd" d="M13.3711 1.89465C13.3711 2.34897 13.7398 2.7177 14.1941 2.7177H16.0888L13.3711 0V1.89465Z" fill="#FFE2E2"/>
<path fill-rule="evenodd" clip-rule="evenodd" d="M4.75195 14.2352H15.0005V13.3389H4.75195V14.2352Z" fill="#F1F3F8"/>
<path fill-rule="evenodd" clip-rule="evenodd" d="M4.75195 16.2606H15.0005V15.3643H4.75195V16.2606Z" fill="#F8E71C"/>
<path fill-rule="evenodd" clip-rule="evenodd" d="M4.75195 18.2855H15.0005V17.3892H4.75195V18.2855Z" fill="#F1F3F8"/>
<path fill-rule="evenodd" clip-rule="evenodd" d="M4.75195 20.3431H15.0005V19.4468H4.75195V20.3431Z" fill="#F1F3F8"/>
<path fill-rule="evenodd" clip-rule="evenodd" d="M18.93 9.14167H0.823045C0.368313 9.14167 0 8.86268 0 8.51893V5.1496C0 4.80553 0.368313 4.52686 0.823045 4.52686H18.93C19.3844 4.52686 19.7531 4.80553 19.7531 5.1496V8.51893C19.7531 8.86268 19.3844 9.14167 18.93 9.14167Z" fill="#00E8CD"/>
<path fill-rule="evenodd" clip-rule="evenodd" d="M0 9.16823H19.7531V5.76123H0V9.16823Z" fill="black"/>
<path fill-rule="evenodd" clip-rule="evenodd" d="M18.5679 7.43211C18.5679 8.12717 18.0041 8.69096 17.3087 8.69096C16.6136 8.69096 16.0498 8.12717 16.0498 7.43211C16.0498 6.73664 16.6136 6.17285 17.3087 6.17285C18.0041 6.17285 18.5679 6.73664 18.5679 7.43211Z" fill="white"/>
<path fill-rule="evenodd" clip-rule="evenodd" d="M2.30596 7.32604C2.30596 7.73509 1.97386 8.06719 1.56481 8.06719C1.15534 8.06719 0.823242 7.73509 0.823242 7.32604C0.823242 6.91657 1.15534 6.58447 1.56481 6.58447C1.97386 6.58447 2.30596 6.91657 2.30596 7.32604Z" fill="#FF5C5C"/>
<path fill-rule="evenodd" clip-rule="evenodd" d="M4.36358 7.32604C4.36358 7.73509 4.03148 8.06719 3.62242 8.06719C3.21296 8.06719 2.88086 7.73509 2.88086 7.32604C2.88086 6.91657 3.21296 6.58447 3.62242 6.58447C4.03148 6.58447 4.36358 6.91657 4.36358 7.32604Z" fill="#61DC00"/>
<path fill-rule="evenodd" clip-rule="evenodd" d="M6.42119 7.32604C6.42119 7.73509 6.08909 8.06719 5.67963 8.06719C5.27058 8.06719 4.93848 7.73509 4.93848 7.32604C4.93848 6.91657 5.27058 6.58447 5.67963 6.58447C6.08909 6.58447 6.42119 6.91657 6.42119 7.32604Z" fill="#FFD12C"/>
</svg>
