<svg width="20" height="19" viewBox="0 0 20 19" fill="none" xmlns="http://www.w3.org/2000/svg">
<path d="M7.23969 17.4973C7.20277 17.4973 7.16586 17.4973 7.12894 17.485C6.87054 17.4235 6.72289 17.1651 6.78441 16.9067L7.25199 15.0118C7.31352 14.7534 7.57192 14.6057 7.83032 14.6672C8.08872 14.7287 8.23638 14.9871 8.17486 15.2455L7.70727 17.1405C7.64575 17.362 7.44887 17.4973 7.23969 17.4973Z" fill="#757575"/>
<path d="M12.9124 17.4973C12.7032 17.4973 12.5063 17.3497 12.4571 17.1405L11.9895 15.2455C11.928 14.9871 12.0756 14.7411 12.334 14.6672C12.5924 14.6057 12.8385 14.7534 12.9124 15.0118L13.3799 16.9067C13.4415 17.1651 13.2938 17.4112 13.0354 17.485C12.9862 17.4973 12.9493 17.4973 12.9124 17.4973Z" fill="#757575"/>
<path d="M7.22698 17.0298H12.9118H13.8593C14.3761 17.0298 14.8068 17.4481 14.8068 17.9773V18.4448H5.33203V17.9773C5.33203 17.4481 5.7627 17.0298 6.2795 17.0298H7.22698Z" fill="#9E9E9E"/>
<path d="M12.4315 15.1348L12.8991 17.0297H7.22656L7.69415 15.1348H12.4315Z" fill="#757575"/>
<path d="M10.0815 14.9015C9.82305 14.9015 9.60156 14.6923 9.60156 14.4339C9.60156 14.1755 9.81074 13.9663 10.0691 13.9663C10.3275 13.9663 10.5367 14.1755 10.5367 14.4339C10.5613 14.6923 10.3522 14.9015 10.0815 14.9015Z" fill="#CCD1D9"/>
<path d="M2.45315 13.2397H0.632032H0.607422V14.1872C0.607422 14.704 1.03809 15.1347 1.55489 15.1347H1.99787L2.45315 13.2397Z" fill="#9E9E9E"/>
<path d="M6.14415 13.2397L5.70117 15.1347H7.70686H12.4442H16.6894H18.5843C19.1011 15.1347 19.5318 14.704 19.5318 14.1872V13.2397H6.14415Z" fill="#9E9E9E"/>
<path d="M18.5846 0H1.5547C0.7795 0 0.139648 0.639851 0.139648 1.41506V14.1875C0.139648 14.975 0.7795 15.6025 1.5547 15.6025H1.88693L2.10842 14.6551H1.5547C1.2963 14.6551 1.08712 14.4459 1.08712 14.1875V1.41506C1.08712 1.15665 1.2963 0.947472 1.5547 0.947472H18.5846C18.843 0.947472 19.0522 1.15665 19.0522 1.41506V14.1875C19.0522 14.4459 18.843 14.6551 18.5846 14.6551H5.81218L5.59069 15.6025H18.5846C19.3721 15.6025 19.9996 14.9627 19.9996 14.1875V1.41506C19.9996 0.639851 19.3721 0 18.5846 0Z" fill="#424242"/>
<path d="M3.60954 18.0139C3.27731 18.0016 2.93278 17.9155 2.61285 17.7309C2.09605 17.4356 1.93609 17.0173 2.08375 16.4266C2.53902 14.667 2.9943 12.8951 3.44958 11.1355C3.54802 10.7418 3.73259 10.631 4.13865 10.7418C4.69237 10.8894 5.23378 11.0248 5.7752 11.1602C6.11973 11.2463 6.24278 11.4432 6.15665 11.8C5.68906 13.6088 5.22148 15.4176 4.75389 17.2387C4.63085 17.7309 4.22479 18.0139 3.60954 18.0139ZM4.08943 13.8303C3.86795 13.8303 3.67107 14.0272 3.68337 14.2487C3.68337 14.4702 3.86795 14.6547 4.10174 14.6547C4.33553 14.6547 4.5078 14.4702 4.5078 14.2364C4.5078 14.0149 4.32323 13.8303 4.08943 13.8303ZM3.30192 14.9254C3.54802 15.27 4.12635 15.4053 4.44627 15.2084C4.39705 15.1346 4.36014 15.0485 4.29862 14.9746C4.28631 14.95 4.23709 14.9254 4.21248 14.9254C3.97869 14.9623 3.78181 14.9008 3.60954 14.7409C3.51111 14.8024 3.41267 14.8516 3.30192 14.9254ZM5.07382 13.8795C4.98769 13.9287 4.90155 13.978 4.82772 14.0272C4.80311 14.0518 4.7662 14.0887 4.7662 14.1133C4.80311 14.3471 4.72928 14.544 4.58163 14.7286C4.64315 14.8393 4.70468 14.9377 4.7662 15.0362C5.11073 14.7655 5.23378 14.2979 5.07382 13.8795ZM4.88925 13.5596C4.60624 13.2151 4.06482 13.0797 3.7449 13.2766C3.78181 13.3381 3.81873 13.3873 3.84334 13.4489C3.88025 13.535 3.92947 13.5719 4.04021 13.5596C4.16326 13.5473 4.32323 13.5719 4.42166 13.6457C4.55702 13.7442 4.65546 13.7196 4.7662 13.6334C4.80311 13.6088 4.84003 13.5965 4.88925 13.5596ZM3.11735 14.6055C3.17888 14.5686 3.2404 14.5317 3.30192 14.4948C3.38806 14.4578 3.41267 14.3963 3.41267 14.2979C3.42497 14.1379 3.4865 13.9903 3.53572 13.8426C3.54802 13.8057 3.58494 13.7688 3.57263 13.7442C3.52341 13.6457 3.46189 13.5596 3.40036 13.4612C3.06813 13.7565 2.94508 14.2241 3.11735 14.6055ZM5.13534 11.517C5.17226 11.4678 5.23378 11.4186 5.24609 11.357C5.25839 11.3078 5.19687 11.2217 5.14765 11.2094C4.98769 11.1478 4.80311 11.1109 4.63085 11.074C4.58163 11.0617 4.48319 11.1232 4.48319 11.1602C4.47088 11.2217 4.5078 11.3324 4.54471 11.3447C4.72928 11.4186 4.91386 11.4555 5.13534 11.517ZM4.71698 12.6367C4.71698 12.526 4.63085 12.4275 4.5201 12.4275C4.40936 12.4275 4.31092 12.5137 4.31092 12.6367C4.31092 12.7475 4.40936 12.8459 4.5201 12.8459C4.61854 12.8459 4.71698 12.7475 4.71698 12.6367ZM4.66776 12.2061C4.7785 12.2061 4.87694 12.1199 4.88925 12.0092C4.88925 11.8984 4.80311 11.8 4.69237 11.7877C4.58163 11.7877 4.48319 11.8738 4.47088 11.9846C4.45858 12.0953 4.54471 12.1938 4.66776 12.2061ZM5.61523 12.1938C5.61523 12.083 5.5291 11.9846 5.40605 11.9846C5.29531 11.9846 5.19687 12.0707 5.19687 12.1815C5.19687 12.2922 5.283 12.3906 5.39375 12.3906C5.51679 12.4029 5.61523 12.3045 5.61523 12.1938ZM3.94178 11.6031C3.83103 11.6031 3.73259 11.7016 3.73259 11.8123C3.73259 11.9231 3.83103 12.0215 3.94178 12.0215C4.05252 12.0215 4.15096 11.9231 4.15096 11.8123C4.13865 11.7016 4.05252 11.6031 3.94178 11.6031ZM5.45527 12.8336C5.45527 12.7229 5.36914 12.6244 5.25839 12.6244C5.14765 12.6244 5.04921 12.7229 5.04921 12.8336C5.04921 12.9444 5.13534 13.0428 5.25839 13.0428C5.35683 13.0305 5.44297 12.9444 5.45527 12.8336ZM3.4988 15.6637C3.47419 15.7006 3.41267 15.7375 3.41267 15.7868C3.41267 15.8237 3.44958 15.8975 3.4865 15.9221C3.58494 15.959 3.69568 15.9836 3.80642 15.996C3.84334 15.996 3.92947 15.9467 3.94178 15.9098C3.95408 15.8729 3.91717 15.7868 3.88025 15.7745C3.76951 15.7252 3.64646 15.7006 3.4988 15.6637ZM3.36345 16.2174C3.33884 16.242 3.28962 16.279 3.27731 16.3159C3.26501 16.3651 3.30192 16.4389 3.32653 16.4512C3.43728 16.5004 3.56033 16.5251 3.68337 16.5374C3.72029 16.5374 3.79412 16.4758 3.80642 16.4389C3.81873 16.402 3.76951 16.3282 3.73259 16.3159C3.62185 16.2667 3.51111 16.2544 3.36345 16.2174ZM3.10505 15.8237C3.12966 15.7868 3.17888 15.7499 3.19118 15.7129C3.19118 15.6637 3.16657 15.5899 3.12966 15.5776C3.01891 15.5284 2.90817 15.5038 2.78512 15.4915C2.74821 15.4915 2.67438 15.5407 2.66207 15.5899C2.64977 15.6268 2.68668 15.7129 2.7236 15.7252C2.82204 15.7622 2.94508 15.7745 3.10505 15.8237ZM2.60055 16.0206C2.57594 16.0452 2.52672 16.0821 2.51441 16.119C2.51441 16.1682 2.53902 16.2544 2.57594 16.2667C2.68668 16.3159 2.79743 16.3405 2.92047 16.3528C2.95739 16.3528 3.03122 16.3036 3.04352 16.2667C3.05583 16.2174 3.01891 16.1436 2.982 16.119C2.87125 16.0698 2.74821 16.0575 2.60055 16.0206ZM4.16326 16.0329C4.18787 16.0575 4.21248 16.0944 4.2494 16.1067C4.34783 16.1436 4.45858 16.1559 4.55702 16.1928C4.64315 16.2174 4.68007 16.1805 4.70468 16.0944C4.72928 16.0083 4.69237 15.959 4.61854 15.9467C4.5201 15.9221 4.42166 15.8975 4.32323 15.8729C4.20018 15.8483 4.17557 15.9221 4.16326 16.0329ZM4.48319 16.7589C4.5078 16.7342 4.55702 16.685 4.56932 16.6481C4.58163 16.6112 4.54471 16.5374 4.5078 16.5128C4.39705 16.4758 4.28631 16.4389 4.16326 16.4266C4.12635 16.4266 4.05252 16.4758 4.04021 16.5251C4.02791 16.562 4.06482 16.6358 4.10174 16.6604C4.21248 16.6973 4.32323 16.7219 4.48319 16.7589ZM3.78181 12.649C3.89256 12.649 3.97869 12.5506 3.97869 12.4399C3.97869 12.3291 3.88025 12.2307 3.76951 12.243C3.65876 12.243 3.57263 12.3414 3.57263 12.4522C3.57263 12.5629 3.65876 12.649 3.78181 12.649Z" fill="#424242"/>
<path d="M4.37207 8.31799C4.34746 8.21955 4.33516 8.12111 4.31055 8.02267C5.01192 7.77658 6.25471 8.02267 6.93148 8.68713C6.85765 8.76096 6.79612 8.8471 6.72229 8.92093C5.66408 8.28107 5.61486 8.26877 4.37207 8.31799Z" fill="#424242"/>
<path d="M6.40315 9.43803C6.34162 9.52417 6.2678 9.598 6.20627 9.68413C5.46798 9.22885 5.36954 9.19194 4.47129 9.22885C4.44668 9.13041 4.42207 9.01967 4.39746 8.92123C4.97579 8.72435 5.96017 8.98276 6.40315 9.43803Z" fill="#424242"/>
<path d="M5.59025 10.3236C5.27032 10.1021 5.15958 10.0775 4.69199 10.0775C4.66738 9.99137 4.64277 9.89293 4.61816 9.79449C4.88887 9.64684 5.49181 9.79449 5.79943 10.0775C5.7256 10.1636 5.66407 10.2375 5.59025 10.3236Z" fill="#424242"/>
</svg>
