<svg width="32" height="29" viewBox="0 0 32 29" fill="none" xmlns="http://www.w3.org/2000/svg">
<path d="M17.5949 0.272949C25.2303 0.272949 31.416 6.57879 31.416 14.2859C31.416 21.9931 25.2303 28.2989 17.5949 28.2989C12.7485 28.2989 8.50967 25.7486 6.03816 21.895L8.21972 20.1434C10.1665 23.3523 13.6322 25.4963 17.6087 25.4963C20.5382 25.4963 23.3478 24.3152 25.4193 22.2129C27.4908 20.1105 28.6545 17.2591 28.6545 14.2859C28.6545 11.3128 27.4908 8.46135 25.4193 6.35899C23.3478 4.25664 20.5382 3.07555 17.6087 3.07555C11.9753 3.07555 7.33605 7.36352 6.65949 12.8846H10.4703L5.30638 18.1115L0.15625 12.8846H3.87042C4.56078 5.80808 10.4427 0.272949 17.5949 0.272949Z" fill="#536DFE"/>
</svg>
