<svg width="18" height="24" viewBox="0 0 18 24" fill="none" xmlns="http://www.w3.org/2000/svg">
    <path d="M14.2039 6.85714H2.95898V0H14.2039V6.85714Z" fill="#FDDFAE"/>
    <path d="M8.87793 0H14.2045V6.85714H8.87793L8.87793 0Z" fill="#FAC15B"/>
    <path d="M7.69434 6.28574H8.87801V10.8572H7.69434V6.28574Z" fill="#F9B232"/>
    <path d="M8.87793 6.28574H9.46977V10.8572H8.87793V6.28574Z" fill="#FB8454"/>
    <path d="M7.69434 16.5715H8.87801V20.5715H7.69434V16.5715Z" fill="#77AAD4"/>
    <path d="M8.87793 16.5715H9.46977V20.5715H8.87793V16.5715Z" fill="#4A8EC6"/>
    <path d="M11.2445 23.4286H5.32617V22.5495C6.54992 22.5495 7.54556 21.6621 7.54556 20.5714H9.02515C9.02515 21.6621 10.0208 22.5495 11.2445 22.5495V23.4286Z" fill="#77AAD4"/>
    <path d="M9.02593 20.5714H8.28613V23.4286H11.2453V22.5495C10.0216 22.5495 9.02593 21.6621 9.02593 20.5714Z" fill="#4A8EC6"/>
    <path d="M14.4024 17.7143C13.714 17.7143 13.0524 17.5419 12.4621 17.2118C11.8721 17.5419 11.2103 17.7143 10.5219 17.7143C9.83351 17.7143 9.17186 17.5419 8.58163 17.2118C7.9916 17.5419 7.32975 17.7143 6.64138 17.7143C5.95301 17.7143 5.29135 17.5419 4.70113 17.2118C4.1111 17.5419 3.44925 17.7143 2.76088 17.7143C1.89705 17.7143 1.0751 17.4428 0.384071 16.9288L0 16.6432L1.70435 9.71432H15.4589L17.1633 16.6432L16.7792 16.9288C16.0882 17.4428 15.2662 17.7143 14.4024 17.7143Z" fill="#41C8F3"/>
    <path fill-rule="evenodd" clip-rule="evenodd" d="M2.95898 6.85714H14.2039V0H2.95898V6.85714ZM12.7497 5.48569H4.41299V1.37141H12.7497V5.48569Z" fill="#FAC15B"/>
    <path d="M5.91797 2.85718H11.2445V4.00004H5.91797V2.85718Z" fill="#F9B232"/>
    <path d="M4.73438 22.8571H12.4283V24H4.73438L4.73438 22.8571Z" fill="#A4C6E2"/>
    <path d="M8.28613 22.8571H12.429V24H8.28613L8.28613 22.8571Z" fill="#77AAD4"/>
    <path d="M8.87793 1.37143H12.8269V5.48571H8.87793V6.85714H14.2045V0H8.87793L8.87793 1.37143Z" fill="#F9B232"/>
    <path d="M8.28613 2.85718H11.2453V4.00004H8.28613V2.85718Z" fill="#FB8454"/>
</svg>
