<svg width="21" height="20" viewBox="0 0 21 20" fill="none" xmlns="http://www.w3.org/2000/svg">
    <path d="M2 4.76196V7.8741V10.2326V18.5715H3.57407H19V7.8741V4.76196H2Z" fill="#F0785A"/>
    <rect x="3" y="10" width="8.5" height="6.66667" fill="#B35A5B"/>
    <rect x="3.5" y="10.4762" width="7.5" height="5.71429" fill="#B0D3F0"/>
    <path d="M6.37135 4.76192H2.08962C2.03021 4.76192 1.98715 4.70707 2.00349 4.65192L3.28028 1.97798C3.43996 1.64313 3.78729 1.42859 4.16982 1.42859H7L6.37135 4.76192Z" fill="#ED7161"/>
    <path d="M15 4.76192H10.5V1.42859H14.3571L15 4.76192Z" fill="#ED7161"/>
    <path d="M8.25 9.04768C7.00736 9.04768 6 8.08829 6 6.90482V4.76196H10.5V6.90482C10.5 8.08829 9.49264 9.04768 8.25 9.04768Z" fill="#F0C419"/>
    <path d="M17.25 9.04768C16.0074 9.04768 15 8.08829 15 6.90482V4.76196H19.4656C19.4846 4.76196 19.5 4.77666 19.5 4.79472V6.90482C19.5 8.08829 18.4926 9.04768 17.25 9.04768Z" fill="#F0C419"/>
    <path d="M10.5 4.76192H6L6.64286 1.42859H10.5V4.76192Z" fill="#F3D55B"/>
    <path d="M19.4157 4.76192H15.1284L14.5 1.42859H17.3291C17.7115 1.42859 18.0587 1.64313 18.2186 1.97829L19.4968 4.65859C19.5119 4.71041 19.4717 4.76192 19.4157 4.76192Z" fill="#F3D55B"/>
    <path d="M4.25 9.04768C3.00736 9.04768 2 8.08829 2 6.90482V4.84829C2 4.80053 2.0405 4.76196 2.09064 4.76196H6.5V6.90482C6.5 8.08829 5.49264 9.04768 4.25 9.04768Z" fill="#D36259"/>
    <path d="M12.75 9.04768C11.5074 9.04768 10.5 8.08829 10.5 6.90482V4.76196H15V6.90482C15 8.08829 13.9926 9.04768 12.75 9.04768Z" fill="#D36259"/>
    <rect x="13" y="10" width="5" height="8.57143" fill="#B35A5B"/>
    <rect x="13.5" y="10.4762" width="3.5" height="7.61905" fill="#B0D3F0"/>
    <path d="M16.75 15.2381C16.6118 15.2381 16.5 15.1104 16.5 14.9524V14.0952C16.5 13.9372 16.6118 13.8095 16.75 13.8095C16.8882 13.8095 17 13.9372 17 14.0952V14.9524C17 15.1104 16.8882 15.2381 16.75 15.2381Z" fill="white"/>
    <path d="M6.98166 12.7381C7.06395 12.7381 7.14624 12.709 7.20891 12.6509L8.49463 11.4604C8.62031 11.3441 8.62031 11.156 8.49463 11.0396C8.36895 10.9232 8.16581 10.9232 8.04013 11.0396L6.75442 12.2301C6.62874 12.3465 6.62874 12.5346 6.75442 12.6509C6.81709 12.709 6.89938 12.7381 6.98166 12.7381Z" fill="white"/>
    <path d="M6.98166 14.2263C7.06395 14.2263 7.14624 14.1971 7.20891 14.1391L7.85177 13.5438C7.97745 13.4274 7.97745 13.2394 7.85177 13.123C7.72609 13.0066 7.52295 13.0066 7.39727 13.123L6.75442 13.7182C6.62874 13.8346 6.62874 14.0227 6.75442 14.1391C6.81709 14.1971 6.89938 14.2263 6.98166 14.2263Z" fill="white"/>
    <path d="M8.0395 12.5268C7.98132 12.5831 7.94629 12.6607 7.94629 12.7381C7.94629 12.8155 7.98132 12.8929 8.0395 12.9464C8.10025 13.0027 8.18061 13.0357 8.26772 13.0357C8.35129 13.0357 8.43486 13.003 8.49593 12.9494C8.55379 12.8929 8.58915 12.8155 8.58915 12.7381C8.58915 12.6607 8.55379 12.5831 8.49593 12.5268C8.377 12.4167 8.15843 12.4167 8.0395 12.5268Z" fill="white"/>
    <path d="M8.68313 12.3533C8.7458 12.4113 8.82809 12.4405 8.91038 12.4405C8.99266 12.4405 9.07495 12.4113 9.13763 12.3533L10.1019 11.4604C10.2276 11.3441 10.2276 11.156 10.1019 11.0396C9.97623 10.9232 9.77309 10.9232 9.64741 11.0396L8.68313 11.9325C8.55745 12.0488 8.55745 12.2369 8.68313 12.3533Z" fill="white"/>
    <path d="M9.64727 12.5277L6.75442 15.2063C6.62874 15.3226 6.62874 15.5107 6.75442 15.6271C6.81709 15.6851 6.89938 15.7143 6.98167 15.7143C7.06395 15.7143 7.14624 15.6851 7.20892 15.6271L10.1018 12.9485C10.2275 12.8322 10.2275 12.6441 10.1018 12.5277C9.97609 12.4113 9.77295 12.4113 9.64727 12.5277Z" fill="white"/>
    <path d="M10.7459 11.9316C10.627 11.8215 10.4084 11.8215 10.2895 11.9316C10.2313 11.9878 10.1963 12.0655 10.1963 12.1429C10.1963 12.2203 10.2313 12.2977 10.2895 12.3542C10.3503 12.4078 10.4341 12.4405 10.5177 12.4405C10.6013 12.4405 10.6849 12.4078 10.7459 12.3542C10.8038 12.2977 10.8391 12.2203 10.8391 12.1429C10.8391 12.0655 10.8038 11.9878 10.7459 11.9316Z" fill="white"/>
    <path d="M3.68442 18.5714H1.79096L1.50189 16.827C1.488 16.7432 1.55238 16.6667 1.63696 16.6667H4L3.68442 18.5714Z" fill="#CB8252"/>
    <rect x="2.5" y="13.3334" width="0.5" height="3.33333" fill="#7F6E5D"/>
    <path d="M3.87987 12.4393C3.96823 12.2179 4.0313 11.9709 3.98363 11.7348C3.963 11.6325 3.91591 11.5342 3.85109 11.4567C3.74181 11.3255 3.69414 11.137 3.73163 10.9635C3.76709 10.7992 3.74588 10.6147 3.66885 10.4674C3.52847 10.1991 3.24915 10.0489 2.97157 10.0097C2.76753 9.98086 2.54228 10.0117 2.39114 10.1662L2.21151 10.3201C2.00747 10.4155 1.8511 10.6268 1.80634 10.8669C1.78222 10.9972 1.79094 11.1338 1.82872 11.2601C1.88511 11.4483 1.83831 11.6518 1.73048 11.8101C1.48749 12.1663 1.42326 12.6768 1.6023 13.081C1.62497 13.1323 1.65433 13.183 1.68863 13.2288C1.80605 13.3853 1.85023 13.5929 1.80111 13.7892C1.78977 13.8341 1.78222 13.8803 1.77786 13.9261C1.75867 14.1357 1.80169 14.3455 1.84529 14.5507C1.89063 14.764 1.94644 14.9943 2.10339 15.1281C2.31615 15.3094 2.62424 15.2391 2.86781 15.1145C3.21194 14.9384 3.5305 14.6484 3.652 14.2507C3.72291 14.0186 3.70606 13.7494 3.61101 13.5315C3.5151 13.3113 3.5151 13.0498 3.65403 12.8599C3.74675 12.7333 3.82086 12.5875 3.87987 12.4393Z" fill="#24AE5F"/>
</svg>
