<svg width="17" height="15" viewBox="0 0 17 15" fill="none" xmlns="http://www.w3.org/2000/svg">
<path d="M5.76588 14.2225C5.73511 14.2225 5.70358 14.2187 5.67281 14.211C5.46628 14.1594 5.3409 13.9506 5.39243 13.7448L5.77703 12.208C5.82819 12.0015 6.03702 11.8753 6.24278 11.928C6.44931 11.9795 6.57469 12.1884 6.52316 12.3941L6.13856 13.931C6.0951 14.1064 5.93857 14.2225 5.76588 14.2225Z" fill="#CCD1D9"/>
<path d="M10.3776 14.2225C10.2057 14.2225 10.0488 14.106 10.0049 13.931L9.6211 12.3941C9.56918 12.1884 9.69456 11.9795 9.90071 11.928C10.1065 11.8753 10.3153 12.0015 10.3672 12.208L10.7511 13.7448C10.803 13.9506 10.6776 14.1594 10.4715 14.211C10.4399 14.2187 10.4084 14.2225 10.3776 14.2225Z" fill="#CCD1D9"/>
<path d="M5.76301 13.8374H10.3782H11.1474C11.5705 13.8374 11.9166 14.1797 11.9166 14.6066V14.9912H4.22461V14.6066C4.22461 14.1797 4.57075 13.8374 4.99381 13.8374H5.76301Z" fill="#D7DADD"/>
<path d="M9.9933 12.2993L10.3779 13.8377H5.7627L6.1473 12.2993H9.9933Z" fill="#C8CDD5"/>
<path d="M0.403404 10.7603H15.7605V11.5295C15.7605 11.9525 15.4143 12.2987 14.9913 12.2987H13.449H9.99533H6.14933H1.15299C0.729929 12.2987 0.383789 11.9525 0.383789 11.5295V10.7603H0.403404Z" fill="#E6E9ED"/>
<path d="M15.7605 1.15348V10.7608H0.403404H0.383789V1.15348C0.383789 0.730417 0.729929 0.384277 1.15299 0.384277H14.9909C15.414 0.384277 15.7605 0.730417 15.7605 1.15348Z" fill="#448AFF"/>
<path d="M14.9909 12.6857H1.1538C0.517672 12.6857 0 12.168 0 11.5319V1.1538C0 0.517672 0.517672 0 1.1538 0H14.9909C15.6271 0 16.1447 0.517672 16.1447 1.1538V11.5319C16.1447 12.168 15.6275 12.6857 14.9909 12.6857ZM1.1538 0.7692C0.941117 0.7692 0.7692 0.941501 0.7692 1.1538V11.5319C0.7692 11.7442 0.941117 11.9165 1.1538 11.9165H14.9909C15.2029 11.9165 15.3755 11.7442 15.3755 11.5319V1.1538C15.3755 0.941501 15.2029 0.7692 14.9909 0.7692H1.1538Z" fill="#D7DADD"/>
<path d="M8.08417 12.1086C7.87149 12.1086 7.69727 11.9366 7.69727 11.724C7.69727 11.5113 7.86764 11.3394 8.07956 11.3394H8.08417C8.29609 11.3394 8.46877 11.5113 8.46877 11.724C8.46877 11.9366 8.29609 12.1086 8.08417 12.1086Z" fill="#CCD1D9"/>
</svg>
