<svg width="18" height="15" viewBox="0 0 18 15" fill="none" xmlns="http://www.w3.org/2000/svg">
<path fill-rule="evenodd" clip-rule="evenodd" d="M2.62051 0C1.58745 0 0.75 0.837454 0.75 1.87051V9.35253C0.75 10.3856 1.58745 11.223 2.62051 11.223H8.02419V13.0935H6.36152V14.3405H10.9339V13.0935H9.27119V11.223H12.1808V12.2622C12.1808 12.7213 12.553 13.0935 13.0121 13.0935H17.1688C17.6279 13.0935 18.0001 12.7213 18.0001 12.2622V5.61152C18.0001 5.15238 17.6279 4.78018 17.1688 4.78018H16.1297V1.87051C16.1297 0.837454 15.2923 0 14.2592 0H2.62051ZM14.8827 4.78018V1.87051C14.8827 1.52616 14.6036 1.247 14.2592 1.247H2.62051C2.27616 1.247 1.997 1.52616 1.997 1.87051V9.35253C1.997 9.69688 2.27616 9.97603 2.62051 9.97603H12.1808V5.61152C12.1808 5.15238 12.553 4.78018 13.0121 4.78018H14.8827ZM13.4278 11.8465V6.02719H16.7531V11.8465H13.4278Z" fill="white"/>
</svg>
