<svg width="18" height="15" viewBox="0 0 18 15" fill="none" xmlns="http://www.w3.org/2000/svg">
<path d="M16.67 4.78H15.88V2.12C15.88 0.95 14.93 0 13.76 0H2.12C0.95 0 0 0.95 0 2.12V9.6C0 10.77 0.95 11.72 2.12 11.72H7.27V13.09H5.61V14.84H10.68V13.09H9.02V11.72H11.43V12.51C11.43 13.11 11.91 13.59 12.51 13.59H16.67C17.27 13.59 17.75 13.11 17.75 12.51V5.86C17.75 5.26 17.27 4.78 16.67 4.78ZM16 6.53V11.85H13.17V6.53H16ZM1.75 2.12C1.75 1.91 1.92 1.75 2.12 1.75H13.76C13.97 1.75 14.13 1.92 14.13 2.12V4.78H12.51C11.91 4.78 11.43 5.26 11.43 5.86V9.97H2.12C1.91 9.97 1.75 9.8 1.75 9.6V2.12Z" fill="#9E9E9E"/>
</svg>
