<svg width="45" height="52" viewBox="0 0 45 52" fill="none" xmlns="http://www.w3.org/2000/svg">
    <path d="M44.851 4.12036H4.86523V51.6004H44.851V4.12036Z" fill="#ACB3BA"/>
    <path d="M0.219727 39.4398V0.66803H41.047V48.5033H9.51088" fill="#F4F4F4"/>
    <path d="M0.219727 39.4398H9.51088V48.5033L0.219727 39.4398Z" fill="#CFD5E0"/>
    <path d="M6.68359 7.47289H9.10128C9.65903 7.47289 10.0773 7.59342 10.3562 7.83448C10.6351 8.07554 10.7745 8.41113 10.7745 8.84126C10.7745 9.08232 10.7391 9.2832 10.6682 9.44391C10.5973 9.59989 10.5146 9.72751 10.42 9.82677C10.3255 9.9213 10.231 9.98984 10.1364 10.0324C10.0466 10.0749 9.98044 10.1033 9.9379 10.1175V10.1316C10.0135 10.1411 10.0939 10.1647 10.179 10.2025C10.2688 10.2403 10.3515 10.3018 10.4271 10.3869C10.5027 10.4672 10.5642 10.5736 10.6115 10.7059C10.6634 10.8383 10.6894 11.0037 10.6894 11.2022C10.6894 11.5 10.7107 11.7718 10.7533 12.0176C10.8005 12.2586 10.8714 12.4312 10.966 12.5351H10.0159C9.94972 12.4264 9.90954 12.3059 9.89536 12.1736C9.88591 12.0412 9.88118 11.9136 9.88118 11.7907C9.88118 11.5591 9.867 11.3606 9.83864 11.1951C9.81028 11.025 9.75829 10.8855 9.68266 10.7768C9.60704 10.6634 9.50305 10.5807 9.3707 10.5287C9.24308 10.4767 9.07765 10.4507 8.8744 10.4507H7.56984V12.5351H6.68359V7.47289ZM7.56984 9.77714H9.02329C9.30689 9.77714 9.52196 9.71096 9.66848 9.57862C9.81501 9.44154 9.88827 9.2383 9.88827 8.96888C9.88827 8.80817 9.86464 8.67819 9.81737 8.57893C9.77011 8.47494 9.70393 8.39459 9.61885 8.33787C9.5385 8.28115 9.44397 8.24333 9.33525 8.22443C9.23127 8.20552 9.12255 8.19607 9.00911 8.19607H7.56984V9.77714Z" fill="#47BCE9"/>
    <path d="M11.6757 7.47289H15.3199V8.23861H12.5619V9.56444H15.1143V10.2876H12.5619V11.7694H15.3696V12.5351H11.6757V7.47289Z" fill="#47BCE9"/>
    <path d="M16.1415 7.47289H18.3749C18.7341 7.47289 19.0272 7.52488 19.2541 7.62887C19.4809 7.73285 19.6558 7.86284 19.7787 8.01882C19.9016 8.1748 19.9843 8.34496 20.0269 8.5293C20.0741 8.71364 20.0978 8.8838 20.0978 9.03978C20.0978 9.19576 20.0741 9.36592 20.0269 9.55026C19.9843 9.72987 19.9016 9.89767 19.7787 10.0536C19.6558 10.2096 19.4809 10.3396 19.2541 10.4436C19.0272 10.5429 18.7341 10.5925 18.3749 10.5925H17.0278V12.5351H16.1415V7.47289ZM17.0278 9.86931H18.3253C18.4245 9.86931 18.5261 9.85513 18.6301 9.82677C18.7341 9.79841 18.8287 9.7535 18.9137 9.69206C19.0035 9.62588 19.0744 9.5408 19.1264 9.43682C19.1832 9.3281 19.2115 9.19339 19.2115 9.03269C19.2115 8.86725 19.1879 8.73018 19.1406 8.62147C19.0933 8.51275 19.0295 8.42767 18.9492 8.36623C18.8688 8.30005 18.7767 8.25515 18.6727 8.23152C18.5687 8.20788 18.4576 8.19607 18.3394 8.19607H17.0278V9.86931Z" fill="#47BCE9"/>
    <path d="M23.0259 8.07554C22.7565 8.07554 22.5225 8.12989 22.324 8.23861C22.1302 8.34732 21.9718 8.49385 21.8489 8.67819C21.726 8.8578 21.6339 9.06341 21.5724 9.29502C21.5157 9.52662 21.4873 9.76296 21.4873 10.004C21.4873 10.2451 21.5157 10.4814 21.5724 10.713C21.6339 10.9446 21.726 11.1526 21.8489 11.3369C21.9718 11.5165 22.1302 11.6607 22.324 11.7694C22.5225 11.8781 22.7565 11.9325 23.0259 11.9325C23.2953 11.9325 23.5269 11.8781 23.7207 11.7694C23.9192 11.6607 24.0799 11.5165 24.2028 11.3369C24.3257 11.1526 24.4155 10.9446 24.4722 10.713C24.5337 10.4814 24.5644 10.2451 24.5644 10.004C24.5644 9.76296 24.5337 9.52662 24.4722 9.29502C24.4155 9.06341 24.3257 8.8578 24.2028 8.67819C24.0799 8.49385 23.9192 8.34732 23.7207 8.23861C23.5269 8.12989 23.2953 8.07554 23.0259 8.07554ZM23.0259 7.35236C23.404 7.35236 23.742 7.42326 24.0397 7.56506C24.3423 7.70686 24.5975 7.89829 24.8055 8.13935C25.0134 8.38041 25.1718 8.66164 25.2805 8.98306C25.3939 9.30447 25.4507 9.64479 25.4507 10.004C25.4507 10.368 25.3939 10.7107 25.2805 11.0321C25.1718 11.3535 25.0134 11.6347 24.8055 11.8758C24.5975 12.1168 24.3423 12.3083 24.0397 12.4501C23.742 12.5871 23.404 12.6557 23.0259 12.6557C22.6477 12.6557 22.3074 12.5871 22.0049 12.4501C21.7071 12.3083 21.4543 12.1168 21.2463 11.8758C21.0383 11.6347 20.8776 11.3535 20.7642 11.0321C20.6555 10.7107 20.6011 10.368 20.6011 10.004C20.6011 9.64479 20.6555 9.30447 20.7642 8.98306C20.8776 8.66164 21.0383 8.38041 21.2463 8.13935C21.4543 7.89829 21.7071 7.70686 22.0049 7.56506C22.3074 7.42326 22.6477 7.35236 23.0259 7.35236Z" fill="#47BCE9"/>
    <path d="M26.2573 7.47289H28.6749C29.2327 7.47289 29.651 7.59342 29.9299 7.83448C30.2087 8.07554 30.3482 8.41113 30.3482 8.84126C30.3482 9.08232 30.3127 9.2832 30.2418 9.44391C30.1709 9.59989 30.0882 9.72751 29.9937 9.82677C29.8991 9.9213 29.8046 9.98984 29.7101 10.0324C29.6203 10.0749 29.5541 10.1033 29.5116 10.1175V10.1316C29.5872 10.1411 29.6675 10.1647 29.7526 10.2025C29.8424 10.2403 29.9251 10.3018 30.0008 10.3869C30.0764 10.4672 30.1378 10.5736 30.1851 10.7059C30.2371 10.8383 30.2631 11.0037 30.2631 11.2022C30.2631 11.5 30.2844 11.7718 30.3269 12.0176C30.3742 12.2586 30.4451 12.4312 30.5396 12.5351H29.5896C29.5234 12.4264 29.4832 12.3059 29.469 12.1736C29.4596 12.0412 29.4548 11.9136 29.4548 11.7907C29.4548 11.5591 29.4407 11.3606 29.4123 11.1951C29.3839 11.025 29.3319 10.8855 29.2563 10.7768C29.1807 10.6634 29.0767 10.5807 28.9444 10.5287C28.8167 10.4767 28.6513 10.4507 28.4481 10.4507H27.1435V12.5351H26.2573V7.47289ZM27.1435 9.77714H28.597C28.8806 9.77714 29.0956 9.71096 29.2421 9.57862C29.3887 9.44154 29.4619 9.2383 29.4619 8.96888C29.4619 8.80817 29.4383 8.67819 29.391 8.57893C29.3438 8.47494 29.2776 8.39459 29.1925 8.33787C29.1122 8.28115 29.0176 8.24333 28.9089 8.22443C28.8049 8.20552 28.6962 8.19607 28.5828 8.19607H27.1435V9.77714Z" fill="#47BCE9"/>
    <path d="M30.6426 7.47289H34.7406V8.23861H33.1312V12.5351H32.2449V8.23861H30.6426V7.47289Z" fill="#47BCE9"/>
    <path d="M35.0525 19.6608H6.20996V21.1748H35.0525V19.6608Z" fill="#CFD5E0"/>
    <path d="M35.0525 24.0787H6.20996V25.5927H35.0525V24.0787Z" fill="#CFD5E0"/>
    <path d="M35.0525 28.4966H6.20996V30.0107H35.0525V28.4966Z" fill="#CFD5E0"/>
    <path d="M23.5024 32.9146H6.20996V34.4286H23.5024V32.9146Z" fill="#CFD5E0"/>
</svg>
