<svg width="53" height="53" viewBox="0 0 53 53" fill="none" xmlns="http://www.w3.org/2000/svg">
    <path d="M0 26.5C0 41.1355 11.8644 53 26.5 53L28.8044 26.5L26.5 0C11.8644 0 0 11.8645 0 26.5Z" fill="#BFDCFF"/>
    <path d="M26.5 0V53C41.1356 53 53 41.1355 53 26.5C53 11.8645 41.1356 0 26.5 0Z" fill="#8BC0FF"/>
    <path d="M4.6084 26.5C4.6084 38.571 14.4287 48.3913 26.4997 48.3913L28.804 26.5L26.4997 4.60873C14.4287 4.60873 4.6084 14.4291 4.6084 26.5Z" fill="#3897FF"/>
    <path d="M26.5 4.60873V48.3914C38.571 48.3914 48.3913 38.5711 48.3913 26.5001C48.3913 14.4292 38.571 4.60873 26.5 4.60873Z" fill="#2D79CC"/>
    <path d="M23.0439 14.9783C23.0439 16.8873 24.5914 18.4348 26.5004 18.4348L27.6526 14.9783L26.5004 11.5217C24.5914 11.5217 23.0439 13.0693 23.0439 14.9783Z" fill="white"/>
    <path d="M26.5 11.5217V18.4348C28.409 18.4348 29.9565 16.8873 29.9565 14.9783C29.9565 13.0693 28.409 11.5217 26.5 11.5217Z" fill="#BFDCFF"/>
    <path d="M23.0439 23.0435V41.4783H26.5004L27.6526 32.2608L26.5004 23.0435H23.0439Z" fill="white"/>
    <path d="M29.9565 23.0435H26.5V41.4783H29.9565V23.0435Z" fill="#BFDCFF"/>
</svg>
