<svg width="111" height="100" viewBox="0 0 111 100" fill="none" xmlns="http://www.w3.org/2000/svg">
<path d="M110.372 74.3733C108.49 66.5981 104.266 60.5205 96.9191 56.7763C99.0716 54.6879 100.005 52.1394 99.9219 49.1769C99.8709 47.3314 99.908 45.4835 99.908 43.6357C99.9057 41.2074 99.4539 40.7588 97.0048 40.7588C94.5882 40.7588 92.1693 40.7588 89.6461 40.7588C89.9334 38.2195 90.2021 35.8328 90.4779 33.3768C90.9969 33.3768 91.4139 33.3791 91.8333 33.3768C93.7842 33.3698 94.3611 32.7894 94.3611 30.8167C94.3634 28.8532 94.3102 26.8898 94.3727 24.9286C94.4167 23.5295 94.046 22.5027 92.5701 22.2228C92.5423 22.0748 92.5168 21.9985 92.5168 21.9245C92.5145 19.1932 92.5168 16.4597 92.5122 13.7284C92.5099 11.7766 91.9306 11.2053 89.9519 11.203C82.5908 11.2007 75.2274 11.203 67.8664 11.203C67.4609 11.203 67.0554 11.203 66.6013 11.203C66.6013 9.30201 66.6152 7.57214 66.599 5.84227C66.5665 2.46116 64.2217 0.134629 60.8204 0.120753C57.3519 0.104564 53.8834 0.111502 50.4148 0.11844C46.6683 0.125378 44.4046 2.41028 44.3976 6.18454C44.3953 7.82653 44.3976 9.46852 44.3976 11.2308C41.4782 11.2308 34.1519 11.2308 29.3233 11.2308C29.3117 11.2285 29.3024 11.2238 29.2908 11.2238C26.5151 11.2123 23.7416 11.203 20.9659 11.203C19.0822 11.203 18.496 11.7974 18.4914 13.6937C18.4867 16.5337 18.4914 19.3736 18.4914 22.2066C17.3746 22.4888 16.654 23.0461 16.647 24.2002C16.6354 26.6238 16.6192 29.0498 16.6563 31.4735C16.6748 32.6298 17.3931 33.3028 18.5609 33.3606C19.2027 33.393 19.8491 33.3652 20.5349 33.3652C20.8107 35.8837 21.0702 38.2681 21.3436 40.7588C18.5933 40.7588 16.0168 40.7518 13.4426 40.7611C11.7211 40.7657 11.0978 41.3994 11.0932 43.1455C11.0863 45.4535 11.0793 47.7638 11.0978 50.0719C11.1141 52.3128 11.8972 54.2786 13.343 55.983C13.577 56.2582 13.811 56.5311 13.9616 56.7092C12.4579 57.7083 10.9194 58.5431 9.60339 59.644C4.16078 64.1883 1.06297 70.0463 0.166295 77.0583C-1.37682 89.1026 8.01625 99.8611 20.1642 99.8148C22.7013 99.8056 25.2361 99.1765 27.9053 98.8158C28.2598 99.6761 29.1866 99.8912 30.3242 99.8842C36.4133 99.8541 42.5046 99.8726 48.5937 99.875C49.0061 99.875 49.4208 99.875 49.8842 99.875C49.8842 99.8472 49.8842 99.8195 49.8842 99.7894C53.6771 99.7894 57.4121 99.7894 61.1263 99.7894C61.1263 99.8148 61.1263 99.8426 61.1263 99.868C67.6161 99.868 74.0133 99.8472 80.4082 99.8842C81.6432 99.8912 82.7044 99.7408 83.2489 98.5128C88.1192 99.9397 91.0108 100.201 94.3519 99.5304C106.143 97.1692 113.217 86.1262 110.372 74.3733ZM96.1429 44.5076C96.1429 46.626 96.3005 48.7051 96.0989 50.7495C95.895 52.8216 94.6554 54.2948 92.5075 55.1528C92.5075 53.5779 92.4913 52.1671 92.5145 50.7587C92.5307 49.7573 92.4774 48.8022 91.3954 48.3281C90.3087 47.8517 89.5557 48.3674 88.9185 49.2C88.8977 49.2254 88.8073 49.1977 88.7401 49.1861C88.8977 47.6274 89.0599 46.0779 89.2244 44.5053C91.5831 44.5076 93.8375 44.5076 96.1429 44.5076ZM88.7193 49.3503C88.7494 50.9761 88.7795 52.5996 88.8027 54.2254C88.8073 54.489 88.7726 54.7527 88.7587 55.0186C88.659 55.0533 88.5571 55.0857 88.4575 55.1204C88.3485 54.8197 88.1238 54.5098 88.1516 54.2231C88.3068 52.595 88.52 50.9738 88.7193 49.3503ZM48.1094 5.72664C48.1349 4.56337 48.8323 3.83488 49.9885 3.82563C53.6818 3.79788 57.375 3.79788 61.066 3.83719C62.1295 3.84876 62.8292 4.49399 62.8686 5.56244C62.9358 7.39406 62.8872 9.23263 62.8872 11.1336C57.945 11.1336 53.084 11.1336 48.0978 11.1336C48.1001 9.25575 48.0723 7.49119 48.1094 5.72664ZM22.2657 14.8524C23.4984 14.8524 24.7148 14.8524 25.9196 14.8524C25.9196 14.8825 25.9196 14.9125 25.9196 14.9426C44.4231 14.9426 70.2946 14.9426 88.7216 14.9426C88.7216 17.431 88.7216 19.8269 88.7216 22.2251C66.5295 22.2251 44.4208 22.2251 22.2634 22.2251C22.2657 19.7668 22.2657 17.3709 22.2657 14.8524ZM20.433 29.6164C20.433 28.467 20.433 27.2991 20.433 26.0549C43.7813 26.0549 67.1481 26.0549 90.5983 26.0549C90.5983 27.2829 90.5983 28.4231 90.5983 29.6164C67.2037 29.6164 43.8647 29.6164 20.433 29.6164ZM14.8236 44.5261C18.5006 44.5261 22.136 44.5261 25.8385 44.5261C25.8385 46.6191 25.9961 48.7005 25.7945 50.7472C25.5906 52.8239 24.3464 54.2994 22.1939 55.1643C22.1939 53.4807 22.2009 51.9567 22.1916 50.4326C22.1823 48.9895 21.4733 48.1408 20.3171 48.157C19.1656 48.1732 18.5029 49.0127 18.4937 50.4835C18.4867 51.9821 18.4914 53.4807 18.4914 55.1944C16.2508 54.2069 15.0089 52.6782 14.8514 50.4743C14.7123 48.5224 14.8236 46.5589 14.8236 44.5261ZM21.5729 96.1423C12.831 96.7852 5.1038 90.548 3.87579 81.8547C2.80766 74.297 7.27713 64.9769 13.862 61.1125C18.6095 58.328 23.3408 58.5616 27.7431 61.7415C33.7557 66.087 36.5268 72.2364 36.9925 78.4181C37.0018 88.2238 30.2478 95.504 21.5729 96.1423ZM38.3642 69.4612C37.2196 67.0075 36.7724 64.5491 36.5476 61.9497C36.1213 57.0098 35.6533 52.0746 35.2038 47.1371C35.1853 46.9451 35.1644 46.7532 35.1598 46.5612C35.1297 45.3841 35.8062 44.5469 36.8442 44.466C37.8591 44.3873 38.7233 45.1598 38.8276 46.293C39.2979 51.3045 39.7544 56.3184 40.2131 61.3322C40.9708 69.5999 41.7261 77.8654 42.4815 86.1331C42.5023 86.3621 42.5185 86.5934 42.5394 86.8223C42.6135 86.8824 42.6877 86.9449 42.7618 87.005C42.3332 87.5323 42.0018 88.2862 41.4481 88.5244C40.936 88.7441 40.1436 88.5175 39.5597 88.2793C39.328 88.1845 39.1288 87.4514 39.2493 87.1391C41.601 81.1054 41.0241 75.1619 38.3642 69.4612ZM79.734 96.1978C73.4712 96.1978 67.2894 96.1978 61.1286 96.1978C61.1286 96.1978 61.1286 96.1978 61.1286 96.2001C60.459 96.1886 59.8959 96.1793 59.3352 96.1793C56.2444 96.177 53.1558 96.177 49.8865 96.177C49.8865 96.1585 49.8865 96.14 49.8865 96.1192C44.006 96.1192 38.1927 96.1192 32.7571 96.1192C34.2561 94.7108 35.8757 93.1868 37.4953 91.665C37.3679 91.5216 37.2404 91.3759 37.113 91.2326C37.2705 91.332 37.4304 91.4314 37.588 91.5309C39.5227 92.745 41.5245 92.8537 43.487 91.6881C45.4866 90.5018 46.4134 88.6586 46.2141 86.3436C45.76 81.0545 45.2526 75.7724 44.7683 70.4857C44.0292 62.4423 43.2623 54.4035 42.5672 46.3554C42.2799 43.0252 39.7729 40.6061 36.6774 40.849C33.3618 41.1103 31.1676 43.8161 31.4989 47.2319C31.7793 50.1412 32.062 53.0506 32.3284 55.9622C32.4767 57.5764 32.5949 59.1953 32.7246 60.7748C30.681 59.3826 28.7116 58.0367 26.719 56.6791C28.2111 55.2106 29.3302 53.4206 29.4577 51.2814C29.6338 48.3304 29.6106 45.361 29.5503 42.4031C29.5295 41.3531 28.7301 40.7912 27.6574 40.768C26.8232 40.7495 25.9891 40.7634 25.0994 40.7634C24.8144 38.2334 24.548 35.8513 24.2769 33.4415C45.1645 33.4415 65.9224 33.4415 86.7336 33.4415C84.3958 54.3688 82.0695 75.2243 79.734 96.1978ZM84.7456 95.0785C83.9092 94.7617 83.6358 94.387 83.7377 93.4966C84.9936 82.4953 86.2239 71.4894 87.4264 60.4811C87.5121 59.6902 87.9755 59.5861 88.5617 59.4682C92.0302 58.7651 95.1837 59.6416 97.9594 61.6606C103.993 66.0523 106.843 72.1739 107.311 78.4967C107.244 91.221 95.6355 99.2159 84.7456 95.0785Z" fill="#E0E0E0"/>
</svg>
