<svg width="82" height="53" viewBox="0 0 82 53" fill="none" xmlns="http://www.w3.org/2000/svg">
    <path d="M62.3733 14.8359C61.2417 14.8359 60.1347 14.9378 59.0564 15.1132C56.3668 6.36815 48.0356 0 38.1669 0C26.117 0 16.3549 9.49108 16.3549 21.1959C16.3549 22.2396 16.4369 23.267 16.5886 24.2781C16.0051 24.2063 15.4177 24.1695 14.8297 24.168C6.6379 24.168 0 30.6177 0 38.5799C0 46.5422 6.6379 53 14.8297 53H32.8V36.6923H22.55L41 16.3077L59.45 36.6923H49.2V53H62.3733C73.2096 53 82 44.4548 82 33.92C82 23.3771 73.2096 14.8359 62.3733 14.8359Z" fill="#EFEFEF"/>
</svg>
