<svg width="18" height="16" viewBox="0 0 18 16" fill="none" xmlns="http://www.w3.org/2000/svg">
<path d="M6.2814 8.00099C6.28044 6.25023 6.2814 4.49946 6.28044 2.74965C6.28044 1.2024 7.39891 0.0345939 8.95808 0.0174762C11.044 -0.00534747 13.1299 -0.00629845 15.2158 0.0174762C16.7778 0.0355449 17.8934 1.18053 17.8982 2.7468C17.9078 6.26354 17.9068 9.78028 17.8982 13.297C17.8944 14.8186 16.7654 15.9636 15.2196 15.9816C13.1337 16.0064 11.0478 16.0045 8.96191 15.9826C7.41995 15.9664 6.29956 14.8357 6.28522 13.2989C6.26897 11.5339 6.2814 9.76697 6.2814 8.00099ZM8.04992 8.0086C8.04992 9.72798 8.04801 11.4474 8.05088 13.1667C8.05183 13.8838 8.37399 14.1995 9.09765 14.2005C11.0889 14.2014 13.0792 14.2014 15.0705 14.2005C15.7951 14.2005 16.1354 13.8895 16.1373 13.1762C16.144 9.73749 16.144 6.29873 16.1373 2.85997C16.1364 2.11249 15.8008 1.79867 15.0542 1.79867C13.0792 1.79772 11.1042 1.79772 9.1292 1.79867C8.36921 1.79867 8.05088 2.10774 8.04992 2.85046C8.04801 4.56984 8.04992 6.28922 8.04992 8.0086Z" fill="#9E9E9E"/>
<path d="M5.35038 0.943638C5.35038 1.50757 5.35038 2.04107 5.35038 2.62498C4.57987 2.80091 4.447 3.36675 4.45369 4.08474C4.4795 6.75035 4.46325 9.41691 4.4642 12.0825C4.4642 12.869 4.60568 13.0772 5.34368 13.3787C5.34368 13.9293 5.34368 14.4885 5.34368 15.0467C4.0063 15.1076 2.71097 13.9265 2.69855 12.5742C2.67178 9.51391 2.67274 6.45364 2.69663 3.39337C2.70715 2.08197 3.9824 0.922717 5.35038 0.943638Z" fill="#9E9E9E"/>
<path d="M1.74164 2.70312C1.74164 6.24935 1.74164 9.75658 1.74164 13.2629C0.749354 13.3133 0.0362082 12.7389 0.0237808 11.7812C-0.00680991 9.34004 -0.00967779 6.89697 0.0256927 4.45579C0.040988 3.38974 0.687216 2.7754 1.74164 2.70312Z" fill="#9E9E9E"/>
</svg>
