<svg width="21" height="16" viewBox="0 0 21 16" fill="none" xmlns="http://www.w3.org/2000/svg">
<path d="M9.97656 15.9943C10.5288 15.9943 10.9766 15.5465 10.9766 14.9943C10.9766 14.442 10.5288 13.9943 9.97656 13.9943C9.42428 13.9943 8.97656 14.442 8.97656 14.9943C8.97656 15.5465 9.42428 15.9943 9.97656 15.9943Z" fill="#2979FF"/>
<path d="M9.97605 9.9942C8.68178 9.99417 7.43792 10.496 6.50605 11.3942C6.31509 11.5785 6.20518 11.8312 6.20049 12.0965C6.19581 12.3619 6.29673 12.6182 6.48105 12.8092C6.66538 13.0002 6.91801 13.1101 7.18337 13.1148C7.44874 13.1194 7.70509 13.0185 7.89605 12.8342C8.46395 12.3142 9.20604 12.0258 9.97605 12.0258C10.7461 12.0258 11.4881 12.3142 12.0561 12.8342C12.247 13.0185 12.5034 13.1194 12.7687 13.1148C13.0341 13.1101 13.2867 13.0002 13.4711 12.8092C13.6554 12.6182 13.7563 12.3619 13.7516 12.0965C13.7469 11.8312 13.637 11.5785 13.4461 11.3942C12.5142 10.496 11.2703 9.99417 9.97605 9.9942ZM9.97605 4.9942C8.76826 4.995 7.57298 5.23889 6.46143 5.71134C5.34988 6.18379 4.34479 6.87514 3.50605 7.7442C3.41478 7.84073 3.34342 7.95428 3.29603 8.07838C3.24865 8.20248 3.22617 8.3347 3.22989 8.46749C3.2336 8.60028 3.26343 8.73103 3.31768 8.85229C3.37193 8.97355 3.44953 9.08294 3.54605 9.17421C3.74098 9.35853 4.00116 9.45787 4.26934 9.45037C4.40212 9.44665 4.53288 9.41682 4.65414 9.36257C4.7754 9.30833 4.88478 9.23073 4.97605 9.13421C5.62904 8.45673 6.41191 7.91786 7.27787 7.54979C8.14383 7.18173 9.07511 6.99202 10.0161 6.99202C10.957 6.99202 11.8883 7.18173 12.7542 7.54979C13.6202 7.91786 14.4031 8.45673 15.0561 9.13421C15.1487 9.22869 15.2591 9.30386 15.381 9.35536C15.5029 9.40686 15.6337 9.43366 15.7661 9.4342C15.9615 9.43346 16.1524 9.37548 16.3152 9.26741C16.478 9.15935 16.6056 9.00595 16.6822 8.82616C16.7588 8.64637 16.7811 8.44808 16.7462 8.2558C16.7113 8.06351 16.6209 7.88565 16.4861 7.7442C15.6426 6.87029 14.6311 6.17612 13.5123 5.7035C12.3935 5.23089 11.1906 4.98961 9.97605 4.9942Z" fill="#2979FF"/>
<path d="M19.6965 3.92421C17.0869 1.40678 13.6024 0 9.97646 0C6.35053 0 2.86603 1.40678 0.256456 3.92421C0.0876938 4.11186 -0.00387233 4.35639 0.000125609 4.60874C0.00412354 4.86108 0.10339 5.10259 0.278012 5.2848C0.452634 5.46701 0.689696 5.57646 0.941645 5.59119C1.19359 5.60592 1.44179 5.52484 1.63646 5.36421C3.87406 3.20133 6.8644 1.99232 9.97646 1.99232C13.0885 1.99232 16.0789 3.20133 18.3165 5.36421C18.5018 5.54289 18.749 5.64318 19.0065 5.64421C19.1412 5.64369 19.2744 5.61597 19.3981 5.5627C19.5218 5.50943 19.6335 5.43171 19.7265 5.33421C19.9088 5.14291 20.008 4.88722 20.0023 4.62302C19.9967 4.35881 19.8867 4.10758 19.6965 3.92421Z" fill="#2979FF"/>
</svg>
