<svg width="20" height="19" viewBox="0 0 20 19" fill="none" xmlns="http://www.w3.org/2000/svg">
<path d="M9.97656 17.0041C10.5288 17.0041 10.9766 16.5564 10.9766 16.0041C10.9766 15.4518 10.5288 15.0041 9.97656 15.0041C9.42428 15.0041 8.97656 15.4518 8.97656 16.0041C8.97656 16.5564 9.42428 17.0041 9.97656 17.0041Z" fill="#FF4452"/>
<path d="M10.4165 8.00409L8.51646 6.11409L6.05646 3.67409L4.50646 2.12409L2.68646 0.294092C2.59322 0.200853 2.48253 0.126892 2.36071 0.076432C2.23888 0.0259717 2.10832 0 1.97646 0C1.8446 0 1.71403 0.0259717 1.59221 0.076432C1.47038 0.126892 1.35969 0.200853 1.26646 0.294092C1.07815 0.482395 0.972364 0.73779 0.972364 1.00409C0.972364 1.27039 1.07815 1.52579 1.26646 1.71409L2.64646 3.08409L4.10646 4.54409L6.33646 6.78409L7.88646 8.32409L10.6265 11.0641L13.4165 13.8641L17.2665 17.7141C17.3594 17.8078 17.47 17.8822 17.5919 17.933C17.7137 17.9838 17.8444 18.0099 17.9765 18.0099C18.1085 18.0099 18.2392 17.9838 18.361 17.933C18.4829 17.8822 18.5935 17.8078 18.6865 17.7141C18.7802 17.6211 18.8546 17.5105 18.9053 17.3887C18.9561 17.2668 18.9823 17.1361 18.9823 17.0041C18.9823 16.8721 18.9561 16.7414 18.9053 16.6195C18.8546 16.4977 18.7802 16.3871 18.6865 16.2941L10.4165 8.00409ZM19.6965 4.93409C17.0919 2.40826 13.6046 0.998282 9.97646 1.00409C8.46692 1.00818 6.96784 1.25465 5.53646 1.73409L7.15646 3.35409C9.11825 2.8639 11.1727 2.88214 13.1254 3.40708C15.0782 3.93202 16.8649 4.94632 18.3165 6.35409C18.5018 6.53277 18.749 6.63307 19.0065 6.63409C19.1412 6.63358 19.2744 6.60585 19.3981 6.55258C19.5218 6.49931 19.6335 6.42159 19.7265 6.32409C19.9027 6.13376 19.9981 5.88238 19.9925 5.62303C19.9869 5.36367 19.8808 5.11664 19.6965 4.93409ZM1.79646 3.65409C1.25388 4.0443 0.739292 4.47201 0.256456 4.93409C0.0876938 5.12175 -0.00387233 5.36627 0.000125609 5.61862C0.00412354 5.87097 0.10339 6.11247 0.278012 6.29468C0.452634 6.4769 0.689696 6.58635 0.941645 6.60107C1.19359 6.6158 1.44179 6.53472 1.63646 6.37409C2.13516 5.90282 2.67014 5.47149 3.23646 5.08409L1.79646 3.65409ZM14.9765 10.1441C15.0691 10.2386 15.1795 10.3137 15.3014 10.3652C15.4233 10.4167 15.5541 10.4435 15.6865 10.4441C15.8819 10.4433 16.0728 10.3854 16.2356 10.2773C16.3985 10.1692 16.526 10.0158 16.6026 9.83605C16.6792 9.65626 16.7015 9.45797 16.6666 9.26568C16.6317 9.0734 16.5413 8.89554 16.4065 8.75409C15.5724 7.88985 14.5738 7.2013 13.4695 6.72901C12.3652 6.25671 11.1775 6.01023 9.97646 6.00409H9.81646L12.1665 8.35409C13.2335 8.71591 14.1975 9.32997 14.9765 10.1441ZM5.40646 7.26409C4.70767 7.6711 4.06832 8.17248 3.50646 8.75409C3.32213 8.94903 3.22279 9.2092 3.23029 9.47738C3.23779 9.74555 3.35152 9.99977 3.54646 10.1841C3.74139 10.3684 4.00156 10.4678 4.26974 10.4603C4.53792 10.4528 4.79213 10.339 4.97646 10.1441C5.55904 9.56491 6.2352 9.08821 6.97646 8.73409L5.40646 7.26409ZM6.50646 12.4041C6.3155 12.5884 6.20559 12.841 6.2009 13.1064C6.19858 13.2378 6.22216 13.3684 6.2703 13.4907C6.31844 13.6129 6.39019 13.7245 6.48146 13.8191C6.57272 13.9136 6.68172 13.9893 6.80223 14.0417C6.92273 14.0941 7.05238 14.1223 7.18378 14.1246C7.44914 14.1293 7.7055 14.0284 7.89646 13.8441C8.41127 13.3693 9.07338 13.0854 9.77224 13.0399C10.4711 12.9944 11.1644 13.19 11.7365 13.5941L9.21646 11.0741C8.19767 11.2276 7.25119 11.6921 6.50646 12.4041Z" fill="#FF4452"/>
</svg>
