<svg width="20" height="16" viewBox="0 0 20 16" fill="none" xmlns="http://www.w3.org/2000/svg">
<path d="M9.97573 15.8826C10.5278 15.8826 10.9759 15.4236 10.9759 14.8569C10.9759 14.2907 10.5284 13.8312 9.97573 13.8312C9.42366 13.8312 8.97559 14.2902 8.97559 14.8569C8.97559 15.4236 9.42309 15.8826 9.97573 15.8826Z" fill="#FF4452"/>
<path d="M19.6945 4.02367C17.0853 1.4425 13.6008 0 9.97577 0C6.35015 0 2.86565 1.4425 0.256484 4.02367C0.0878247 4.21624 -0.00381369 4.46703 0.000121696 4.72532C0.00405709 4.98419 0.103566 5.23152 0.277848 5.41832C0.452129 5.60512 0.689377 5.71754 0.941242 5.73253C1.19311 5.74752 1.4416 5.6645 1.63612 5.49961C3.87367 3.28166 6.86344 2.0421 9.97521 2.0421C13.087 2.0421 16.0768 3.28166 18.3143 5.49961C18.4998 5.68295 18.7466 5.78558 19.0041 5.78673C19.139 5.78615 19.2717 5.7579 19.3954 5.70313C19.5191 5.64836 19.631 5.5688 19.7237 5.46906C19.9059 5.27303 20.0054 5.01071 19.9998 4.73973C19.9947 4.46934 19.8845 4.2122 19.6945 4.02367Z" fill="#2979FF"/>
<path d="M13.4457 11.6835C12.9364 11.1801 12.3337 10.7991 11.6804 10.5563C11.6158 11.2834 11.5506 12.0104 11.4854 12.738C11.6889 12.855 11.8806 12.9962 12.0554 13.16C12.2466 13.3491 12.5029 13.4523 12.7677 13.4477C13.0331 13.4431 13.2855 13.3301 13.4699 13.134C13.6543 12.938 13.755 12.6751 13.7505 12.403C13.7465 12.1314 13.6369 11.8726 13.4457 11.6835Z" fill="#2979FF"/>
<path d="M16.7431 8.46524C16.7082 8.26806 16.6177 8.08587 16.4828 7.94058C15.6395 7.04464 14.6281 6.33262 13.5093 5.84832C13.0624 5.65461 12.6025 5.49952 12.1336 5.38306C12.092 5.84141 12.0499 6.29975 12.0094 6.7581C11.9891 6.98872 11.9695 7.21933 11.9492 7.45053C12.2213 7.53067 12.4895 7.62752 12.7515 7.74168C13.6173 8.11931 14.4004 8.67164 15.0531 9.36637C15.1459 9.46323 15.2561 9.54048 15.3781 9.59295C15.5001 9.64541 15.6305 9.67309 15.7632 9.67366C15.9588 9.67309 16.1494 9.6137 16.3124 9.50243C16.4755 9.39174 16.6025 9.23434 16.6796 9.04985C16.7554 8.86593 16.7779 8.66241 16.7431 8.46524Z" fill="#2979FF"/>
<path d="M7.82745 5.3913C7.36307 5.50891 6.90769 5.664 6.46524 5.85656C5.35378 6.34086 4.34857 7.05 3.51033 7.94133C3.41925 8.0405 3.34785 8.15696 3.30007 8.2838C3.25284 8.41121 3.23036 8.5467 3.23373 8.68276C3.23766 8.81883 3.26746 8.95316 3.32143 9.07712C3.3754 9.20165 3.45299 9.3135 3.54968 9.40747C3.74477 9.59658 4.0045 9.69863 4.27267 9.69056C4.40535 9.68652 4.53634 9.65596 4.65721 9.60062C4.77865 9.54527 4.88772 9.4657 4.97935 9.36654C5.63207 8.67181 6.41521 8.11948 7.28099 7.74185C7.51993 7.6375 7.76392 7.54756 8.01129 7.47145C7.95057 6.77787 7.88929 6.08487 7.82745 5.3913Z" fill="#2979FF"/>
<path d="M8.28243 10.553C7.62578 10.7957 7.01917 11.1779 6.50757 11.6836C6.31642 11.8727 6.20679 12.1315 6.20229 12.4037C6.1978 12.6758 6.29843 12.9387 6.48283 13.1347C6.66723 13.3307 6.91966 13.4432 7.18502 13.4484C7.45037 13.453 7.70674 13.3498 7.89788 13.1607C8.07554 12.994 8.27006 12.8516 8.47695 12.7334C8.41117 12.0064 8.34652 11.2794 8.28243 10.553Z" fill="#2979FF"/>
<path d="M9.97339 4.49066C10.2084 4.49066 10.4428 4.49066 10.6778 4.49066C11.0871 4.49008 11.3502 4.76797 11.3159 5.18539C11.2507 5.97755 11.1748 6.76914 11.1045 7.56073C11.0494 8.18109 10.9972 8.80202 10.9426 9.42295C10.8808 10.1252 10.8167 10.8268 10.7543 11.5285C10.7414 11.6738 10.7459 11.8237 10.7121 11.9638C10.675 12.1189 10.6227 12.2762 10.5429 12.4117C10.4569 12.5576 10.3062 12.6239 10.1336 12.6216C10.0538 12.6204 9.97452 12.6222 9.89469 12.6222C9.54837 12.6216 9.31281 12.429 9.26334 12.0716C9.21611 11.7314 9.19362 11.3878 9.16327 11.0453C9.09974 10.3391 9.0379 9.63281 8.97493 8.92655C8.9114 8.20761 8.84787 7.48809 8.78378 6.76914C8.73768 6.25141 8.69495 5.7331 8.64155 5.21595C8.59826 4.7968 8.84956 4.49181 9.25715 4.48893C9.49609 4.4872 9.73502 4.48835 9.97396 4.48835C9.97339 4.49066 9.97339 4.49066 9.97339 4.49066Z" fill="#FF4452"/>
</svg>
