<svg width="13" height="13" viewBox="0 0 13 13" fill="none" xmlns="http://www.w3.org/2000/svg">
<path d="M0.842 0.842H4.21V0H0V4.21H0.842V0.842Z" fill="#979797"/>
<path d="M4.21057 4.21V1.684H1.68457V4.21H4.21057ZM2.52657 2.526H3.36857V3.368H2.52657V2.526Z" fill="#979797"/>
<path d="M8.20996 0V0.842H11.7885V4.21H12.6305V0H8.20996Z" fill="#979797"/>
<path d="M10.9459 4.21V1.684H8.41992V4.21H10.9459ZM9.26192 2.526H10.1039V3.368H9.26192V2.526Z" fill="#979797"/>
<path d="M0.842 8.42H0V12.63H4.21V11.788H0.842V8.42Z" fill="#979797"/>
<path d="M2.52657 8.42H1.68457V10.946H4.21057V8.42H2.52657ZM3.36857 10.104H2.52657V9.262H3.36857V10.104Z" fill="#979797"/>
<path d="M11.7885 11.788H8.20996V12.63H12.6305V8.42H11.7885V11.788Z" fill="#979797"/>
<path d="M6.73633 7.57801H10.1043V9.26201H10.9463V6.73601H6.73633V7.57801Z" fill="#979797"/>
<path d="M10.9466 10.946V10.104H5.89457V6.73601H1.68457V7.57801H5.05257V10.946H10.9466Z" fill="#979797"/>
<path d="M5.05273 1.684H5.89473V4.21H5.05273V1.684Z" fill="#979797"/>
<path d="M1.68457 5.894H7.57857V1.684H6.73657V5.052H1.68457V5.894Z" fill="#979797"/>
<path d="M8.41992 5.052H10.9459V5.894H8.41992V5.052Z" fill="#979797"/>
<path d="M8.41992 8.42H9.26192V9.262H8.41992V8.42Z" fill="#979797"/>
<path d="M6.73633 8.42H7.57833V9.262H6.73633V8.42Z" fill="#979797"/>
</svg>
